<?xml version="1.0" standalone="no"?>
<!DOCTYPE svg PUBLIC "-//W3C//DTD SVG 1.1//EN" "http://www.w3.org/Graphics/SVG/1.1/DTD/svg11.dtd" >
<svg>
<metadata>
Created by FontForge 20090914 at Tue Oct 23 11:47:21 2012
 By www-data
Copyright (c) Alexandra Gophmann, 2005. All rights reserved.
</metadata>
<defs>
<font id="EseninscriptOne" horiz-adv-x="478" >
  <font-face 
    font-family="Esenin script One"
    font-weight="400"
    font-stretch="normal"
    units-per-em="1000"
    panose-1="3 0 4 0 0 0 0 0 0 0"
    ascent="800"
    descent="-200"
    x-height="261"
    cap-height="668.996"
    bbox="-379.001 -385.002 1692 848"
    underline-thickness="21"
    underline-position="-84"
    unicode-range="U+0020-U+F002"
  />
<missing-glyph horiz-adv-x="500" 
d="M63 0v662h375v-662h-375zM125 63h250v537h-250v-537z" />
    <glyph glyph-name=".notdef" horiz-adv-x="500" 
d="M63 0v662h375v-662h-375zM125 63h250v537h-250v-537z" />
    <glyph glyph-name="space" unicode=" " horiz-adv-x="177" 
 />
    <glyph glyph-name="exclam" unicode="!" horiz-adv-x="287" 
d="M441 539c0 -15.333 -37.334 -74.332 -112.001 -176.999c-81.333 -112.667 -135.333 -195.334 -162 -248.001c-2 -4 -4.33301 -6 -7 -6s-4 1.66699 -4 5c0 0.666992 2 4 6 10c33.333 48.667 87.333 158.667 162 330c19.333 43.333 35.333 73.333 48 90
s26.334 25 41.001 25c18.667 0 28 -9.66699 28 -29zM160.999 57.001c0 -14.667 -6.66699 -28.666 -20 -41.999s-27 -20 -41 -20s-21 7.33301 -21 22c0 13.333 7 26.666 21 39.999s28 20 42 20c12.667 0 19 -6.66699 19 -20z" />
    <glyph glyph-name="quotedbl" unicode="&#x22;" 
d="M598 620c0 -10 -2.16699 -20 -6.5 -30s-20.5 -42 -48.5 -96c-18.667 -36.667 -31.667 -65.667 -39 -87h-8c4.66699 16 16.667 67.333 36 154c11.333 54.667 27 82 47 82c12.667 0 19 -7.66699 19 -23zM516 619c0 -12.667 -7.33301 -33 -22 -61
c-37.333 -70.667 -61.333 -121 -72 -151h-9c10 34.667 22 86 36 154c11.333 54.667 27.333 82 48 82c12.667 0 19 -8 19 -24z" />
    <glyph glyph-name="numbersign" unicode="#" 
d="M630 367c-11.333 -14 -20 -29.3311 -26 -45.998c-26 1.33301 -67.333 2.66602 -124 3.99902c-22.667 -40.667 -39 -71.334 -49 -92.001c24.667 0.666992 65.334 1.66699 122.001 3c-13.333 -18 -22.333 -33 -27 -45c-30 0.666992 -68.667 1.66699 -116 3l-67 -129h-18
c22 37.333 45.667 80.333 71 129h-39c-12.667 0 -32.667 -0.333008 -60 -1l-71 -128h-15c6 12.667 18.667 35.667 38 69c6.66699 11.333 17 30.666 31 57.999l-29 -1l-97 -2c11.333 13.333 20.666 29 27.999 47l120 -4c6.66699 12.667 21.334 43.334 44.001 92.001h-27
l-68 -3h-21c13.333 17.333 22.666 33 27.999 47l13 -1h68l26 -1c25.333 58.667 41.666 101 48.999 127h52l-73 -127h53c12.667 0 23.667 0.333008 33 1c25.333 60.667 41.333 102.667 48 126h47c-13.333 -18 -37.333 -60 -72 -126c14.667 -0.666992 30.667 -1 48 -1
c30.667 0 57.334 0.333008 80.001 1zM462 325.002c-10 0.666992 -21 1 -33 1h-15c-8.66699 -0.666992 -17 -1 -25 -1h-19c-14 -23.333 -31.333 -54.333 -52 -93h74l24 1z" />
    <glyph glyph-name="dollar" unicode="$" 
d="M602 375c0 -24.667 -11.333 -45.333 -34 -62s-50.667 -25 -84 -25c-43.333 0 -65 15.667 -65 47c0 12.667 6.5 26.834 19.5 42.501s24.833 23.5 35.5 23.5c2.66699 0 4 -1 4 -3c0 -1.33301 -0.666992 -2 -2 -2c-32.667 -14.667 -49 -34.667 -49 -60
c0 -26 14.667 -39 44 -39c21.333 0 43 10.333 65 31s33 41.334 33 62.001c0 35.333 -24.667 53 -74 53c-36.667 0 -70.334 -11.833 -101.001 -35.5s-46 -49.834 -46 -78.501c0 -12.667 4.83301 -24.334 14.5 -35.001s35.5 -32.667 77.5 -66
c37.333 -29.333 56 -60.666 56 -93.999c0 -42.667 -21.167 -79.334 -63.5 -110.001s-92.166 -46 -149.499 -46c-7.33301 0 -14.666 0.333008 -21.999 1l-98 -183c-2.66699 -5.33301 -5.66699 -8 -9 -8s-5 2 -5 6c0 2.66699 1.33301 6.33398 4 11.001l98 176
c-76.667 12.667 -115 46.334 -115 101.001c0 29.333 16.5 56.666 49.5 81.999s68.167 38 105.5 38c4 0 6.33301 -0.666992 7 -2c0 -2 -3.66699 -3.66699 -11 -5c-30.667 -6 -56.334 -20.333 -77.001 -43s-31 -47.334 -31 -74.001c0 -29.333 9.16699 -52.333 27.5 -69
s43.833 -25 76.5 -25c44 0 82.167 11.667 114.5 35s48.5 51.333 48.5 84c0 17.333 -4.5 31.5 -13.5 42.5s-34 31.833 -75 62.5s-61.5 62 -61.5 94c0 38 19.833 72.167 59.5 102.5s84.5 45.5 134.5 45.5c7.33301 0 14.333 -0.333008 21 -1l75 142c4 7.33301 7.33301 11 10 11
c3.33301 0 5 -2 5 -6c0 -1.33301 -1.33301 -5.33301 -4 -12l-75 -137c53.333 -10.667 80 -34.667 80 -72z" />
    <glyph glyph-name="percent" unicode="%" horiz-adv-x="461" 
d="M599 503c0 -2.66699 -1.66797 -5.66504 -5.00098 -8.99805c-66.667 -71.333 -162.667 -220 -288 -446c-12.667 3.33301 -25 5 -37 5c-1.33301 0 -10.666 -0.666992 -27.999 -2c100.667 139.333 204 273.333 310 402l14 17c-22 -22.667 -56 -46.667 -102 -72
c-28.667 -16 -52.667 -37.667 -72 -65c-36 -51.333 -71 -77 -105 -77c-15.333 0 -27.666 5 -36.999 15s-14 23 -14 39c0 29.333 17.833 61 53.5 95s68.834 51 99.501 51c24.667 0 37 -13.333 37 -40c0 -16.667 -7 -36.334 -21 -59.001
c21.333 27.333 50.666 51.666 87.999 72.999c40.667 23.333 73 47 97 71c3.33301 3.33301 5.66602 5 6.99902 5c2 -0.666992 3 -1.66699 3 -3zM613.999 235.002c0 -32.667 -16.165 -67.5 -48.498 -104.5s-62.5 -55.5 -90.5 -55.5c-14.667 0 -26.834 5 -36.501 15
s-14.5 22.667 -14.5 38c0 30 17.667 62 53 96s68.666 51 99.999 51c24.667 0 37 -13.333 37 -40zM601.001 242.002c0 17.333 -6.99902 26 -20.999 26c-22 0 -48.5 -20 -79.5 -60s-46.5 -73.667 -46.5 -101c0 -16.667 7 -25 21 -25c23.333 0 50.166 19.333 80.499 58
s45.5 72.667 45.5 102zM412.002 423.002c0 17.333 -6.99902 26 -20.999 26c-22 0 -48.5 -20 -79.5 -60s-46.5 -74 -46.5 -102c0 -16 7 -24 21 -24c23.333 0 50.166 19.333 80.499 58s45.5 72.667 45.5 102z" />
    <glyph glyph-name="ampersand" unicode="&#x26;" horiz-adv-x="703" 
d="M878 169c0 -53.333 -25.3291 -102.833 -75.9961 -148.5s-105.667 -68.5 -165 -68.5c-54 0 -98 19 -132 57c-38.667 -12 -74.334 -18 -107.001 -18c-66.667 0 -123.334 19.5 -170.001 58.5s-70 86.167 -70 141.5c0 70 40.333 132.333 121 187c32.667 22 85 47 157 75
l64 25c23.333 43.333 54.166 83.666 92.499 120.999s67.833 56 88.5 56c11.333 0 17 -5 17 -15c0 -16 -18 -40.167 -54 -72.5s-80.667 -64.166 -134 -95.499c-14 -33.333 -25.333 -65.333 -34 -96c21.333 4 38 6 50 6c45.333 0 82.166 -14.167 110.499 -42.5
s42.5 -65.166 42.5 -110.499c0 -46.667 -14.333 -88.834 -43 -126.501s-68.667 -67.5 -120 -89.5c30.667 -34.667 70 -52 118 -52c58 0 111.667 21.833 161 65.5s74 91.5 74 143.5c0 12.667 -2.66699 27 -8 43v3c0 2 1.33301 3 4 3s5.5 -5.83301 8.5 -17.5
s4.5 -22.5 4.5 -32.5zM689.004 639c0 5.33301 -2.66699 7.99902 -8 7.99902c-17.333 0 -44 -17.5 -80 -52.5s-64.333 -70.833 -85 -107.5c38.667 20.667 77.167 47.834 115.5 81.501s57.5 57.167 57.5 70.5zM661.004 242.999c0 37.333 -12.5 68.5029 -37.5 93.5029
s-56.833 37.5 -95.5 37.5c-17.333 0 -35.666 -2.66699 -54.999 -8c-14 -54.667 -21 -106.667 -21 -156c0 -42.667 8 -85.334 24 -128.001c28 10 51.667 25.667 71 47s28.666 42 27.999 62c-0.666992 9.33301 2.66602 14 9.99902 14s11 -3.66699 11 -11
c0 -19.333 -12.167 -41.333 -36.5 -66s-51.166 -42.667 -80.499 -54l11 -23l13 -20c45.333 23.333 83 55.166 113 95.499s45 79.166 45 116.499zM462.004 79.002c-18 43.333 -26.999 90 -26.999 140c0 42 6.66699 88.667 20 140c-37.333 -15.333 -68.5 -40 -93.5 -74
s-37.5 -69 -37.5 -105c0 -30 10.167 -54.833 30.5 -74.5s46.166 -29.5 77.499 -29.5c10 0 20 1 30 3zM495.005 463.002c-85.333 -45.333 -143.002 -80.334 -173.002 -105.001c-80 -65.333 -120 -132.666 -120 -201.999c0 -43.333 18.333 -79.833 55 -109.5
s81.334 -44.5 134.001 -44.5c32 0 65.667 7.66699 101 23c-10 14.667 -18.667 29.667 -26 45c-13.333 -2.66699 -24.666 -4 -33.999 -4c-36.667 0 -67.834 11.667 -93.501 35s-38.5 51.333 -38.5 84c0 39.333 14.333 75.833 43 109.5s67.334 59.167 116.001 76.5
c9.33301 32 21.333 62.667 36 92z" />
    <glyph glyph-name="quotesingle" unicode="'" horiz-adv-x="321" 
d="M479 619c0 -12.667 -7.33301 -33 -22 -61c-37.333 -70.667 -61.333 -121 -72 -151h-9c10 34.667 22 86 36 154c11.333 54.667 27.333 82 48 82c12.667 0 19 -8 19 -24z" />
    <glyph glyph-name="parenleft" unicode="(" horiz-adv-x="439" 
d="M854 704c0 -2.66699 -6 -5.00195 -18 -7.00195c-132.667 -21.333 -252.667 -95 -360 -221s-161 -256.333 -161 -391c0 -63.333 20 -114.666 60 -153.999c2 -2 3 -3.66699 3 -5c-0.666992 -2 -1.66699 -3 -3 -3c-4 0 -14.333 9.66699 -31 29
c-46 52.667 -69 119.667 -69 201c0 90.667 30.167 181.334 90.5 272.001s136.166 159.667 227.499 207c33.333 17.333 77.833 34.333 133.5 51s95.834 25 120.501 25c4.66699 0 7 -1.33301 7 -4z" />
    <glyph glyph-name="parenright" unicode=")" horiz-adv-x="439" 
d="M462 497c0 -70 -8.16699 -130.334 -24.5 -181.001s-43.5 -100.667 -81.5 -150c-44 -56.667 -93 -102.667 -147 -138s-120.333 -64.666 -199 -87.999c-56 -16.667 -90 -25 -102 -25c-3.33301 0 -5 1.33301 -5 4s4 4.66699 12 6c128 24 244.5 99.833 349.5 227.5
s157.5 257.5 157.5 389.5c0 66.667 -19.667 118 -59 154c-2.66699 2 -4 4 -4 6s1.33301 3 4 3s9 -5 19 -15c53.333 -52 80 -116.333 80 -193z" />
    <glyph glyph-name="asterisk" unicode="*" 
d="M560 623c0 -9.33301 -6.33301 -17.999 -19 -25.999c-20 -12.667 -35.333 -27.667 -46 -45h-5c8 35.333 15.5 59.166 22.5 71.499s16.167 18.5 27.5 18.5c13.333 0 20 -6.33301 20 -19zM593 541.001c0 -16.667 -6.33301 -25 -19 -25c-4.66699 0 -10.667 2.66699 -18 8
c-16.667 12 -31.334 18 -44.001 18c-2.66699 0 -7.66699 -0.666992 -15 -2v6c28.667 12.667 52.334 19 71.001 19c16.667 0 25 -8 25 -24zM485 551.001l-5 -3c-32.667 30.667 -49 57 -49 79c0 14 7.66699 21 23 21c14 0 21 -6.66699 21 -20
c0 -2.66699 -0.5 -7.16699 -1.5 -13.5s-1.5 -11.5 -1.5 -15.5c0 -14.667 3.33301 -28.667 10 -42zM552 460.001c0 -14 -7.66602 -21 -22.999 -21c-10 0 -16.333 4.33301 -19 13c-1.33301 3.33301 -2 12 -2 26c-0.666992 24 -6.33398 42 -17.001 54l6 3l8 -8l21 -19
c17.333 -16 26 -32 26 -48zM478.001 536.001c-24 -7.33301 -45.667 -11 -65 -11c-20.667 0 -31 8.33301 -31 25s6.66699 25 20 25c4.66699 0 10 -3 16 -9c21.333 -16 41.333 -24 60 -24v-6zM487.001 531.001c-14 -61.333 -30.333 -92 -49 -92c-14.667 0 -22 6.66699 -22 20
c0 10 8 19.333 24 28c19.333 10 33 25 41 45z" />
    <glyph glyph-name="plus" unicode="+" horiz-adv-x="289" 
d="M386 266c-56.667 -94.667 -113.666 -196.332 -170.999 -304.999c41.333 -16 62 -44.667 62 -86c0 -44 -24 -85.333 -72 -124s-99.333 -58 -154 -58c-16.667 0 -32.334 2.33301 -47.001 7c-50.667 -38.667 -95 -58 -133 -58c-20.667 0 -37.667 6.66699 -51 20
s-20 30.666 -20 51.999c0 60 37 118.667 111 176s149.667 86 227 86c11.333 0 20.333 -0.666992 27 -2l70 133c-53.333 -74.667 -94.333 -112 -123 -112c-16.667 0 -30.834 7.33301 -42.501 22s-17.5 32.667 -17.5 54c0 59.333 39.333 112.333 118 159
c44.667 26.667 80.334 40 107.001 40c20 0 30 -10.333 30 -31c0 -4.66699 -0.333008 -9 -1 -13l23 41c10 -2.66699 18.667 -4 26 -4c6.66699 0 17 1 31 3zM300.001 237.002c0 17.333 -7.66797 26 -23.001 26c-29.333 0 -68.166 -29 -116.499 -87s-72.5 -104.667 -72.5 -140
c0 -22.667 8.66699 -34 26 -34c23.333 0 64 38.667 122 116c42.667 57.333 64 97 64 119zM270 -123.998c0 38 -19.3311 64.333 -57.998 79c-35.333 -66 -66.833 -116 -94.5 -150s-63.834 -67.333 -108.501 -100c10.667 -3.33301 23.667 -5 39 -5
c53.333 0 103.666 18.667 150.999 56s71 77.333 71 120zM161.002 -31.998c-9.33301 0.666992 -18.334 0.999023 -27.001 0.999023c-72.667 0 -144 -28.667 -214 -86s-105 -115.666 -105 -174.999c0 -17.333 5 -31.5 15 -42.5s22.667 -16.5 38 -16.5
c32.667 0 72 19.333 118 58c-37.333 21.333 -56 48.666 -56 81.999c0 28.667 14 56.334 42 83.001c12.667 12 20.667 18 24 18c1.33301 0 2 -0.666992 2 -2c0 -2 -3.66699 -5.66699 -11 -11c-33.333 -24 -50 -53.667 -50 -89c0 -32 18 -57.333 54 -76
c28.667 28 53.834 58.167 75.501 90.5s53.167 87.5 94.5 165.5z" />
    <glyph glyph-name="comma" unicode="," horiz-adv-x="223" 
d="M151 59c0 -22 -11.999 -46 -35.999 -72c-9.33301 -10 -21.5 -19.833 -36.5 -29.5s-25.5 -14.5 -31.5 -14.5c-2 0 -3 1 -3 3s1.33301 3.33301 4 4c13.333 4.66699 25.5 11.5 36.5 20.5s16.5 16.833 16.5 23.5c0 2 -1.66699 3 -5 3c-14.667 0 -22 7 -22 21
c0 12.667 6.66699 26.167 20 40.5s25.666 21.5 36.999 21.5c13.333 0 20 -7 20 -21z" />
    <glyph glyph-name="hyphen" unicode="-" horiz-adv-x="358" 
d="M358 133c0 -4 -13.3301 -10.167 -39.9971 -18.5s-47 -12.5 -61 -12.5c-13.333 0 -27 1.66699 -41 5c-16.667 4 -29.334 6 -38.001 6c-13.333 0 -26.333 -3.33301 -39 -10c-0.666992 -0.666992 -1.66699 -1 -3 -1s-2 0.666992 -2 2c0 4 12.667 10.333 38 19
s43.666 13 54.999 13c6.66699 0 20.667 -2.33301 42 -7c18 -4 31 -6 39 -6c15.333 0 29.666 3.33301 42.999 10c2 1.33301 3.66699 2 5 2s2 -0.666992 2 -2z" />
    <glyph glyph-name="hyphen" unicode="&#x2010;" horiz-adv-x="358" 
d="M358 133c0 -4 -13.3301 -10.167 -39.9971 -18.5s-47 -12.5 -61 -12.5c-13.333 0 -27 1.66699 -41 5c-16.667 4 -29.334 6 -38.001 6c-13.333 0 -26.333 -3.33301 -39 -10c-0.666992 -0.666992 -1.66699 -1 -3 -1s-2 0.666992 -2 2c0 4 12.667 10.333 38 19
s43.666 13 54.999 13c6.66699 0 20.667 -2.33301 42 -7c18 -4 31 -6 39 -6c15.333 0 29.666 3.33301 42.999 10c2 1.33301 3.66699 2 5 2s2 -0.666992 2 -2z" />
    <glyph glyph-name="period" unicode="." horiz-adv-x="223" 
d="M170 57c0 -14.667 -6.66699 -28.666 -20 -41.999s-27 -20 -41 -20s-21 7.33301 -21 22c0 13.333 7 26.666 21 39.999s28 20 42 20c12.667 0 19 -6.66699 19 -20z" />
    <glyph glyph-name="slash" unicode="/" horiz-adv-x="529" 
d="M710 726l-525 -827h-15l525 827h15z" />
    <glyph glyph-name="zero" unicode="0" 
d="M631 386c0 -74 -37.334 -153.332 -112.001 -237.999c-90.667 -102.667 -174.667 -154 -252 -154c-38.667 0 -70.5 14 -95.5 42s-37.5 63.667 -37.5 107c0 87.333 53.667 176.333 161 267c92.667 78 166.667 117 222 117c34.667 0 62.334 -12.833 83.001 -38.5
s31 -59.834 31 -102.501zM594.999 440.001c0 53.333 -25.667 79.999 -77 79.999c-42 0 -90.667 -24.667 -146 -74c-52 -47.333 -96.667 -103.666 -134 -168.999c-39.333 -70 -59 -131.333 -59 -184c0 -61.333 29 -92 87 -92c71.333 0 143.333 50 216 150
c34 46.667 61.333 96.5 82 149.5s31 99.5 31 139.5z" />
    <glyph glyph-name="one" unicode="1" 
d="M610 507c0 -3.33301 -37 -62.001 -111 -176.001c-59.333 -91.333 -100.333 -158.833 -123 -202.5s-39.667 -87.5 -51 -131.5c-11.333 2.66699 -21.333 4 -30 4c-9.33301 0 -27 -2 -53 -6c22 64.667 89.667 165.334 203 302.001c69.333 83.333 115.333 143 138 179
c-84.667 -100 -169.667 -182.667 -255 -248c-55.333 -42 -88.333 -63 -99 -63c-2.66699 0 -4 1 -4 3s2 4 6 6c82.667 37.333 202.667 143.333 360 318l6 7c6 6.66699 9.66699 10 11 10s2 -0.666992 2 -2z" />
    <glyph glyph-name="two" unicode="2" 
d="M632 415c0 -44.667 -18.6699 -84.666 -56.0029 -119.999c-26.667 -25.333 -54.167 -45.5 -82.5 -60.5s-84.166 -39.167 -167.499 -72.5c-104 -42 -175.667 -86.667 -215 -134c29.333 22.667 61 34 95 34c27.333 0 63.333 -7 108 -21c38.667 -12 68 -18 88 -18
c27.333 0 52.833 11.167 76.5 33.5s39.834 50.833 48.501 85.5c0.666992 4 2.33398 6 5.00098 6c1.33301 0 2 -0.666992 2 -2c0 -18.667 -11 -43.334 -33 -74.001c-40.667 -56.667 -91.334 -85 -152.001 -85c-22.667 0 -56 6.66699 -100 20c-53.333 16 -87 24 -101 24
c-34 0 -52.667 -13.667 -56 -41c-0.666992 -7.33301 -3 -11 -7 -11c-2.66699 0 -4 1.33301 -4 4c0 15.333 13 36.333 39 63c22.667 23.333 45.834 42.333 69.501 57s68.167 37.334 133.5 68.001c82 38.667 146.167 82.834 192.5 132.501s69.5 99.167 69.5 148.5
c0 20.667 -7.66699 37 -23 49s-35.666 18 -60.999 18c-57.333 0 -119.333 -29.333 -186 -88s-100 -113.334 -100 -164.001c0 -36.667 22 -55 66 -55c34.667 0 73.667 17.167 117 51.5s73 71.5 89 111.5c0.666992 3.33301 2 5 4 5s3 -1 3 -3c0 -14 -14 -37.667 -42 -71
c-24.667 -28.667 -52.834 -52.334 -84.501 -71.001s-60.167 -28 -85.5 -28c-24.667 0 -44.667 7.5 -60 22.5s-23 34.833 -23 59.5c0 60.667 40.333 117.667 121 171c66 43.333 127 65 183 65c38 0 69 -10.167 93 -30.5s36 -46.833 36 -79.5z" />
    <glyph glyph-name="three" unicode="3" 
d="M603 438c0 -77.333 -66.9971 -127.662 -200.997 -150.995c78.667 -18 118 -58 118 -120c0 -46.667 -26.833 -87.834 -80.5 -123.501s-115.834 -53.5 -186.501 -53.5c-44.667 0 -81.334 9 -110.001 27s-43 41 -43 69c0 29.333 14.167 54.166 42.5 74.499
s62.833 30.5 103.5 30.5c30.667 0 46 -2 46 -6c0 -2 -1 -3 -3 -3h-4c-12 2 -22 3 -30 3c-35.333 0 -65.333 -10.167 -90 -30.5s-37 -45.166 -37 -74.499c0 -24 9.66699 -43.667 29 -59s44.333 -23 75 -23c59.333 0 114 21.167 164 63.5s75 88.833 75 139.5
c0 42 -25.667 69.667 -77 83c-28 -4 -51 -6 -69 -6c-16.667 0 -25 2 -25 6c0 6.66699 12 10 36 10c18.667 0 38 -1.66699 58 -5c49.333 16.667 88.666 40.667 117.999 72s44 65.333 44 102c0 41.333 -26.333 62 -79 62c-45.333 0 -90.833 -15.667 -136.5 -47
s-68.5 -63 -68.5 -95c0 -29.333 18.667 -44 56 -44c22.667 0 48.167 9 76.5 27s50.5 39.333 66.5 64c1.33301 3.33301 3.33301 5 6 5c1.33301 0 2 -0.666992 2 -2c0 -3.33301 -6.16699 -11.833 -18.5 -25.5s-23.833 -24.834 -34.5 -33.501c-34.667 -27.333 -68 -41 -100 -41
c-18.667 0 -34.167 5.66699 -46.5 17s-18.5 25.666 -18.5 42.999c0 33.333 23.167 64.666 69.5 93.999s95.5 44 147.5 44c38 0 68.333 -8.33301 91 -25s34 -39.334 34 -68.001z" />
    <glyph glyph-name="four" unicode="4" 
d="M782 570c0 -2.66699 -1.33008 -4.00195 -3.99707 -4.00195c-0.666992 0 -2.33398 0.333008 -5.00098 1c-15.333 5.33301 -30 8 -44 8c-84.667 0 -193.334 -68.667 -326.001 -206c-65.333 -67.333 -113.333 -114 -144 -140s-66.334 -49.667 -107.001 -71
c38 10 88.333 15 151 15c23.333 0 42.666 -0.666992 57.999 -2c18 27.333 56.667 82 116 164c51.333 70.667 83.333 119.334 96 146.001c2 4 4 6 6 6c1.33301 0 2 -0.666992 2 -2c0 -0.666992 -0.333008 -1.66699 -1 -3l-5 -10c-4 -8 -27 -49.833 -69 -125.5
s-73.333 -135.167 -94 -178.5c20 -1.33301 38.667 -2 56 -2c34 0 61.667 7.5 83 22.5s32 34.167 32 57.5c0 8.66699 -2.33301 18 -7 28c-0.666992 1.33301 -1 3 -1 5s1 3 3 3c7.33301 0 11 -12 11 -36c0 -65.333 -62.333 -98 -187 -98c-28.667 -62 -46 -112 -52 -150
c-12 4 -24 6 -36 6c-15.333 0 -31.666 -2 -48.999 -6c17.333 46.667 44.333 96.667 81 150c-7.33301 0 -24.666 1.33301 -51.999 4c-38 4 -66.333 6 -85 6c-18 0 -38 -1.33301 -60 -4c-38.667 -24.667 -69.667 -37 -93 -37c-5.33301 0 -8 1.66699 -8 5
c0 11.333 31.333 23.333 94 36c44.667 26.667 82 53 112 79c28.667 24 76.667 70.667 144 140c135.333 138.667 245.666 208 330.999 208c12 0 23.833 -1.66699 35.5 -5s17.5 -6.66602 17.5 -9.99902z" />
    <glyph glyph-name="five" unicode="5" 
d="M638 537c0 -20.667 -9.32812 -38.833 -27.9951 -54.5s-40 -23.5 -64 -23.5c-18 0 -40.167 4.66699 -66.5 14s-46.5 14 -60.5 14c-18.667 0 -32.334 -11.333 -41.001 -34c-18.667 -50 -42.667 -95 -72 -135c27.333 12.667 54.666 19 81.999 19
c44 0 80.667 -12.5 110 -37.5s44 -56.167 44 -93.5c0 -55.333 -30.667 -105 -92 -149s-130.666 -66 -207.999 -66c-40.667 0 -73.834 9.16699 -99.501 27.5s-38.5 42.166 -38.5 71.499c0 33.333 16.5 61.333 49.5 84s74.167 34 123.5 34c28 0 42 -2 42 -6
c-0.666992 -1.33301 -1.66699 -2 -3 -2c-4 0 -9.83301 0.333008 -17.5 1s-13.5 1 -17.5 1c-43.333 0 -79 -11.167 -107 -33.5s-42 -51.166 -42 -86.499c0 -26 9.16699 -46.5 27.5 -61.5s43.166 -22.5 74.499 -22.5c59.333 0 117.166 24.833 173.499 74.5
s84.5 100.834 84.5 153.501c0 31.333 -10.5 56.166 -31.5 74.499s-48.833 27.5 -83.5 27.5c-23.333 0 -49 -5.33301 -77 -16c-34.667 -44 -58.334 -66 -71.001 -66c-4 0 -6 1.66699 -6 5c0 12.667 24 33 72 61c57.333 76.667 86 142.667 86 198c0 6 -0.333008 10 -1 12
s-1 4 -1 6c0 4 2 6 6 6s6 -5.33301 6 -16c0 -9.33301 -2 -22.666 -6 -39.999c18.667 32 43 48 73 48c12 0 43.333 -8.66699 94 -26c17.333 -6 31 -9 41 -9s18.833 3.66699 26.5 11s11.5 16 11.5 26c0 2.66699 -0.666992 5.66699 -2 9s-2 5.66602 -2 6.99902
c0 4 1.66699 6 5 6c4 0 6 -4.33301 6 -13z" />
    <glyph glyph-name="six" unicode="6" 
d="M647 571c0 -3.33301 -3.33105 -4.99902 -9.99805 -4.99902h-9c-58 0 -129.667 -41.333 -215 -124s-149 -172.334 -191 -269.001c32.667 52.667 70.667 95.167 114 127.5s84.333 48.5 123 48.5c32.667 0 59.167 -10 79.5 -30s30.5 -46 30.5 -78
c0 -57.333 -31.667 -113.5 -95 -168.5s-128.333 -82.5 -195 -82.5c-36.667 0 -65.834 11.833 -87.501 35.5s-32.5 55.167 -32.5 94.5c0 58.667 24.333 120.334 73 185.001s116.667 126 204 184c35.333 23.333 73.166 43.666 113.499 60.999s69.833 26 88.5 26
c6 0 9 -1.66699 9 -5zM527.002 277.001c0 44 -24.333 65.999 -73 65.999c-51.333 0 -106.333 -30.333 -165 -91s-88 -118 -88 -172c0 -25.333 6.33301 -45.666 19 -60.999s29.667 -23 51 -23c50.667 0 106 33 166 99s90 126.667 90 182z" />
    <glyph glyph-name="seven" unicode="7" 
d="M640 549c0 -14.667 -8.00098 -35.334 -24.001 -62.001c-12.667 -21.333 -25.334 -39 -38.001 -53c-15.333 -16.667 -49 -50.667 -101 -102c-130.667 -128 -198.667 -239.333 -204 -334c-15.333 3.33301 -30.333 5 -45 5c-13.333 0 -26 -1.66699 -38 -5
c11.333 63.333 40.5 123.5 87.5 180.5s123.5 125.5 229.5 205.5c56.667 42.667 94 83 112 121c-23.333 -34.667 -58.666 -52 -105.999 -52c-24 0 -56 7.33301 -96 22s-65.667 22 -77 22c-10 0 -19.667 -2.66699 -29 -8l-3 -6c-25.333 -50.667 -43.666 -76 -54.999 -76
c-4 0 -6 2 -6 6c0 16.667 19 42 57 76c7.33301 14.667 11 27.334 11 38.001c0 4 -1 9.33301 -3 16v2c0 4 2 6 6 6s6 -3.33301 6 -10c0 -12 -3.66699 -27 -11 -45c26 21.333 52.333 32 79 32c16 0 48.667 -8.33301 98 -25c28 -9.33301 51 -14 69 -14c45.333 0 68 16 68 48
c0 2.66699 -0.333008 5.66699 -1 9v3c0 5.33301 2.33301 8 7 8s7 -2.66699 7 -8z" />
    <glyph glyph-name="eight" unicode="8" 
d="M648 454c0 -57.333 -69 -106.329 -207 -146.996c30.667 -28.667 51.167 -51.834 61.5 -69.501s15.5 -37.5 15.5 -59.5c0 -48.667 -24.667 -92.167 -74 -130.5s-105.333 -57.5 -168 -57.5c-44.667 0 -81 10.167 -109 30.5s-42 47.166 -42 80.499
c0 39.333 19.333 73.666 58 102.999s104.667 59.666 198 90.999c-32.667 32 -49 62 -49 90c0 38 21 72.667 63 104s88.667 47 140 47c32 0 58.833 -7.83301 80.5 -23.5s32.5 -35.167 32.5 -58.5zM615 469.004c0 17.333 -7.66797 31.832 -23.001 43.499
s-34.333 17.5 -57 17.5c-41.333 0 -77.666 -12 -108.999 -36s-47 -51.667 -47 -83c0 -18 6.66699 -36.333 20 -55c5.33301 -7.33301 18.333 -22.333 39 -45c54 18.667 97 42.334 129 71.001s48 57.667 48 87zM467.999 147.003c0 27.333 -9 53.667 -27 79
c-4.66699 7.33301 -23.667 29 -57 65c-147.333 -54 -221 -123 -221 -207c0 -58.667 37.333 -88 112 -88c52.667 0 98 14.833 136 44.5s57 65.167 57 106.5z" />
    <glyph glyph-name="nine" unicode="9" 
d="M612 400c0 -55.333 -24.998 -115.002 -74.998 -179.002s-117.667 -123.333 -203 -178c-38 -24 -78.167 -44.5 -120.5 -61.5s-74.5 -25.5 -96.5 -25.5c-5.33301 0 -8 1.66699 -8 5c0 4.66699 4 7 12 7h7c59.333 0 132.666 39.333 219.999 118s152.333 163.334 195 254.001
c-32 -47.333 -71.333 -86.666 -118 -117.999s-89.334 -47 -128.001 -47c-31.333 0 -56.333 9.5 -75 28.5s-28 44.5 -28 76.5c0 58 33.333 113 100 165c32 25.333 67 46 105 62s70.667 24 98 24c34 0 61.667 -12.167 83 -36.5s32 -55.833 32 -94.5zM570.002 441.998
c0 55.333 -24 83 -72 83c-50 0 -106.333 -33.333 -169 -100s-94 -126.667 -94 -180c0 -42 22.333 -63 67 -63c29.333 0 64.333 12.167 105 36.5s75.667 53.833 105 88.5c38.667 46 58 91 58 135z" />
    <glyph glyph-name="colon" unicode=":" horiz-adv-x="223" 
d="M258 200c0 -14.667 -6.66797 -28.666 -20.001 -41.999s-27 -20 -41 -20s-21 7.33301 -21 22c0 13.333 6.83301 26.666 20.5 39.999s27.834 20 42.501 20c12.667 0 19 -6.66699 19 -20zM169.999 57.001c0 -14.667 -6.66699 -28.666 -20 -41.999s-27 -20 -41 -20
s-21 7.33301 -21 22c0 13.333 7 26.666 21 39.999s28 20 42 20c12.667 0 19 -6.66699 19 -20z" />
    <glyph glyph-name="semicolon" unicode=";" horiz-adv-x="223" 
d="M248 204c0 -14.667 -6.66797 -28.667 -20.001 -42s-27 -20 -41 -20s-21 7 -21 21s6.83301 27.667 20.5 41s27.834 20 42.501 20c12.667 0 19 -6.66699 19 -20zM151.999 59c0 -22 -11.999 -46 -35.999 -72c-9.33301 -10 -21.5 -19.833 -36.5 -29.5
s-25.5 -14.5 -31.5 -14.5c-2 0 -3 1 -3 3s1.33301 3.33301 4 4c13.333 4.66699 25.5 11.5 36.5 20.5s16.5 16.833 16.5 23.5c0 2 -1.66699 3 -5 3c-14.667 0 -22 7 -22 21c0 12.667 6.66699 26.167 20 40.5s25.666 21.5 36.999 21.5c13.333 0 20 -7 20 -21z" />
    <glyph glyph-name="less" unicode="&#x3c;" horiz-adv-x="523" 
d="M614 137l-433 186v21l433 186v-21l-410 -176l410 -175v-21z" />
    <glyph glyph-name="equal" unicode="=" horiz-adv-x="106" 
d="M260 360c0 -12 -4.83301 -22.833 -14.5 -32.5s-20.167 -14.5 -31.5 -14.5c-14.667 0 -22 7.33301 -22 22c0 10.667 5 21 15 31s20.667 15 32 15c14 0 21 -7 21 -21zM209 267c-59.333 -93.333 -114.336 -188.668 -165.003 -286.001
c-1.33301 -3.33301 -4 -8.66602 -8 -15.999c42 -17.333 63 -46 63 -86c0 -44.667 -23.667 -86.167 -71 -124.5s-98.666 -57.5 -153.999 -57.5c-17.333 0 -33.666 2.66699 -48.999 8c-51.333 -38 -95.333 -57 -132 -57c-22 0 -39.5 6.5 -52.5 19.5s-19.5 30.5 -19.5 52.5
c0 59.333 36.833 117.5 110.5 174.5s148.834 85.5 225.501 85.5c3.33301 0 14.333 -0.666992 33 -2c46.667 90 99.667 186.333 159 289c10 -2.66699 19 -4 27 -4c8.66699 0 19.667 1.33301 33 4zM91.9971 -119.002c0 36.667 -19.666 63.001 -58.999 79.001
c-34 -65.333 -64.5 -114.833 -91.5 -148.5s-63.833 -67.834 -110.5 -102.501c13.333 -3.33301 26.333 -5 39 -5c55.333 0 106.166 18.5 152.499 55.5s69.5 77.5 69.5 121.5zM-14.002 -29.001c-7.33301 1.33301 -16.999 1.99902 -28.999 1.99902c-74 0 -146 -28.333 -216 -85
s-105 -115 -105 -175c0 -38.667 18.667 -58 56 -58c33.333 0 71.666 19 114.999 57c-36.667 20.667 -55 48 -55 82c0 32 16.333 61.667 49 89c8.66699 7.33301 14 11 16 11s3 -0.666992 3 -2s-2.33301 -3.66602 -7 -6.99902c-36 -28 -54 -59 -54 -93
c0 -31.333 17.667 -56.333 53 -75c56 51.333 114 136 174 254z" />
    <glyph glyph-name="greater" unicode="&#x3e;" horiz-adv-x="523" 
d="M661 323l-433 -186v21l410 175l-410 176v21l433 -186v-21z" />
    <glyph glyph-name="question" unicode="?" horiz-adv-x="436" 
d="M612 444c0 -51.333 -30.998 -96.333 -92.998 -135c-22.667 -14 -77.334 -37.667 -164.001 -71c-89.333 -34 -134 -69.333 -134 -106c0 -16.667 8.66699 -25 26 -25c29.333 0 57 19 83 57c1.33301 2 2.66602 3 3.99902 3c1.33301 -0.666992 2 -1.66699 2 -3
c0 -5.33301 -9.33301 -16.666 -28 -33.999c-22 -20 -42.333 -30 -61 -30c-22 0 -33 10.333 -33 31c0 17.333 10.333 35.333 31 54c10 8.66699 19.333 15.667 28 21c12 8 39.667 24 83 48c137.333 76.667 206 151.667 206 225c0 53.333 -32 83.666 -96 90.999
c2.66699 -12.667 4 -25 4 -37c0 -57.333 -23 -112.166 -69 -164.499s-94.333 -78.5 -145 -78.5c-21.333 0 -39.166 7 -53.499 21s-21.5 31.333 -21.5 52c0 53.333 28.833 102 86.5 146s120.834 66 189.501 66c-16.667 40 -44.334 60 -83.001 60
c-13.333 0 -26 -2.33301 -38 -7c-2.66699 -1.33301 -4.33398 -2 -5.00098 -2c-2 0.666992 -3 1.66699 -3 3c0 2.66699 5.5 5.5 16.5 8.5s20.833 4.5 29.5 4.5c42 0 72 -22.333 90 -67c43.333 -2.66699 78.833 -16.334 106.5 -41.001s41.5 -54.667 41.5 -90zM233.002 57
c0 -14.667 -6.66699 -28.666 -20 -41.999s-27 -20 -41 -20s-21 7.33301 -21 22c0 13.333 7 26.666 21 39.999s28 20 42 20c12.667 0 19 -6.66699 19 -20zM464.002 533.001c0 12 -1.66797 24.332 -5.00098 36.999c-65.333 0 -126.666 -27 -183.999 -81
c-52.667 -49.333 -79 -95.666 -79 -138.999c0 -35.333 19.667 -53 59 -53c46.667 0 93.167 26.333 139.5 79s69.5 105 69.5 157z" />
    <glyph glyph-name="at" unicode="@" horiz-adv-x="684" 
d="M803 332c0 -55.333 -23 -107.668 -69 -157.001s-95.333 -74 -148 -74c-42 0 -63 20.333 -63 61c0 18 5.66699 36.667 17 56c-33.333 -45.333 -58.5 -75.833 -75.5 -91.5s-33.833 -23.5 -50.5 -23.5c-17.333 0 -31.833 7.5 -43.5 22.5s-17.5 33.833 -17.5 56.5
c0 62.667 44 117.667 132 165c39.333 21.333 70.666 32 93.999 32c20 0 30 -9.66699 30 -29c0 -5.33301 -1 -12.666 -3 -21.999l25 47c8.66699 -2.66699 17.334 -4 26.001 -4c9.33301 0 20.333 1.33301 33 4l-86 -143c-30 -50 -45 -83.333 -45 -100c0 -16 10 -24 30 -24
c21.333 0 45.666 7.66699 72.999 23c39.333 22 70.5 51.5 93.5 88.5s34.5 75.833 34.5 116.5c0 50.667 -21.5 93.667 -64.5 129s-95.5 53 -157.5 53c-84 0 -161 -36.667 -231 -110s-105 -153.666 -105 -240.999c0 -56 25.167 -104.5 75.5 -145.5s109.833 -61.5 178.5 -61.5
c54.667 0 97 8.66699 127 26c3.33301 2 6.33301 3 9 3c2 0 3 -1 3 -3c-0.666992 -8.66699 -16.667 -17.167 -48 -25.5s-62.666 -12.5 -93.999 -12.5c-80.667 0 -148.667 25.5 -204 76.5s-83 113.833 -83 188.5c0 85.333 36.333 159.5 109 222.5s158 94.5 256 94.5
c71.333 0 129.5 -18.333 174.5 -55s67.5 -84.334 67.5 -143.001zM602 347.998c0 16 -7.33301 24 -22 24c-30 0 -69.333 -29.333 -118 -88s-73 -106 -73 -142c0 -21.333 9.33301 -32 28 -32c22.667 0 61.667 37.333 117 112c45.333 61.333 68 103.333 68 126z" />
    <glyph glyph-name="A" unicode="A" horiz-adv-x="953" 
d="M1441 584c0 -6 -3.33301 -9 -10 -9c-4.66699 0 -15.667 2 -33 6c-34.667 8 -64 12 -88 12c-54.667 -17.333 -101.167 -48.166 -139.5 -92.499s-84.833 -120.833 -139.5 -229.5c-78 -154.667 -177.667 -246 -299 -274c25.333 -4 47.666 -6 66.999 -6
c59.333 0 109.666 19.333 150.999 58c24 22.667 56.667 61.667 98 117c3.33301 4.66699 6 7 8 7c1.33301 -0.666992 2 -1.66699 2 -3c0 -4.66699 -18.667 -29.667 -56 -75c-34.667 -42.667 -66.167 -71.834 -94.5 -87.501s-63.5 -23.5 -105.5 -23.5
c-24 0 -53 3.33301 -87 10c-22 -6.66699 -46 -10 -72 -10c-18.667 0 -28 3.33301 -28 10c0 8 12.667 12 38 12c16.667 0 37.334 -1.66699 62.001 -5c50 11.333 88.333 31.5 115 60.5s76.334 103.5 149.001 223.5h-188c-182 -201.333 -339.667 -302 -473 -302
c-60.667 0 -108.667 17 -144 51s-53 79.667 -53 137c0 70.667 27.333 137.667 82 201s122.667 107.333 204 132c27.333 53.333 68.5 97.333 123.5 132s110.833 52 167.5 52c33.333 0 59.833 -8.5 79.5 -25.5s29.5 -40.167 29.5 -69.5c0 -22.667 -7.66699 -49 -23 -79
c-14 -27.333 -21 -46 -21 -56c0 -24 14 -36 42 -36c32.667 0 66.334 24 101.001 72c2.66699 4 5 6 7 6c2.66699 0 4 -1.33301 4 -4c0 -3.33301 -7.66699 -13.666 -23 -30.999c-30.667 -34.667 -60.334 -52 -89.001 -52c-18.667 0 -33.834 6.66699 -45.501 20
s-17.5 30.666 -17.5 51.999c0 20 10.667 49.333 32 88c10 18 15 33.667 15 47c0 16.667 -9 30.667 -27 42s-40 17 -66 17c-52.667 0 -105.167 -16.333 -157.5 -49s-92.166 -73.667 -119.499 -123c24 5.33301 45.333 8 64 8c48 0 85.667 -12.667 113 -38s41 -60.333 41 -105
c0 -10.667 -0.666992 -20 -2 -28c26.667 21.333 47.667 49.666 63 84.999c0.666992 3.33301 2 5 4 5c2.66699 0 4 -1.66699 4 -5c0 -9.33301 -7.5 -24 -22.5 -44s-31.833 -37.667 -50.5 -53c-11.333 -62.667 -44.833 -118.667 -100.5 -168s-112.5 -74 -170.5 -74
c-31.333 0 -57.333 10.167 -78 30.5s-31 45.833 -31 76.5c0 37.333 12 74 36 110s55.667 65.333 95 88c-0.666992 8 -1 14 -1 18c0 23.333 5.66699 49 17 77c-69.333 -25.333 -128.666 -70.666 -177.999 -135.999s-74 -131.333 -74 -198c0 -49.333 15.333 -89 46 -119
s71.667 -45 123 -45c59.333 0 118.166 20.333 176.499 61s139.833 118 244.5 232c-44 0 -75.667 -0.333008 -95 -1l7 10c30.667 0 62.667 -0.333008 96 -1c95.333 106 187.833 183.333 277.5 232s184.5 73.667 284.5 75c21.333 4.66699 43 7 65 7
c45.333 0 68 -7.66699 68 -23zM1286 591c-84.667 -4.66699 -163.167 -28.999 -235.5 -72.999s-156.5 -119 -252.5 -225h186c40.667 71.333 90.5 136.166 149.5 194.499s109.833 92.833 152.5 103.5zM621 384.001c0 37.333 -12.168 67.168 -36.501 89.501
s-56.833 33.5 -97.5 33.5c-24 0 -48.667 -4.33301 -74 -13c-13.333 -30 -20 -61.333 -20 -94c34.667 18 60.334 27 77.001 27c3.33301 0 5 -1 5 -3c0 -2.66699 -6 -5.33398 -18 -8.00098c-18.667 -4.66699 -39.667 -13 -63 -25c11.333 -65.333 49.333 -98 114 -98
c32.667 0 67.667 11.667 105 35c5.33301 19.333 8 38 8 56zM608.999 316.003c-36 -20.667 -70.334 -30.999 -103.001 -30.999s-59.667 9 -81 27s-34.666 42.667 -39.999 74c-36.667 -22 -66.167 -50 -88.5 -84s-33.5 -67.667 -33.5 -101c0 -30.667 9 -55.334 27 -74.001
s41.667 -28 71 -28c46.667 0 93.667 20.833 141 62.5s83 93.167 107 154.5z" />
    <glyph glyph-name="B" unicode="B" horiz-adv-x="929" 
d="M1203 512c0 -52 -4.99902 -78.002 -14.999 -78.002c-2 0.666992 -3 2 -3 4c0 1.33301 0.333008 4 1 8c5.33301 21.333 8 41.333 8 60c0 41.333 -12.333 74.5 -37 99.5s-57.334 37.5 -98.001 37.5c-47.333 0 -97.666 -17 -150.999 -51c50.667 -37.333 76 -78 76 -122
c0 -33.333 -13.167 -61.666 -39.5 -84.999s-62.166 -38.333 -107.499 -45c82 -24.667 123 -76.667 123 -156c0 -56 -23.833 -105 -71.5 -147s-103.5 -63 -167.5 -63c-30.667 0 -55.167 7.83301 -73.5 23.5s-27.5 36.5 -27.5 62.5c0 42 18.833 83.333 56.5 124
s76.167 61 115.5 61c21.333 0 39 -6.66699 53 -20s21 -29.666 21 -48.999c0 -13.333 -4 -29.5 -12 -48.5s-14.667 -28.5 -20 -28.5c-2 0 -3 1.33301 -3 4c0 1.33301 1.66699 4.33301 5 9c14.667 20 22 41 22 63c0 17.333 -6.33301 32 -19 44s-28.334 18 -47.001 18
c-36.667 0 -73 -19.667 -109 -59s-54 -79.333 -54 -120c0 -20.667 7.66699 -38.167 23 -52.5s34.333 -21.5 57 -21.5c49.333 0 95 24.333 137 73s63 101.667 63 159c0 64.667 -28.333 105.334 -85 122.001c-17.333 -2.66699 -36 -4 -56 -4c-21.333 0 -32 2.33301 -32 7
c0 6 10.667 9 32 9c14.667 0 34.334 -2.33301 59.001 -7c32.667 7.33301 59.667 24.666 81 51.999s32 58.666 32 93.999c0 36.667 -14.667 68.334 -44 95.001c-41.333 -31.333 -77 -69.5 -107 -114.5s-69.333 -119.5 -118 -223.5
c-24.667 -52.667 -53.334 -95.667 -86.001 -129s-74.334 -62.666 -125.001 -87.999c-65.333 -32.667 -125 -49 -179 -49c-50.667 0 -91.167 13 -121.5 39s-45.5 60.667 -45.5 104c0 38.667 14.333 78.334 43 119.001c-1.33301 5.33301 -2 11.666 -2 18.999
c0 99.333 53.333 190.166 160 272.499s224.667 123.5 354 123.5c92 0 169 -20 231 -60c58 36.667 111.667 55 161 55c41.333 0 75.333 -13.167 102 -39.5s40 -59.833 40 -100.5zM888.001 589.998c-52.667 38.667 -125.333 57.998 -218 57.998
c-114 0 -219.667 -37.667 -317 -113s-155.333 -164 -174 -266c36.667 38 80 63.667 130 77c26 45.333 59.167 82 99.5 110s79.833 42 118.5 42c23.333 0 42.5 -7.5 57.5 -22.5s22.5 -34.5 22.5 -58.5c0 -59.333 -30 -122.666 -90 -189.999c-71.333 -80 -144 -120 -218 -120
c-37.333 0 -68.333 10.667 -93 32s-40.667 51.333 -48 90c-23.333 -36 -35 -71 -35 -105c0 -41.333 14.167 -74.333 42.5 -99s66.166 -37 113.499 -37c60.667 0 115.334 18.333 164.001 55s100 98.334 154 185.001c62.667 101.333 115.167 178.5 157.5 231.5
s86.833 96.5 133.5 130.5zM598.002 416.996c0 20.667 -6.33008 37.9971 -18.9971 51.9971s-28.334 21 -47.001 21c-30.667 0 -63 -12.333 -97 -37s-64.333 -58 -91 -100c5.33301 1.33301 12.666 2 21.999 2c29.333 0 53 -6.66699 71 -20s27 -31.333 27 -54
c0 -9.33301 -1.33301 -14 -4 -14s-4 3.33301 -4 10c0.666992 21.333 -7.5 38.333 -24.5 51s-39.833 19 -68.5 19c-4 0 -12 -0.666992 -24 -2c-23.333 -41.333 -35 -76.666 -35 -105.999c0 -14 3.83301 -25.667 11.5 -35s17.167 -14 28.5 -14
c1.33301 0 2.66602 0.333008 3.99902 1h3c2 0 3 -1 3 -3c0 -3.33301 -3.33301 -5 -10 -5c-16.667 0 -30.667 7.83301 -42 23.5s-17 34.834 -17 57.501s6.33301 47 19 73c-48.667 -14.667 -91 -42.667 -127 -84v-15c0 -37.333 11 -67.166 33 -89.499s51.667 -33.5 89 -33.5
c80 0 155.667 45.667 227 137c48 61.333 72 116.333 72 165z" />
    <glyph glyph-name="C" unicode="C" horiz-adv-x="797" 
d="M936 542c0 -20.667 -14.6641 -42.6689 -43.9971 -66.002c26.667 -41.333 40 -77.666 40 -108.999c0 -8 -2.33301 -12 -7 -12c-4 0 -6 5.33301 -6 16c-0.666992 32 -12 65 -34 99c-48.667 -35.333 -113.334 -65.666 -194.001 -90.999s-152.334 -38 -215.001 -38
c-8.66699 0 -16.334 0.333008 -23.001 1c-52 -72.667 -78 -142.667 -78 -210c0 -44.667 13.833 -80.167 41.5 -106.5s65.167 -40.166 112.5 -41.499c-26.667 28 -40 64 -40 108c0 65.333 28.833 126.166 86.5 182.499s120.167 84.5 187.5 84.5c64.667 0 97 -34 97 -102
s-31.167 -130.5 -93.5 -187.5s-133.833 -88.167 -214.5 -93.5c26.667 -21.333 61.334 -32 104.001 -32c45.333 0 86.666 14.333 123.999 43c3.33301 2.66699 6 4 8 4s3 -1 3 -3c0 -8.66699 -17.167 -19.5 -51.5 -32.5s-62.166 -19.5 -83.499 -19.5c-46.667 0 -86 13 -118 39
c-36.667 0.666992 -67.667 6.66699 -93 18c-34.667 14.667 -62.834 39.167 -84.501 73.5s-32.5 71.166 -32.5 110.499c0 54 19.333 110.667 58 170c-67.333 11.333 -119.333 31.333 -156 60s-55 64.334 -55 107.001c0 51.333 26 94 78 128s117.333 51 196 51
c110 0 220.333 -36.333 331 -109c19.333 4 38.333 6 57 6c66 0 99 -16 99 -48zM928.003 541.998c0 26.667 -26 40 -78 40c-18 0 -37.333 -2.33301 -58 -7c36 -25.333 68 -56.333 96 -93c26.667 22 40 42 40 60zM881.003 476.998c-24.667 36.667 -58.334 68.667 -101.001 96
c-60 -15.333 -119.167 -43.5 -177.5 -84.5s-106.166 -87.5 -143.499 -139.5h12c62.667 0 134.167 12.5 214.5 37.5s145.5 55.167 195.5 90.5zM766.003 581.998c-99.333 57.333 -204.332 86 -314.999 86c-69.333 0 -129.833 -16.333 -181.5 -49s-77.5 -70.667 -77.5 -114
c0 -76 66 -126.667 198 -152c81.333 114.667 206.666 191 375.999 229zM848.004 268.998c0 25.333 -7.16797 45.166 -21.501 59.499s-34.166 21.5 -59.499 21.5c-55.333 0 -111.333 -30.667 -168 -92s-85 -122.333 -85 -183c0 -37.333 9.66699 -67.666 29 -90.999
c68.667 0 136.667 31.5 204 94.5s101 126.5 101 190.5z" />
    <glyph glyph-name="D" unicode="D" horiz-adv-x="847" 
d="M1254 502c0 -16.667 -2.00098 -34.166 -6.00098 -52.499s-7.66699 -27.5 -11 -27.5c-2 0 -3 1 -3 3s0.333008 4 1 6c7.33301 20 11 43.333 11 70c0 41.333 -12.333 74.333 -37 99s-57.667 37 -99 37c-79.333 0 -155.666 -37.333 -228.999 -112c28 -52 42 -107 42 -165
c0 -106.667 -41 -197.167 -123 -271.5s-182 -111.5 -300 -111.5c-36.667 0 -86.667 5 -150 15c-55.333 -10 -108 -15 -158 -15c-86 0 -129 8.66699 -129 26c0 8.66699 10.5 16.167 31.5 22.5s45.5 9.5 73.5 9.5c34 0 101.333 -11 202 -33
c68 18.667 121.333 46.834 160 84.501s97.334 119.167 176.001 244.5c48 76.667 100.333 141.667 157 195c-47.333 80 -124.333 120 -231 120c-110 0 -211 -43.333 -303 -130c-46 -43.333 -82.833 -91.333 -110.5 -144s-41.5 -101.334 -41.5 -146.001
c0 -34.667 11.5 -62.667 34.5 -84s53.5 -32 91.5 -32c63.333 0 127.666 34.5 192.999 103.5s98 136.833 98 203.5c0 21.333 -6.33301 38.833 -19 52.5s-28.667 20.5 -48 20.5c-46 0 -94.833 -29 -146.5 -87s-77.5 -113 -77.5 -165c0 -34.667 15.333 -51.667 46 -51
c4 0 6 -1 6 -3c0 -2.66699 -3 -4 -9 -4c-18.667 0 -33.667 7.66699 -45 23s-17 35.333 -17 60c0 53.333 26.833 105.833 80.5 157.5s107.834 77.5 162.501 77.5c22.667 0 41 -7.66699 55 -23s21 -35.333 21 -60c0 -68.667 -33.667 -138.167 -101 -208.5
s-133.666 -105.5 -198.999 -105.5c-46.667 0 -85 15 -115 45s-45 68.333 -45 115c0 56 18.667 112.667 56 170s86.666 105 147.999 143c86 54 182 81 288 81c105.333 0 185 -39.667 239 -119c79.333 73.333 160 110 242 110c41.333 0 74.666 -13.333 99.999 -40
s38 -61.334 38 -104.001zM895.999 397.001c0 38.667 -8.66602 77.333 -25.999 116c-44 -50 -83.333 -113 -118 -189c-46 -100 -93.333 -172.333 -142 -217c-50.667 -44.667 -125.334 -81 -224.001 -109c41.333 -8.66699 85.333 -13 132 -13
c124.667 0 225.667 60.333 303 181c50 78 75 155 75 231zM333 -5c-90 12.667 -157 19 -201 19c-39.333 0 -59 -3.66699 -59 -11c0 -11.333 42.667 -17 128 -17c49.333 0 93.333 3 132 9z" />
    <glyph glyph-name="E" unicode="E" horiz-adv-x="872" 
d="M1067 547c0 -22 -20.001 -33 -60.001 -33c-26 0 -48.333 1.83301 -67 5.5s-71 16.5 -157 38.5c-55.333 -31.333 -83 -71 -83 -119c0 -22.667 7.66699 -39 23 -49c18 2.66699 35.667 4 53 4c34 0 51 -4 51 -12c0 -5.33301 -9.33301 -8 -28 -8
c-20.667 0 -45 3.33301 -73 10c-29.333 -4 -63.333 -14.333 -102 -31c-6.66699 -42 -29 -80 -67 -114s-81.333 -54.667 -130 -62c-6.66699 -22.667 -10 -43 -10 -61c0 -62 33.333 -101.333 100 -118c-12.667 19.333 -19 42 -19 68c0 64.667 32.667 124 98 178
s137.333 81 216 81c34.667 0 62.834 -8.83301 84.501 -26.5s32.5 -41.167 32.5 -70.5c0 -63.333 -34.833 -120.5 -104.5 -171.5s-148.167 -76.5 -235.5 -76.5c-17.333 0 -33.666 1 -48.999 3c29.333 -42 75.666 -63 138.999 -63c36 0 66.667 5.66699 92 17l6 1
c2 -0.666992 3 -2 3 -4c0 -4.66699 -11.833 -9.5 -35.5 -14.5s-45.5 -7.5 -65.5 -7.5c-68 0 -120 24.667 -156 74c-106 24 -159 74.333 -159 151c0 11.333 1.33301 23.333 4 36c-64 1.33301 -115.833 19.333 -155.5 54s-59.5 79.334 -59.5 134.001
c0 72.667 31.333 133 94 181s141 72 235 72c68 0 157.667 -13 269 -39c44.667 21.333 96.667 32 156 32c44.667 0 82.5 -5.83301 113.5 -17.5s46.5 -25.834 46.5 -42.501zM1057 547c0 12.667 -13.5 23.833 -40.5 33.5s-57.833 14.5 -92.5 14.5
c-46 0 -89.333 -10.333 -130 -31c90 -27.333 162.333 -41 217 -41c30.667 0 46 8 46 24zM919.999 231.999c0 23.333 -9.33203 42.668 -27.999 58.001s-42.334 23 -71.001 23c-70 0 -138.333 -29 -205 -87s-100 -117.333 -100 -178c0 -18 5.66699 -36 17 -54
c18.667 -3.33301 36 -5 52 -5c76.667 0 151.667 26.667 225 80s110 107.666 110 162.999zM740 570.001c-82 16.667 -150.668 25 -206.001 25c-101.333 0 -187.166 -24.5 -257.499 -73.5s-105.5 -109.167 -105.5 -180.5c0 -45.333 18.5 -82.833 55.5 -112.5
s84.833 -45.5 143.5 -47.5c13.333 42.667 42.333 81.334 87 116.001s97.667 59.334 159 74.001c0.666992 4 1 8.33301 1 13c0 34.667 -12.5 64.667 -37.5 90s-57.5 41.333 -97.5 48c-3.33301 1.33301 -5 2.66602 -5 3.99902c0 3.33301 2.33301 5 7 5
c9.33301 0 23 -3.66699 41 -11s32.333 -15 43 -23c38.667 -29.333 58 -70.333 58 -123c26.667 6 56 11 88 15c-36 15.333 -54 39.333 -54 72c0 43.333 26.667 79.666 80 108.999zM612.999 348.001c-95.333 -42.667 -156.333 -96.667 -183 -162c45.333 8.66699 85 28 119 58
s55.333 64.667 64 104z" />
    <glyph glyph-name="F" unicode="F" horiz-adv-x="730" 
d="M1320 570c0 -16 -15.999 -29.668 -47.999 -41.001s-70.667 -17 -116 -17c-58.667 0 -130.334 9 -215.001 27c-72 -33.333 -139.667 -106.333 -203 -219c18.667 -3.33301 35 -5.66602 49 -6.99902c18 41.333 44 62 78 62c23.333 0 35 -9 35 -27
c0 -30.667 -31.333 -46.334 -94 -47.001c-18 -40 -33 -64.667 -45 -74c-18 -14 -33 -21 -45 -21c-3.33301 0 -5.33301 1 -6 3c0 2 2 3.33301 6 4c22.667 6.66699 44.667 36.667 66 90l-18 3l-31 5c-56 -100 -92.333 -160.333 -109 -181c-36 -44.667 -83.5 -81 -142.5 -109
s-118.5 -42 -178.5 -42c-63.333 0 -114.333 16.167 -153 48.5s-58 75.5 -58 129.5c0 56.667 23 110.167 69 160.5s103 83.833 171 100.5c69.333 100.667 159 163 269 187c-26 36.667 -64.333 55 -115 55c-84 0 -159.667 -40.667 -227 -122
c-5.33301 -5.33301 -8.33301 -8 -9 -8c-2 0 -3.33301 1 -4 3c0 6 13.667 21.667 41 47c63.333 58.667 129 88 197 88c58.667 0 102 -20.333 130 -61c33.333 8.66699 73.333 13 120 13c29.333 0 56 -2.16699 80 -6.5s82.667 -17.833 176 -40.5c72.667 28 141 42 205 42
c37.333 0 67.5 -4.16699 90.5 -12.5s34.5 -19.166 34.5 -32.499zM1311 568.999c0 10 -10.667 18.667 -32 26s-47 11 -77 11c-70.667 0 -135.667 -12.333 -195 -37c4 -1.33301 25.667 -6.33301 65 -15c57.333 -12.667 107.333 -19 150 -19c24 0 44.833 3.33301 62.5 10
s26.5 14.667 26.5 24zM891.001 347.999c0 13.333 -8 20 -24 20c-14.667 0 -27 -6.33301 -37 -19c-4 -5.33301 -11 -18.333 -21 -39c54.667 0 82 12.667 82 38zM623.001 525.999c0 22 -5.33398 43.999 -16.001 65.999c-48.667 -5.33301 -96.167 -23.166 -142.5 -53.499
s-86.5 -69.833 -120.5 -118.5c20.667 4.66699 40.334 7 59.001 7c74.667 0 123.667 -32 147 -96c48.667 65.333 73 130.333 73 195zM930 541.998c-40 10.667 -100 25 -180 43c-35.333 6.66699 -69 10 -101 10c-10.667 0 -20 -0.333008 -28 -1c13.333 -26.667 20 -57 20 -91
c0 -70.667 -28.333 -138.334 -85 -203.001v-19c0 -56 -24.833 -108.5 -74.5 -157.5s-102.834 -73.5 -159.501 -73.5c-30.667 0 -56.5 10.833 -77.5 32.5s-31.5 48.5 -31.5 80.5c0 50.667 25.667 95 77 133c0 36 11 71.667 33 107c-59.333 -21.333 -108.5 -58 -147.5 -110
s-58.5 -106.667 -58.5 -164c0 -39.333 16.5 -72.666 49.5 -99.999s72.833 -41 119.5 -41c90 0 169.667 37.333 239 112c34 36.667 75.667 92.667 125 168l34 51c-5.33301 0.666992 -10.666 1 -15.999 1c-15.333 0 -30.5 -4.16699 -45.5 -12.5s-24.833 -18.166 -29.5 -29.499
c-1.33301 -4.66699 -3 -7 -5 -7c-2.66699 0 -4 1.33301 -4 4c0 12.667 9.16699 24.834 27.5 36.501s37.5 17.5 57.5 17.5c7.33301 0 14.333 -0.666992 21 -2c34 49.333 73 93.666 117 132.999s85 66.666 123 81.999zM543 322.998c-18 63.333 -63.999 94.999 -137.999 94.999
c-20.667 0 -44 -3.66699 -70 -11c-23.333 -39.333 -35.333 -74.666 -36 -105.999c36.667 22 72 33 106 33c17.333 0 34 -4.66699 50 -14s24 -19 24 -29c0 -2 -1 -3 -3 -3s-5 3.33301 -9 10c-11.333 18.667 -29.666 28 -54.999 28c-32.667 0 -69.334 -16 -110.001 -48
c9.33301 -40.667 33.666 -61 72.999 -61c56 0 112 35.333 168 106zM547.001 290.997c-54 -56 -109.665 -84.002 -166.998 -84.002c-45.333 0 -74 21.333 -86 64c-40 -38 -60 -78.667 -60 -122c0 -27.333 8.33301 -49.166 25 -65.499s39 -24.5 67 -24.5
c27.333 0 56.166 8.33301 86.499 25s57.166 38.334 80.499 65.001c33.333 38.667 51.333 86 54 142z" />
    <glyph glyph-name="G" unicode="G" horiz-adv-x="734" 
d="M911 452c0 -7.33301 -12.666 -26.332 -37.999 -56.999c-12.667 -14.667 -25.334 -28.334 -38.001 -41.001s-25.334 -24.667 -38.001 -36c-23.333 -37.333 -40.333 -68 -51 -92c-9.33301 -21.333 -22.666 -59.666 -39.999 -114.999c-20 -64 -44.667 -114.667 -74 -152
c-14.667 -18.667 -32 -36.334 -52 -53.001s-43.333 -32.334 -70 -47.001c-75.333 -42 -152.666 -63 -231.999 -63c-68 0 -122.333 18.333 -163 55c-41.333 37.333 -62 85 -62 143c0 50.667 15.667 98.667 47 144s74 82 128 110s104.333 42 151 42
c4.66699 0 8 -0.333008 10 -1c0 9.33301 2.33301 23.666 7 42.999c-3.33301 -0.666992 -6.66602 -1 -9.99902 -1h-11c-52.667 0 -94.5 11.5 -125.5 34.5s-46.5 53.833 -46.5 92.5c0 66.667 37.667 125.667 113 177s161.666 77 258.999 77c78 0 141.333 -19.333 190 -58
c34 12.667 59.333 19 76 19c31.333 0 47 -13 47 -39c0 -24 -18.333 -54 -55 -90c1.33301 -9.33301 2.33301 -17.666 3 -24.999s1 -14 1 -20c0 -36 -10.333 -73.667 -31 -113c-6 -12 -10.333 -18 -13 -18c-2 0 -3 1 -3 3c0 0.666992 0.666992 2.33398 2 5.00098
c24 38.667 36 80.334 36 125.001c0 6.66699 -0.166992 13.167 -0.5 19.5s-0.833008 12.166 -1.5 17.499c-56 -48.667 -116.667 -90.667 -182 -126c-34 -17.333 -66.667 -32.166 -98 -44.499s-62.333 -21.833 -93 -28.5c-10 -16.667 -18 -34.334 -24 -53.001
c83.333 -15.333 126 -65 128 -149c62.667 14.667 142.667 78.667 240 192c21.333 34 43 63.333 65 88c22 25.333 37 38 45 38c1.33301 0 2.66602 -1 3.99902 -3zM879.001 633.001c0 21.333 -12.333 31.999 -37 31.999c-20 0 -42.667 -6.33301 -68 -19c28 -24 47 -55 57 -93
c32 30.667 48 57.334 48 80.001zM824.001 547c-9.33301 39.333 -28.667 71.332 -58 95.999c-29.333 -14.667 -58.333 -32.5 -87 -53.5s-57.667 -45.5 -87 -73.5c-58 -56 -102.667 -112 -134 -168c56.667 12.667 118.667 37.334 186 74.001c66 35.333 126 77 180 125z
M756 650.999c-43.333 34 -103 51 -179 51c-92 0 -175.667 -25.333 -251 -76c-76 -51.333 -114 -107 -114 -167c0 -38 14.833 -67.333 44.5 -88s71.5 -31 125.5 -31h17c38 124 157 227.667 357 311zM548 133.999c0 38.667 -10.5 70.501 -31.5 95.501s-50.5 41.167 -88.5 48.5
c-4.66699 -16.667 -7 -33.334 -7 -50.001c0 -28.667 9.16699 -52 27.5 -70s41.833 -27 70.5 -27c7.33301 0 17 1 29 3zM780 298c-89.333 -97.333 -163.668 -154.333 -223.001 -171c-4 -66 -31.333 -124.333 -82 -175c-50 -50.667 -106 -76 -168 -76c-18 0 -34.667 3 -50 9
s-28.5 14.167 -39.5 24.5s-19.5 22.833 -25.5 37.5s-9 30.667 -9 48c0 43.333 17.333 82.333 52 117c35.333 35.333 73.666 53 114.999 53c12 0 24.333 -3 37 -9s19 -12 19 -18c-1.33301 -2 -2.33301 -3 -3 -3c-1.33301 0 -3 1 -5 3c-14 12 -29.667 18 -47 18
c-33.333 0 -66.666 -18.667 -99.999 -56c-32.667 -36.667 -49 -74.667 -49 -114c0 -32 9.33301 -57 28 -75s45 -27 79 -27c52.667 0 103 22 151 66c52.667 48 82 106.333 88 175c-12 -2 -21 -3 -27 -3c-40 0 -72.167 14.333 -96.5 43s-36.5 67 -36.5 115
c-82 -4.66699 -153.667 -39 -215 -103c-61.333 -63.333 -92 -134 -92 -212c0 -48 17.333 -86.333 52 -115c35.333 -29.333 81.333 -44 138 -44c76.667 0 146.334 27.333 209.001 82c63.333 54.667 136.333 151 219 289c12.667 21.333 25.667 42 39 62s27.333 39.667 42 59z
" />
    <glyph glyph-name="H" unicode="H" horiz-adv-x="935" 
d="M1440 525c0 -52 -31.666 -95.665 -94.999 -130.998c-27.333 -15.333 -46 -23 -56 -23c-2.66699 0 -4 1.33301 -4 4c0 2 4.66699 4.66699 14 8c36.667 14 66.667 34.333 90 61s35 54 35 82c0 26 -9 47.167 -27 63.5s-41.333 24.5 -70 24.5
c-118 0 -221.333 -88.333 -310 -265c-60 -118.667 -110.667 -202.167 -152 -250.5s-93.333 -83.833 -156 -106.5c31.333 -4 53.666 -6 66.999 -6c60 0 110.333 19.333 151 58c34 32.667 66.667 71.667 98 117c3.33301 4.66699 6 7 8 7c1.33301 -0.666992 2 -1.66699 2 -3
c0 -3.33301 -11 -19 -33 -47s-39.667 -49 -53 -63c-27.333 -29.333 -53.333 -49.333 -78 -60s-55.667 -16 -93 -16c-21.333 0 -50.333 2.66699 -87 8l-4 -1l-19 -5c-10 -2.66699 -23.333 -4 -40 -4s-25 3.66699 -25 11c0 8 13.333 12 40 12c16 0 34.667 -2 56 -6
c41.333 18.667 73.333 42.667 96 72c20.667 26 57.334 88.333 110.001 187l8 15h-189c-35.333 -62.667 -63 -106 -83 -130s-49.333 -49.333 -88 -76c-82 -56.667 -161.333 -85 -238 -85c-59.333 0 -106.5 17 -141.5 51s-52.5 80.333 -52.5 139c0 104 54.333 196 163 276
c13.333 67.333 50.833 125.833 112.5 175.5s127.834 74.5 198.501 74.5c31.333 0 56 -8 74 -24s27 -38 27 -66c0 -20.667 -7.16699 -45.167 -21.5 -73.5s-21.5 -48.166 -21.5 -59.499c0 -10 3.83301 -18.5 11.5 -25.5s17.167 -10.5 28.5 -10.5c19.333 0 40 9 62 27
c17.333 15.333 32 33 44 53c1.33301 2 2.66602 3 3.99902 3c2.66699 0 4 -1.33301 4 -4c0 -7.33301 -9.66699 -21.333 -29 -42c-28.667 -30.667 -56.334 -46 -83.001 -46c-18.667 0 -34.167 6.66699 -46.5 20s-18.5 29.666 -18.5 48.999c0 16 7 38 21 66
c16.667 33.333 25 56.666 25 69.999c0 16.667 -7.83301 30 -23.5 40s-36.167 15 -61.5 15c-63.333 0 -125 -23.833 -185 -71.5s-97 -102.167 -111 -163.5c63.333 42 125 63 185 63c47.333 0 84 -13 110 -39s39 -62.667 39 -110c0 -27.333 -5.66699 -56 -17 -86h58
c57.333 92.667 105.333 159.667 144 201c44 46.667 88.333 79.667 133 99c15.333 6.66699 24 10 26 10s3 -1.33301 3 -4c0 -2 -3.33301 -4.33301 -10 -7c-40 -15.333 -76 -43.333 -108 -84s-75 -112.334 -129 -215.001h190c61.333 109.333 127.5 194 198.5 254
s140.5 90 208.5 90c34 0 61.5 -9 82.5 -27s31.5 -41.333 31.5 -70zM613.001 383.002c0 36.667 -11.8291 66.167 -35.4961 88.5s-54.5 33.5 -92.5 33.5c-66.667 0 -131.334 -26.667 -194.001 -80c-0.666992 -5.33301 -1 -11.333 -1 -18c0 -24 7.66699 -47 23 -69
c18 19.333 38.667 36.833 62 52.5s40.333 23.5 51 23.5c2 0 3.33301 -1 4 -3c0 -2 -5.33301 -5.33301 -16 -10c-36 -15.333 -68 -38.666 -96 -69.999c22 -24.667 50 -37 84 -37c29.333 0 59.166 8.33301 89.499 25s54.5 37.667 72.5 63c0.666992 2 1.66699 3 3 3
c2.66699 0 4 -1.33301 4 -4c0 -6.66699 -10.333 -19.334 -31 -38.001c-42.667 -38 -89 -57 -139 -57c-34.667 0 -64.334 12.333 -89.001 37c-34 -44 -51 -85.667 -51 -125c0 -31.333 9 -56.333 27 -75s41.667 -28 71 -28c79.333 0 153.333 58 222 174
c-24.667 -0.666992 -47.334 -1 -68.001 -1l4 10h31c7.33301 -0.666992 20 -1 38 -1c18 36.667 27 72 27 106zM664.005 268.002l-56.998 -0.00195312c-26.667 -52.667 -63.334 -96.167 -110.001 -130.5s-92.667 -51.5 -138 -51.5c-31.333 0 -57.166 10.167 -77.499 30.5
s-30.5 46.5 -30.5 78.5c0 44 18.333 89.333 55 136c-16.667 22.667 -25 47.334 -25 74.001v12c-40.667 -37.333 -72.834 -79.333 -96.501 -126s-35.5 -92 -35.5 -136c0 -51.333 14.667 -92.166 44 -122.499s69 -45.5 119 -45.5c72 0 137 25.667 195 77
c25.333 22 47.666 46 66.999 72c12 16 40 57 84 123z" />
    <glyph glyph-name="I" unicode="I" horiz-adv-x="719" 
d="M1098 646c0 -5.33301 -13.5 -14 -40.5 -26s-57.833 -22.667 -92.5 -32c-44.667 -32.667 -85.834 -73.5 -123.501 -122.5s-79.5 -116.5 -125.5 -202.5c4 -0.666992 8.66699 -1 14 -1c39.333 0 75.833 12.167 109.5 36.5s54.167 53.833 61.5 88.5c1.33301 5.33301 3 8 5 8
s3 -1.33301 3 -4c0 -19.333 -10.667 -42 -32 -68c-16.667 -20 -38.667 -36.5 -66 -49.5s-54.333 -19.5 -81 -19.5c-4.66699 0 -10.667 0.333008 -18 1c-30 -54.667 -48.833 -88 -56.5 -100s-19.5 -26.667 -35.5 -44c-37.333 -40.667 -84 -73 -140 -97s-111.667 -36 -167 -36
c-63.333 0 -114.166 16.167 -152.499 48.5s-57.5 75.5 -57.5 129.5c0 68.667 32.333 130.667 97 186s136.667 83 216 83c45.333 0 81.666 -12.667 108.999 -38s41 -59.333 41 -102c0 -58.667 -24.333 -112.667 -73 -162s-102 -74 -160 -74
c-30.667 0 -56.5 10.833 -77.5 32.5s-31.5 48.5 -31.5 80.5c0 44 19.667 83.333 59 118s84 52 134 52c16.667 0 32.834 -4.33301 48.501 -13s23.5 -17.667 23.5 -27c0 -2 -1.33301 -3 -4 -3c-0.666992 0 -2 1 -4 3c-14 21.333 -33.667 32 -59 32
c-42.667 0 -83 -18.667 -121 -56s-57 -77 -57 -119c0 -28 8.33301 -50.167 25 -66.5s39.334 -24.5 68.001 -24.5c53.333 0 103.333 24.333 150 73s70 100.334 70 155.001c0 38 -12.833 69.167 -38.5 93.5s-58.5 36.5 -98.5 36.5c-75.333 0 -142.666 -29.333 -201.999 -88
s-89 -125.334 -89 -200.001c0 -40.667 16.333 -74.334 49 -101.001s74 -40 124 -40c98.667 0 187 49 265 147c16.667 20.667 48 65.334 94 134.001c-56 24 -84 63 -84 117c0 64.667 36.667 113 110 145c35.333 15.333 94 30 176 44c30 5.33301 55 10 75 14l24 5
c17.333 12.667 40.166 25.5 68.499 38.5s48.166 19.5 59.499 19.5c5.33301 0 8 -1.66699 8 -5zM951 584l-34 -7.99805c-12 -2.66699 -29.667 -7 -53 -13c-79.333 -18.667 -142.5 -46.334 -189.5 -83.001s-70.5 -76.667 -70.5 -120c0 -38.667 20.333 -67.334 61 -86.001
c86 136.667 181.333 240 286 310z" />
    <glyph glyph-name="J" unicode="J" horiz-adv-x="716" 
d="M1092 678c0 -5.33301 -13.1699 -13.999 -39.5029 -25.999s-56.166 -22.667 -89.499 -32c-58.667 -50 -106.5 -101.5 -143.5 -154.5s-78.833 -130.167 -125.5 -231.5c47.333 -1.33301 88.833 11.334 124.5 38.001s57.167 61 64.5 103c0.666992 5.33301 2.66699 8 6 8
c2.66699 0 4 -1.66699 4 -5c0 -19.333 -7 -40 -21 -62c-37.333 -59.333 -98.333 -89 -183 -89l-7 -13l-42 -82c12 -26.667 18 -53.667 18 -81c0 -70.667 -29.333 -131.334 -88 -182.001s-129 -76 -211 -76c-42.667 0 -81.667 9 -117 27c-22 -5.33301 -43.333 -8 -64 -8
c-55.333 0 -99.666 14.333 -132.999 43s-50 67 -50 115c0 78 41.667 144.667 125 200c39.333 26 84.333 47 135 63s98 24 142 24c76.667 0 144.334 -25 203.001 -75l30 55c-33.333 10.667 -59.5 28.667 -78.5 54s-28.5 54.666 -28.5 87.999c0 58 24.667 107 74 147
c28.667 23.333 57.5 39.5 86.5 48.5s82.167 18.5 159.5 28.5c46 6 86 13.667 120 23c60 38 100.333 57 121 57c5.33301 0 8 -1.66699 8 -5zM947.997 616.001c-23.333 -6 -53 -13.001 -89 -21.001c-60 -13.333 -106 -26.666 -138 -39.999s-61.333 -31.333 -88 -54
c-56 -47.333 -84 -97.666 -84 -150.999c0 -48.667 28 -84 84 -106c60.667 106 112.667 184.667 156 236s96.333 96.666 159 135.999zM649.997 53c0 22 -5.00098 45.665 -15.001 70.998c-82 -153.333 -209 -253.666 -381 -300.999c33.333 -14.667 69.333 -22 108 -22
c78.667 0 146.334 24.833 203.001 74.5s85 108.834 85 177.501zM595.996 173.998c-57.333 48.667 -122.001 73.001 -194.001 73.001c-94 0 -180.333 -31 -259 -93s-118 -129.667 -118 -203c0 -86.667 54.333 -130 163 -130c12.667 0 27 1.33301 43 4
c-60 36 -90 82.333 -90 139c0 48 22.167 90.333 66.5 127s95.5 55 153.5 55c20 0 40.5 -3.33301 61.5 -10s31.5 -13.334 31.5 -20.001c0 -2.66699 -1.33301 -4 -4 -4c-1.33301 0 -2.66602 0.666992 -3.99902 2c-22 15.333 -49.333 23 -82 23c-49.333 0 -94.5 -20 -135.5 -60
s-61.5 -84.333 -61.5 -133c0 -47.333 25.333 -86 76 -116c125.333 28.667 243 144 353 346z" />
    <glyph glyph-name="K" unicode="K" horiz-adv-x="952" 
d="M1449 541c0 -57.333 -37.3291 -104.003 -111.996 -140.003c-20.667 -10 -34.334 -15 -41.001 -15c-2.66699 0 -4 1 -4 3c0 2.66699 1.33301 4.33398 4 5.00098c41.333 13.333 74.666 33.333 99.999 60s38 55.334 38 86.001c0 26 -9.33301 47.167 -28 63.5
s-42.667 24.5 -72 24.5c-38.667 0 -75.834 -11 -111.501 -33s-79.167 -60.667 -130.5 -116c-88.667 -96 -173 -148 -253 -156c30 -16.667 45 -46.667 45 -90c0 -20 -8 -60.667 -24 -122c-7.33301 -28 -11 -48.333 -11 -61c0 -23.333 7.16699 -42.5 21.5 -57.5
s32.833 -22.5 55.5 -22.5c20.667 0 39 6.33301 55 19c4 3.33301 6.66699 5 8 5c2 0 3 -1 3 -3c0 -6 -8 -12.5 -24 -19.5s-30.667 -10.5 -44 -10.5c-32 0 -59.5 13.5 -82.5 40.5s-34.5 59.167 -34.5 96.5c0 24 9.33301 63 28 117c9.33301 26.667 14 47.667 14 63
c0 18 -6.33301 33 -19 45c-12 -1.33301 -22 -2 -30 -2c-24 0 -36 3 -36 9c0 4.66699 6.66699 7 20 7s28 -3 44 -9c33.333 6 63.5 18.167 90.5 36.5s66.167 53.5 117.5 105.5c60 60.667 113.167 103.834 159.5 129.501s93.166 38.5 140.499 38.5
c32.667 0 59.667 -9.16699 81 -27.5s32 -41.5 32 -69.5zM976.004 583.997c0 -2 -3.33301 -4.33203 -10 -6.99902c-42 -16.667 -78.667 -45.5 -110 -86.5s-77.666 -119.5 -138.999 -235.5c-28 -53.333 -56 -95.333 -84 -126s-64 -59 -108 -85
c-74.667 -44.667 -144.667 -67 -210 -67c-59.333 0 -106.5 17 -141.5 51s-52.5 80.333 -52.5 139c0 105.333 54.333 197.333 163 276c12 66.667 49.167 125 111.5 175s128.833 75 199.5 75c31.333 0 56 -8 74 -24s27 -38 27 -66c0 -20.667 -7.16699 -45.167 -21.5 -73.5
s-21.5 -47.833 -21.5 -58.5c0 -10 3.83301 -18.5 11.5 -25.5s17.167 -10.5 28.5 -10.5c16.667 0 35.167 7.33301 55.5 22s36.833 33 49.5 55c2 3.33301 3.66699 5 5 5c2.66699 0 4 -1.33301 4 -4c0 -6.66699 -9.66699 -20.334 -29 -41.001
c-28.667 -30.667 -56.334 -46 -83.001 -46c-18.667 0 -34.167 6.5 -46.5 19.5s-18.5 29.167 -18.5 48.5c0 16.667 7 39 21 67c16.667 33.333 25 56.333 25 69c0 16.667 -7.83301 30 -23.5 40s-36.167 15 -61.5 15c-62.667 0 -124 -23.667 -184 -71
s-97.333 -101.666 -112 -162.999c62.667 41.333 125 62 187 62c45.333 0 81.166 -13.167 107.499 -39.5s39.5 -62.5 39.5 -108.5c0 -66.667 -29 -129.834 -87 -189.501s-119 -89.5 -183 -89.5c-31.333 0 -57.166 10.167 -77.499 30.5s-30.5 46.5 -30.5 78.5
c0 44.667 18.333 90 55 136c-16.667 22.667 -25 47.667 -25 75v11c-40 -36 -72 -77.833 -96 -125.5s-36 -93.5 -36 -137.5c0 -51.333 14.667 -92 44 -122s69 -45 119 -45c70.667 0 135.667 26 195 78c29.333 26 53.5 51.667 72.5 77s55.5 81.333 109.5 168
c68 108.667 133 185.667 195 231c12.667 9.33301 29.5 19.5 50.5 30.5s33.833 16.5 38.5 16.5c2 0 3 -1.33301 3 -4zM613.004 384.998c0 36 -12.167 65.001 -36.5 87.001s-56.166 33 -95.499 33c-62.667 0 -126 -26.333 -190 -79c-0.666992 -6 -1 -12.333 -1 -19
c0 -26 7.66699 -48.667 23 -68c18.667 19.333 39.5 36.666 62.5 51.999s39.833 23 50.5 23c2 0 3.33301 -1 4 -3c0 -2 -5.33301 -5.33301 -16 -10c-37.333 -16 -69.333 -39.333 -96 -70c22 -24.667 49.667 -37 83 -37c30 0 60 8.33301 90 25s54.333 38.334 73 65.001
c1.33301 1.33301 2.33301 2 3 2c2.66699 0 4 -1.33301 4 -4c0 -6.66699 -10.333 -19.334 -31 -38.001c-42 -38.667 -88.333 -58 -139 -58c-34.667 0 -64.334 12.667 -89.001 38c-34 -42.667 -51 -85 -51 -127c0 -30 9 -54.5 27 -73.5s41.333 -28.5 70 -28.5
c58 0 115 31.833 171 95.5s84 128.5 84 194.5z" />
    <glyph glyph-name="L" unicode="L" horiz-adv-x="727" 
d="M1004 617c0 -23.333 -28.332 -67.8291 -84.999 -133.496s-112 -118.167 -166 -157.5c-40.667 -88.667 -82.667 -153.5 -126 -194.5s-101.666 -71.167 -174.999 -90.5c129.333 -34.667 206.833 -54.834 232.5 -60.501s50.167 -8.5 73.5 -8.5c34 0 64.667 12.333 92 37
c2.66699 1.33301 4.33398 2 5.00098 2c2 -0.666992 3 -1.33398 3 -2.00098c0 -5.33301 -8.66699 -14 -26 -26c-32 -22 -78.333 -33 -139 -33c-44.667 0 -87.667 4.33301 -129 13s-104.333 26.334 -189 53.001c-54 -10.667 -110 -16 -168 -16c-102 0 -153 15.667 -153 47
c0 29.333 39 44 117 44c60.667 0 151 -15.667 271 -47c36 14 67.833 34.667 95.5 62s62.834 73 105.501 137c-97.333 -84.667 -188 -127 -272 -127c-57.333 0 -103 17 -137 51s-51 79.667 -51 137c0 88.667 41.667 172.5 125 251.5s171.666 118.5 264.999 118.5
c43.333 0 77.666 -11.167 102.999 -33.5s38 -52.5 38 -90.5c0 -67.333 -31.333 -136.333 -94 -207s-124 -106 -184 -106c-27.333 0 -49.5 9.66699 -66.5 29s-25.5 44.666 -25.5 75.999c0 54.667 24 106.667 72 156s98.333 74 151 74c20 0 36.167 -5.83301 48.5 -17.5
s18.5 -26.834 18.5 -45.501c0 -24.667 -3.33301 -37 -10 -37c-2.66699 0 -4 1 -4 3c0 0.666992 0.666992 2.66699 2 6c2.66699 7.33301 4 15.666 4 24.999c0 16.667 -5.16699 30.167 -15.5 40.5s-23.833 15.5 -40.5 15.5c-44.667 0 -90.334 -27.333 -137.001 -82
s-70 -107.667 -70 -159c0 -22.667 6.83301 -40.834 20.5 -54.501s31.834 -20.5 54.501 -20.5c55.333 0 113.666 34.833 174.999 104.5s92 136.167 92 199.5c0 33.333 -11.5 60.833 -34.5 82.5s-52.833 32.5 -89.5 32.5c-85.333 0 -167.5 -43.167 -246.5 -129.5
s-118.5 -176.166 -118.5 -269.499c0 -44 14 -78.5 42 -103.5s66.667 -37.5 116 -37.5c42.667 0 84.834 10.5 126.501 31.5s93.167 57.167 154.5 108.5c51.333 86 88.166 145.167 110.499 177.5s49.166 64.833 80.499 97.5c60 63.333 106 95 138 95c13.333 0 20 -6 20 -18z
M996.001 617.004c0 7.33301 -4 11.001 -12 11.001c-24 0 -57 -24.667 -99 -74c-37.333 -44 -79 -115 -125 -213c55.333 45.333 108.5 97.666 159.5 156.999s76.5 99 76.5 119zM359.001 21.0049c-114 36 -191.667 54 -233 54c-42.667 0 -64 -9.33301 -64 -28
c0 -25.333 50 -38 150 -38c54 0 103 4 147 12z" />
    <glyph glyph-name="M" unicode="M" horiz-adv-x="1051" 
d="M1343 620c0 -1.33301 -4.33105 -4.33008 -12.998 -8.99707c-38.667 -20.667 -72.334 -49.834 -101.001 -87.501s-61.667 -96.167 -99 -175.5c-54 -114.667 -102.167 -196.834 -144.5 -246.501s-95.166 -85.834 -158.499 -108.501c29.333 -4 51.666 -6 66.999 -6
c48.667 0 90.167 12.167 124.5 36.5s75.5 70.5 123.5 138.5c3.33301 4.66699 6 7 8 7c1.33301 -0.666992 2 -1.66699 2 -3c0 -4 -18.667 -29 -56 -75c-34.667 -42.667 -66.167 -71.834 -94.5 -87.501s-63.5 -23.5 -105.5 -23.5c-32.667 0 -61 3 -85 9
c-20.667 -7.33301 -43 -11 -67 -11c-17.333 0 -26 3.33301 -26 10c0 8 12 12 36 12c8 0 25.667 -1.66699 53 -5h6c34.667 12.667 64 32.334 88 59.001s52.667 72 86 136c68 129.333 121.667 220.5 161 273.5s86 97.167 140 132.5c27.333 18 44.666 27 51.999 27
c2 0 3 -1 3 -3zM1577 489.003c0 -37.333 -4.33691 -56 -13.0039 -56c-2 0 -3 1 -3 3l1 4c4.66699 10.667 7 26 7 46c0 43.333 -17.167 80 -51.5 110s-76.5 45 -126.5 45c-80 0 -162.333 -39.333 -247 -118c-32.667 -30.667 -60.667 -60 -84 -88
c-22 -25.333 -68 -84.666 -138 -177.999c-100 -132 -181.667 -214.333 -245 -247c-28.667 -14.667 -47 -22 -55 -22c-2 0 -3 1 -3 3c0 0.666992 3.33301 3.33398 10 8.00098c32.667 24.667 58 56 76 94s50 125.667 96 263c40 120 84 204 132 252c2 2 3 3.66699 3 5l-1 1
c-4.66699 0 -14 -7.33301 -28 -22c-49.333 -51.333 -106.333 -138 -171 -260c-40.667 -77.333 -76.167 -135.666 -106.5 -174.999s-66.5 -74 -108.5 -104c-70.667 -50.667 -141.667 -76 -213 -76c-56 0 -101.167 17.5 -135.5 52.5s-51.5 80.833 -51.5 137.5
c0 104 54.333 196 163 276c13.333 67.333 50.833 125.833 112.5 175.5s127.834 74.5 198.501 74.5c31.333 0 56 -8 74 -24s27 -38 27 -66c0 -20.667 -7.16699 -45.167 -21.5 -73.5s-21.5 -47.833 -21.5 -58.5c0 -10 3.83301 -18.5 11.5 -25.5s17.167 -10.5 28.5 -10.5
c30.667 0 65 27.333 103 82c0.666992 1.33301 1.66699 2 3 2c2.66699 0 4 -1.33301 4 -4c0 -7.33301 -9.33301 -21.333 -28 -42c-28 -31.333 -55 -47 -81 -47c-18 0 -33.167 6.5 -45.5 19.5s-18.5 29.167 -18.5 48.5c0 16.667 7 39 21 67c16.667 33.333 25 56.333 25 69
c0 16.667 -7.83301 30 -23.5 40s-36.167 15 -61.5 15c-63.333 0 -125.166 -23.833 -185.499 -71.5s-97.166 -101.834 -110.499 -162.501c64 41.333 125.667 62 185 62c46.667 0 83.167 -13 109.5 -39s39.5 -62.333 39.5 -109c0 -66.667 -29 -129.834 -87 -189.501
s-119 -89.5 -183 -89.5c-31.333 0 -57.166 10.167 -77.499 30.5s-30.5 46.166 -30.5 77.499c0 44 18.333 89.667 55 137c-16.667 22.667 -25 47.667 -25 75v11c-40.667 -36.667 -72.834 -78.5 -96.501 -125.5s-35.5 -92.833 -35.5 -137.5
c0 -50.667 14.667 -91.334 44 -122.001s68.333 -46 117 -46c86.667 0 171.667 45 255 135c32 34.667 59.667 69.334 83 104.001s68.666 108.334 135.999 221.001c28.667 47.333 61 90.666 97 129.999s61.667 59 77 59c2 0 3 -1 3 -3c0 -1.33301 -2 -4.33301 -6 -9
c-28.667 -34.667 -54.667 -95.667 -78 -183c-37.333 -137.333 -71.666 -235.833 -102.999 -295.5s-72.333 -105.167 -123 -136.5c-1.33301 0 -2 -0.666992 -2 -2c0.666992 0 1.33398 -0.333008 2.00098 -1c8 0 26.333 10.333 55 31c35.333 26 67.666 55.667 96.999 89
c30.667 36 84.334 106.667 161.001 212c54.667 76 98 131.167 130 165.5s68.333 65.166 109 92.499c61.333 41.333 122.333 62 183 62c56 0 101.833 -15.667 137.5 -47s53.5 -71.666 53.5 -120.999zM612.998 385.003c0 36 -11.999 65 -35.999 87s-55.333 33 -94 33
c-65.333 0 -129.333 -26.333 -192 -79c-0.666992 -6 -1 -12.333 -1 -19c0 -24 7.66699 -46.667 23 -68c18.667 19.333 39.5 36.666 62.5 51.999s39.833 23 50.5 23c2 0 3.33301 -1 4 -3c0 -2 -5.33301 -5.33301 -16 -10c-36.667 -15.333 -68.667 -38.666 -96 -69.999
c22 -24.667 50 -37 84 -37c29.333 0 59 8.33301 89 25s54.333 38.334 73 65.001c1.33301 1.33301 2.33301 2 3 2c2.66699 0 4 -1.33301 4 -4c0 -6.66699 -10.333 -19.334 -31 -38.001c-42 -38.667 -88.333 -58 -139 -58c-34.667 0 -64.334 12.667 -89.001 38
c-34 -44 -51 -86.333 -51 -127c0 -30 9 -54.5 27 -73.5s41.333 -28.5 70 -28.5c58 0 115 31.833 171 95.5s84 128.5 84 194.5z" />
    <glyph glyph-name="N" unicode="N" horiz-adv-x="944" 
d="M1585 482c0 -28 -3.00195 -41.998 -9.00195 -41.998c-2.66699 0 -4 1.33301 -4 4c0 1.33301 0.666992 3.66602 2 6.99902s2 14 2 32c0 42.667 -16.167 78.167 -48.5 106.5s-72.833 42.5 -121.5 42.5c-98 0 -196.667 -63.667 -296 -191
c-29.333 -38 -90 -133.667 -182 -287c-26.667 -45.333 -53.5 -84.833 -80.5 -118.5s-45.167 -50.5 -54.5 -50.5c-4.66699 0 -7 2.33301 -7 7c0 6 7.33301 12.667 22 20c28.667 14 43 46.667 43 98c0 12 -0.666992 29.333 -2 52c-3.33301 56 -5 106 -5 150
c0 70 6.83301 127.333 20.5 172s36.167 84.667 67.5 120c2 1.33301 3 2.33301 3 3c0 1.33301 -0.666992 2 -2 2c-4.66699 0 -18 -11.333 -40 -34c-33.333 -34 -81.666 -108 -144.999 -222c-43.333 -78.667 -75 -132.5 -95 -161.5s-45 -57.833 -75 -86.5
c-88.667 -85.333 -180 -128 -274 -128c-54 0 -98 17.667 -132 53s-51 81 -51 137c0 104 54.333 196 163 276c13.333 67.333 50.833 125.833 112.5 175.5s127.834 74.5 198.501 74.5c31.333 0 56 -8 74 -24s27 -38 27 -66c0 -20.667 -7.16699 -45.167 -21.5 -73.5
s-21.5 -47.833 -21.5 -58.5c0 -10 3.83301 -18.5 11.5 -25.5s17.167 -10.5 28.5 -10.5c30.667 0 65 27.333 103 82c0.666992 1.33301 1.66699 2 3 2c2.66699 0 4 -1.33301 4 -4c0 -7.33301 -9.33301 -21.333 -28 -42c-28 -31.333 -55 -47 -81 -47
c-18 0 -33.167 6.5 -45.5 19.5s-18.5 29.167 -18.5 48.5c0 16.667 7 39 21 67c16.667 33.333 25 56.333 25 69c0 16.667 -7.83301 30 -23.5 40s-36.167 15 -61.5 15c-63.333 0 -125.166 -23.833 -185.499 -71.5s-97.166 -101.834 -110.499 -162.501
c64 41.333 125.667 62 185 62c46.667 0 83.167 -13 109.5 -39s39.5 -62.333 39.5 -109c0 -66.667 -29 -129.834 -87 -189.501s-119 -89.5 -183 -89.5c-31.333 0 -57.166 10.167 -77.499 30.5s-30.5 46.166 -30.5 77.499c0 44 18.333 89.667 55 137
c-16.667 22.667 -25 47.667 -25 75v11c-40.667 -36.667 -72.834 -78.5 -96.501 -125.5s-35.5 -92.833 -35.5 -137.5c0 -49.333 14.667 -89.666 44 -120.999s67.333 -47 114 -47c74.667 0 144.667 29 210 87s139.666 157 222.999 297c68 114.667 122.333 189.667 163 225
c28 24.667 46 37 54 37c1.33301 0 2 -0.666992 2 -2c0 -0.666992 -2 -3.66699 -6 -9c-20.667 -27.333 -33.667 -56.666 -39 -87.999s-9 -97.666 -11 -198.999c-2.66699 -125.333 -18 -214 -46 -266c-0.666992 0 -1 -0.333008 -1 -1s0.333008 -1.33398 1 -2.00098
c6 0 39.667 54 101 162c56 98.667 94.5 164 115.5 196s46.167 64 75.5 96c80 86.667 164.333 130 253 130c53.333 0 97.166 -15.667 131.499 -47s51.5 -71.333 51.5 -120zM612.998 385.002c0 36 -11.999 65 -35.999 87s-55.333 33 -94 33
c-65.333 0 -129.333 -26.333 -192 -79c-0.666992 -6 -1 -12.333 -1 -19c0 -25.333 7.66699 -48 23 -68c18.667 19.333 39.5 36.666 62.5 51.999s39.833 23 50.5 23c2 0 3.33301 -1 4 -3c0 -2 -5.33301 -5.33301 -16 -10c-36.667 -15.333 -68.667 -38.666 -96 -69.999
c20.667 -24.667 48.667 -37 84 -37c29.333 0 59 8.33301 89 25s54.333 38.334 73 65.001c1.33301 1.33301 2.33301 2 3 2c2.66699 0 4 -1.33301 4 -4c0 -6.66699 -10.333 -19.334 -31 -38.001c-42 -38.667 -88.333 -58 -139 -58c-34.667 0 -64.334 12.667 -89.001 38
c-34 -44 -51 -86.333 -51 -127c0 -30 9 -54.5 27 -73.5s41.333 -28.5 70 -28.5c58 0 115 31.833 171 95.5s84 128.5 84 194.5z" />
    <glyph glyph-name="O" unicode="O" horiz-adv-x="773" 
d="M889 408c0 -54 -15 -108.832 -45 -164.499s-72 -106.5 -126 -152.5c-96 -82 -187.333 -123 -274 -123c-58 0 -105.667 21.333 -143 64s-56 97.334 -56 164.001c0 57.333 15.667 116 47 176s74.333 113.333 129 160c46.667 39.333 99.5 71.833 158.5 97.5
s111.167 38.5 156.5 38.5c42 0 75.333 -10.833 100 -32.5s37 -50.834 37 -87.501c0 -12.667 -1.33301 -26.667 -4 -42c13.333 -32.667 20 -65.334 20 -98.001zM865 546.001c0 32.667 -10.833 59.499 -32.5 80.499s-49.5 31.5 -83.5 31.5
c-71.333 0 -143.333 -25.667 -216 -77c-69.333 -50 -126.333 -113.667 -171 -191c-46.667 -80 -70 -159.667 -70 -239c0 -51.333 14 -93.166 42 -125.499s64.333 -48.5 109 -48.5c59.333 0 121 24.667 185 74c62 48 113.333 108 154 180
c43.333 75.333 65.333 148.333 66 219c-9.33301 -20.667 -27.333 -45.834 -54 -75.501s-44.667 -44.5 -54 -44.5c-2.66699 0 -4 1.33301 -4 4c0 1.33301 2.33301 3.66602 7 6.99902c21.333 14.667 42.166 34.334 62.499 59.001s34.5 47.334 42.5 68.001
c-7.33301 80 -50.666 120 -129.999 120c-70 0 -140.333 -38.333 -211 -115c-85.333 -92.667 -128 -182 -128 -268c0 -29.333 8.16699 -53.166 24.5 -71.499s37.833 -27.5 64.5 -27.5c48 0 95.833 33.333 143.5 100s71.5 127.667 71.5 183c0 18.667 -4.66699 34.167 -14 46.5
s-21.333 18.5 -36 18.5c-4 0 -6.66699 -0.333008 -8 -1h-4c-2.66699 0 -4 1 -4 3c0 4 5.33301 6 16 6c20 0 36.333 -8.5 49 -25.5s19 -38.833 19 -65.5c0 -64.667 -25.167 -126.5 -75.5 -185.5s-103.166 -88.5 -158.499 -88.5c-30.667 0 -55.334 11.167 -74.001 33.5
s-28 51.166 -28 86.499c0 85.333 39.167 169.833 117.5 253.5s157.166 125.5 236.499 125.5c68.667 0 116.334 -25.667 143.001 -77c2 10 3 19 3 27z" />
    <glyph glyph-name="P" unicode="P" horiz-adv-x="759" 
d="M1203 512c0 -52 -4.99609 -78 -14.9961 -78c-2 0.666992 -3 2 -3 4c0 1.33301 0.333008 4 1 8c5.33301 21.333 8 41.333 8 60c0 41.333 -12.333 74.5 -37 99.5s-57.334 37.5 -98.001 37.5c-47.333 0 -97.666 -17 -150.999 -51c54 -36.667 81 -80 81 -130
c0 -41.333 -17.833 -76.666 -53.5 -105.999s-78.834 -44 -129.501 -44c-14 0 -28.667 2 -44 6s-23 7.66699 -23 11c0 2.66699 1.33301 4 4 4c0.666992 0 3 -1 7 -3c14.667 -6.66699 31.667 -10 51 -10c39.333 0 73.166 15.667 101.499 47s42.5 68.666 42.5 111.999
c0 42.667 -16.333 77.667 -49 105c-41.333 -31.333 -77 -69.5 -107 -114.5s-69.333 -119.5 -118 -223.5c-24.667 -52.667 -53.334 -95.667 -86.001 -129s-74.334 -62.666 -125.001 -87.999c-65.333 -32.667 -125 -49 -179 -49c-50.667 0 -91.167 13 -121.5 39
s-45.5 60.667 -45.5 104c0 38.667 14.333 78.334 43 119.001c-1.33301 5.33301 -2 11.666 -2 18.999c0 99.333 53.333 190.166 160 272.499s224.667 123.5 354 123.5c92 0 169 -20 231 -60c58 36.667 111.667 55 161 55c41.333 0 75.333 -13.167 102 -39.5
s40 -59.833 40 -100.5zM888.004 590c-52.667 38.667 -125.333 57.998 -218 57.998c-114 0 -219.667 -37.667 -317 -113s-155.333 -164 -174 -266c36.667 38 80 63.667 130 77c26 45.333 59.167 82 99.5 110s79.833 42 118.5 42c23.333 0 42.5 -7.5 57.5 -22.5
s22.5 -34.5 22.5 -58.5c0 -59.333 -30 -122.666 -90 -189.999c-71.333 -80 -144 -120 -218 -120c-37.333 0 -68.333 10.667 -93 32s-40.667 51.333 -48 90c-23.333 -36 -35 -71 -35 -105c0 -41.333 14.167 -74.333 42.5 -99s66.166 -37 113.499 -37
c60.667 0 115.334 18.333 164.001 55s100 98.334 154 185.001c62.667 101.333 115.167 178.5 157.5 231.5s86.833 96.5 133.5 130.5zM598.005 416.998c0 20.667 -6.33008 37.9971 -18.9971 51.9971s-28.334 21 -47.001 21c-30.667 0 -63 -12.333 -97 -37
s-64.333 -58 -91 -100c5.33301 1.33301 12.666 2 21.999 2c29.333 0 53 -6.66699 71 -20s27 -31.333 27 -54c0 -9.33301 -1.33301 -14 -4 -14s-4 3.33301 -4 10c0.666992 21.333 -7.5 38.333 -24.5 51s-39.833 19 -68.5 19c-4 0 -12 -0.666992 -24 -2
c-23.333 -41.333 -35 -76.666 -35 -105.999c0 -14 3.83301 -25.667 11.5 -35s17.167 -14 28.5 -14c1.33301 0 2.66602 0.333008 3.99902 1h3c2 0 3 -1 3 -3c0 -3.33301 -3.33301 -5 -10 -5c-16.667 0 -30.667 7.83301 -42 23.5s-17 34.834 -17 57.501s6.33301 47 19 73
c-48.667 -14.667 -91 -42.667 -127 -84v-15c0 -37.333 11 -67.166 33 -89.499s51.667 -33.5 89 -33.5c80 0 155.667 45.667 227 137c48 61.333 72 116.333 72 165z" />
    <glyph glyph-name="Q" unicode="Q" horiz-adv-x="669" 
d="M809 450c0 -53.333 -15.165 -107.497 -45.498 -162.497s-72.166 -103.5 -125.499 -145.5c-61.333 -48.667 -138 -86.667 -230 -114c106.667 -32 174.667 -51.667 204 -59s54 -11 74 -11c30 0 57 11 81 33l4 2c2 -0.666992 3 -2 3 -4c0 -5.33301 -8 -13 -24 -23
c-28 -18 -68.333 -27 -121 -27c-49.333 0 -89.666 3 -120.999 9c-42 8.66699 -97.333 27.334 -166 56.001l-12 5c-42.667 -10 -89.334 -15 -140.001 -15c-93.333 0 -140 15 -140 45c0 25.333 36 38 108 38c62 0 141.333 -15 238 -45c104.667 33.333 192 93.833 262 181.5
s105 179.5 105 275.5c0 50 -13 89 -39 117s-62.333 42 -109 42c-96.667 0 -190.167 -44.833 -280.5 -134.5s-135.5 -182.167 -135.5 -277.5c0 -37.333 10.5 -66.833 31.5 -88.5s49.167 -32.5 84.5 -32.5c62 0 123.167 31.667 183.5 95s90.5 127.666 90.5 192.999
c0 21.333 -6.16699 38.666 -18.5 51.999s-28.166 20 -47.499 20c-42 0 -85.833 -24.833 -131.5 -74.5s-68.5 -97.5 -68.5 -143.5c0 -12.667 4.33301 -23.834 13 -33.501s18.667 -14.5 30 -14.5c4 0 6 -1 6 -3c0 -2.66699 -2.33301 -4 -7 -4c-16 0 -29.667 7 -41 21
s-17 31 -17 51c0 47.333 23.667 94 71 140s95.666 69 144.999 69c22.667 0 41 -7.5 55 -22.5s21 -34.833 21 -59.5c0 -33.333 -10.333 -69.833 -31 -109.5s-48.334 -75.834 -83.001 -108.501c-54.667 -51.333 -111.334 -77 -170.001 -77
c-44.667 0 -81.334 15.833 -110.001 47.5s-43 72.167 -43 121.5c0 93.333 48 180.5 144 261.5s199.333 121.5 310 121.5c57.333 0 103.833 -19.167 139.5 -57.5s53.5 -88.5 53.5 -150.5zM316.002 14.0029c-98.667 32 -165.334 48 -200.001 48c-38 0 -57 -7.66699 -57 -23
c0 -24 44 -36 132 -36c50.667 0 92.334 3.66699 125.001 11z" />
    <glyph glyph-name="R" unicode="R" horiz-adv-x="920" 
d="M1203 512c0 -52 -4.99805 -77.999 -14.998 -77.999c-2 0.666992 -3 2 -3 4c0 1.33301 0.333008 4 1 8c5.33301 21.333 8 41.333 8 60c0 41.333 -12.333 74.5 -37 99.5s-57.334 37.5 -98.001 37.5c-47.333 0 -97.666 -17 -150.999 -51c50 -36.667 75 -77 75 -121
c0 -40.667 -15.167 -74.834 -45.5 -102.501s-70.166 -43.834 -119.499 -48.501c34.667 -16 52 -46.333 52 -91c0 -19.333 -8 -55 -24 -107c-10.667 -34.667 -16 -61.667 -16 -81c0 -18.667 6.16699 -34 18.5 -46s28.166 -18 47.499 -18c20 0 38 4.66699 54 14
c4.66699 2.66699 7.66699 4 9 4c2 -0.666992 3 -2 3 -4c0 -4.66699 -8 -9.66699 -24 -15s-30.667 -8 -44 -8c-29.333 0 -54.333 12.333 -75 37s-31 54.334 -31 89.001c0 19.333 9.33301 59 28 119c8.66699 28 13 50.667 13 68c0 15.333 -5.33301 28.333 -16 39
c-10.667 -2 -25.667 -3 -45 -3c-30 0 -45 2.66699 -45 8s11.333 8 34 8c22 0 40 -3 54 -9c38 7.33301 69.333 25.5 94 54.5s37 62.833 37 101.5c0 43.333 -15.333 78 -46 104c-41.333 -31.333 -77 -69.5 -107 -114.5s-69.333 -119.5 -118 -223.5
c-24.667 -52.667 -53.334 -95.667 -86.001 -129s-74.334 -62.666 -125.001 -87.999c-65.333 -32.667 -125 -49 -179 -49c-50.667 0 -91.167 13 -121.5 39s-45.5 60.667 -45.5 104c0 38.667 14.333 78.334 43 119.001c-1.33301 5.33301 -2 11.666 -2 18.999
c0 99.333 53.333 190.166 160 272.499s224.667 123.5 354 123.5c92 0 169 -20 231 -60c58 36.667 111.667 55 161 55c41.333 0 75.333 -13.167 102 -39.5s40 -59.833 40 -100.5zM888.002 590.001c-52.667 38.667 -125.333 57.998 -218 57.998
c-114 0 -219.667 -37.667 -317 -113s-155.333 -164 -174 -266c36.667 38 80 63.667 130 77c26 45.333 59.167 82 99.5 110s79.833 42 118.5 42c23.333 0 42.5 -7.5 57.5 -22.5s22.5 -34.5 22.5 -58.5c0 -59.333 -30 -122.666 -90 -189.999c-71.333 -80 -144 -120 -218 -120
c-37.333 0 -68.333 10.667 -93 32s-40.667 51.333 -48 90c-23.333 -36 -35 -71 -35 -105c0 -41.333 14.167 -74.333 42.5 -99s66.166 -37 113.499 -37c60.667 0 115.334 18.333 164.001 55s100 98.334 154 185.001c62.667 101.333 115.167 178.5 157.5 231.5
s86.833 96.5 133.5 130.5zM598.003 416.999c0 20.667 -6.33008 37.9971 -18.9971 51.9971s-28.334 21 -47.001 21c-30.667 0 -63 -12.333 -97 -37s-64.333 -58 -91 -100c5.33301 1.33301 12.666 2 21.999 2c29.333 0 53 -6.66699 71 -20s27 -31.333 27 -54
c0 -9.33301 -1.33301 -14 -4 -14s-4 3.33301 -4 10c0.666992 21.333 -7.5 38.333 -24.5 51s-39.833 19 -68.5 19c-4 0 -12 -0.666992 -24 -2c-23.333 -41.333 -35 -76.666 -35 -105.999c0 -14 3.83301 -25.667 11.5 -35s17.167 -14 28.5 -14
c1.33301 0 2.66602 0.333008 3.99902 1h3c2 0 3 -1 3 -3c0 -3.33301 -3.33301 -5 -10 -5c-16.667 0 -30.667 7.83301 -42 23.5s-17 34.834 -17 57.501s6.33301 47 19 73c-48.667 -14.667 -91 -42.667 -127 -84v-15c0 -37.333 11 -67.166 33 -89.499s51.667 -33.5 89 -33.5
c80 0 155.667 45.667 227 137c48 61.333 72 116.333 72 165z" />
    <glyph glyph-name="S" unicode="S" horiz-adv-x="707" 
d="M994 638c0 -15.333 -15.6689 -37.666 -47.002 -66.999s-69.666 -57.666 -114.999 -84.999c-7.33301 -24 -16 -57.667 -26 -101c-18 -77.333 -34.667 -131.833 -50 -163.5s-40.666 -64.167 -75.999 -97.5c-101.333 -96 -215.333 -144 -342 -144
c-53.333 0 -98.333 14.333 -135 43c-18 -32 -27 -61 -27 -87c0 -26.667 7.66699 -50.334 23 -71.001c2 -2 3 -3.66699 3 -5c0 -3.33301 -1.33301 -5 -4 -5c-6.66699 0 -13.834 9.16699 -21.501 27.5s-11.5 35.833 -11.5 52.5c0 29.333 10 60.666 30 93.999
c-42 39.333 -63 91 -63 155c0 55.333 16.333 110 49 164s78.334 102.667 137.001 146c75.333 55.333 149.666 83 222.999 83c40.667 0 72.667 -11.333 96 -34s35 -53.667 35 -93c0 -14 -2 -30 -6 -48l125 71c24.667 51.333 54.334 94.833 89.001 130.5s65 53.5 91 53.5
c15.333 0 23 -6.33301 23 -19zM984.998 637c0 8 -4.66699 12 -14 12c-21.333 0 -45.5 -15 -72.5 -45s-47.833 -65.333 -62.5 -106c42.667 26 78.167 52.333 106.5 79s42.5 46.667 42.5 60zM651.998 383c-158 -92 -267 -164.999 -327 -218.999c14 -28 37.333 -42 70 -42
c46 0 95.333 26.667 148 80s89 113.666 109 180.999zM785.998 461.001l-56.999 -32.999l-66 -38c-19.333 -72 -56.5 -136 -111.5 -192s-108.5 -84 -160.5 -84c-32.667 0 -58 13.667 -76 41c-48.667 -46.667 -84 -87.334 -106 -122.001c34 -29.333 77.333 -44 130 -44
c60.667 0 119.667 17.333 177 52s106.666 82.667 147.999 144c19.333 28.667 34.5 55.167 45.5 79.5s28.833 70.5 53.5 138.5c5.33301 14.667 13 34 23 58zM662.999 452.002c0 35.333 -10.667 63.501 -32 84.501s-50 31.5 -86 31.5c-86.667 0 -171.167 -45.333 -253.5 -136
s-123.5 -184 -123.5 -280c0 -48.667 11.333 -85.667 34 -111c24.667 38 60.667 78.667 108 122c-9.33301 18 -14 36.333 -14 55c0 59.333 25.5 115 76.5 167s105.5 78 163.5 78c20.667 0 37.167 -5.5 49.5 -16.5s18.5 -25.833 18.5 -44.5c0 -12 -2.33301 -18 -7 -18
c-2 0 -3 1.33301 -3 4l1 6c0.666992 1.33301 1 3.66602 1 6.99902c0 34.667 -19 52 -57 52c-48.667 0 -98 -28 -148 -84s-75 -111.333 -75 -166c0 -11.333 1.66699 -21.333 5 -30c68 59.333 179.333 133.333 334 222c5.33301 26 8 45 8 57z" />
    <glyph glyph-name="T" unicode="T" horiz-adv-x="672" 
d="M1318 599c0 -17.333 -17.6709 -32.167 -53.0039 -44.5s-78.666 -18.5 -129.999 -18.5c-52.667 0 -115.667 7 -189 21c-41.333 -22 -78.333 -53 -111 -93s-68 -97.667 -106 -173s-65.833 -125.5 -83.5 -150.5s-42.167 -49.167 -73.5 -72.5
c-80.667 -60.667 -166.667 -91 -258 -91c-61.333 0 -110.666 16 -147.999 48s-56 74.333 -56 127c0 55.333 21.833 107.833 65.5 157.5s98.834 84.5 165.501 104.5c65.333 102.667 152.666 168 261.999 196c-26 34 -62.667 51 -110 51c-42.667 0 -86 -13.333 -130 -40
c-39.333 -24 -73 -54.667 -101 -92c-3.33301 -4 -5.66602 -6 -6.99902 -6c-2 0 -3.33301 1 -4 3c0 5.33301 13.333 21.333 40 48c64 63.333 130.667 95 200 95c54.667 0 96.334 -18.667 125.001 -56c40.667 11.333 85.667 17 135 17c26 0 49.833 -1.66699 71.5 -5
s78.5 -14.333 170.5 -33c77.333 32.667 150 49 218 49c71.333 0 107 -14 107 -42zM1310 597.999c0 9.33301 -9.16699 17.333 -27.5 24s-40.833 10 -67.5 10c-72 0 -140.333 -14.667 -205 -44c4 -0.666992 25.667 -4.66699 65 -12c52 -10 96.667 -15 134 -15
c28.667 0 52.667 3.5 72 10.5s29 15.833 29 26.5zM627.996 523.999c0 25.333 -5.99902 50 -17.999 74c-103.333 -16.667 -189 -77 -257 -181c21.333 5.33301 43.666 8 66.999 8c71.333 0 118.333 -30 141 -90c44.667 63.333 67 126.333 67 189zM933.997 558.999
c-29.333 5.33301 -55.6689 10.6689 -79.002 16.002c-80 18 -143 27 -189 27c-6 0 -20.333 -0.666992 -43 -2c16 -28.667 24 -61.334 24 -98.001c0 -70.667 -26.333 -136.667 -79 -198c1.33301 -14.667 2 -23 2 -25c0 -56 -24.5 -108.333 -73.5 -157s-101.5 -73 -157.5 -73
c-30.667 0 -56.5 10.667 -77.5 32s-31.5 47.666 -31.5 78.999c0 48.667 24.667 92 74 130c-0.666992 4 -1 8.33301 -1 13c0 27.333 9.66699 59.333 29 96c-57.333 -24 -104.333 -61.667 -141 -113s-55 -105.333 -55 -162c0 -39.333 15.833 -72.333 47.5 -99
s70.834 -40 117.501 -40c91.333 0 172.333 40 243 120c34.667 39.333 77 100.333 127 183c82.667 136.667 170.334 227 263.001 271zM554.994 327.002c-20.667 59.333 -64.333 89.001 -131 89.001c-22.667 0 -49.334 -4.33301 -80.001 -13
c-22 -38.667 -32.667 -74.334 -32 -107.001c38.667 24 75.334 36 110.001 36c15.333 0 30.833 -4.5 46.5 -13.5s23.5 -17.833 23.5 -26.5c0 -2 -1 -3 -3 -3c-1.33301 0 -4.33301 3.33301 -9 10c-11.333 16.667 -29 25 -53 25c-36.667 0 -74 -17 -112 -51
c13.333 -38 37.333 -57 72 -57c56 0 112 37 168 111zM560.995 280.003c0 5.33301 -0.332031 10.332 -0.999023 14.999c-52 -59.333 -108.333 -89 -169 -89c-42.667 0 -70.334 20 -83.001 60c-38 -37.333 -57 -77.333 -57 -120c0 -27.333 8.16699 -48.833 24.5 -64.5
s38.5 -23.5 66.5 -23.5c52 0 101.5 23.833 148.5 71.5s70.5 97.834 70.5 150.501z" />
    <glyph glyph-name="U" unicode="U" horiz-adv-x="904" 
d="M1154 604c-226 -310 -338.998 -509.994 -338.998 -599.994c0 -22 7.16699 -40.167 21.5 -54.5s32.833 -21.5 55.5 -21.5c38.667 0 76.667 20.667 114 62c2.66699 3.33301 5 5 7 5s3 -1.33301 3 -4c0 -3.33301 -5.66699 -10 -17 -20c-38.667 -34 -74.334 -51 -107.001 -51
c-31.333 0 -57.166 12 -77.499 36s-30.5 54.333 -30.5 91c0 63.333 32.333 145.666 97 246.999l-16 -21l-23 -32c-59.333 -82.667 -116 -147.167 -170 -193.5s-99 -69.5 -135 -69.5c-23.333 0 -42.166 8.5 -56.499 25.5s-21.5 39.5 -21.5 67.5c0 29.333 8 58.833 24 88.5
s51.333 80.167 106 151.5c57.333 75.333 93.833 127.666 109.5 156.999s23.5 60.666 23.5 93.999c0 31.333 -11.5 56 -34.5 74s-54.167 27 -93.5 27c-99.333 0 -195 -45.333 -287 -136s-138 -184.667 -138 -282c0 -36.667 10.333 -66.167 31 -88.5s48 -33.5 82 -33.5
c65.333 0 127.666 36.667 186.999 110c62.667 77.333 94 147.666 94 210.999c0 54 -22 81 -66 81c-44.667 0 -90.334 -26.5 -137.001 -79.5s-70 -104.833 -70 -155.5c0 -12.667 3.83301 -23.667 11.5 -33s16.834 -14 27.501 -14h4c2 0.666992 4 1 6 1
c2.66699 0 4 -1.33301 4 -4c0 -3.33301 -3.33301 -5 -10 -5c-18.667 0 -33.834 7.33301 -45.501 22s-17.5 33.667 -17.5 57c0 48.667 25 97.5 75 146.5s100 73.5 150 73.5c51.333 0 77 -29.667 77 -89c0 -64 -30.667 -134.667 -92 -212
c-62.667 -79.333 -128.667 -119 -198 -119c-40.667 0 -73.5 14 -98.5 42s-37.5 65 -37.5 111c0 107.333 56 204.666 168 291.999c43.333 34 90.5 61.333 141.5 82s96.833 31 137.5 31c49.333 0 87.666 -13.333 114.999 -40s41 -63.667 41 -111
c0 -40 -9.83301 -78 -29.5 -114s-69.167 -106.667 -148.5 -212c-34.667 -46 -57.334 -78.833 -68.001 -98.5s-16 -38.167 -16 -55.5c0 -16 4.83301 -29.167 14.5 -39.5s22.167 -15.5 37.5 -15.5c49.333 0 117 49.167 203 147.5s198 254.166 336 467.499
c17.333 -1.33301 27 -2 29 -2c12.667 0 28.334 1.66699 47.001 5z" />
    <glyph glyph-name="V" unicode="V" horiz-adv-x="749" 
d="M1506 695c0 -8 -4.66504 -11.998 -13.998 -11.998h-8c-18 2 -32.667 3 -44 3c-84 0 -183 -36.667 -297 -110c-54.667 -35.333 -100.667 -71 -138 -107s-106.666 -111.667 -207.999 -227c-119.333 -136 -209.333 -226 -270 -270c-32 -23.333 -49.667 -35 -53 -35
c-2 0 -3 1 -3 3l11 15c57.333 74.667 106.666 163 147.999 265s62 187.333 62 256c0 110 -44.667 165 -134 165c-35.333 0 -75.833 -12 -121.5 -36s-87.5 -55.333 -125.5 -94c-41.333 -42 -74.166 -88.833 -98.499 -140.5s-36.5 -99.834 -36.5 -144.501
c0 -39.333 10.667 -70.833 32 -94.5s50 -35.5 86 -35.5c76 0 146.667 46.667 212 140c44 62.667 66 118 66 166c0 56 -23 84 -69 84c-42 0 -86 -28.5 -132 -85.5s-69 -111.833 -69 -164.5c0 -39.333 13.667 -59 41 -59h4c1.33301 0.666992 3 1 5 1
c2 -0.666992 3 -1.66699 3 -3c0 -4 -4 -6 -12 -6c-18.667 0 -34 8.16699 -46 24.5s-18 36.833 -18 61.5c0 54.667 24.667 108.167 74 160.5s99.666 78.5 150.999 78.5c23.333 0 42 -8.16699 56 -24.5s21 -38.166 21 -65.499c0 -54 -23.333 -113 -70 -177
c-67.333 -92.667 -140.333 -139 -219 -139c-41.333 0 -75.333 14.833 -102 44.5s-40 67.5 -40 113.5c0 91.333 45.167 181.333 135.5 270s182.166 133 275.499 133c55.333 0 100 -19.167 134 -57.5s51 -88.5 51 -150.5c0 -66.667 -18.667 -136.667 -56 -210
s-97.666 -158.333 -180.999 -255c-3.33301 -4 -5 -6.33301 -5 -7l1 -1c5.33301 0 25.666 15 60.999 45c27.333 23.333 55.333 50.666 84 81.999l206 232c66 74.667 124 133.667 174 177s106 82.666 168 117.999c101.333 58 190.666 87 267.999 87
c26.667 0 40 -4.66699 40 -14z" />
    <glyph glyph-name="W" unicode="W" horiz-adv-x="924" 
d="M1692 740c0 -8 -4.99902 -12 -14.999 -12h-7c-10 1.33301 -22 2 -36 2c-76 0 -167 -33.667 -273 -101c-60 -38 -110.333 -77.333 -151 -118s-111.667 -122.334 -213 -245.001c-120 -144.667 -214 -242.334 -282 -293.001l-7 -5c-18 -13.333 -28.667 -20 -32 -20
c-2 0 -3 0.666992 -3 2c0 0.666992 2 3 6 7c44.667 42.667 90 127 136 253c38 104 62 167.333 72 190c31.333 73.333 64.333 132.333 99 177c1.33301 2 3 4.33301 5 7c0 0.666992 -0.333008 1.33398 -1 2.00098c-0.666992 0 -2.66699 -1.66699 -6 -5l-5 -5
c-16 -16 -69.667 -85.667 -161 -209c-122.667 -166 -231 -286 -325 -360c-50 -39.333 -79 -59 -87 -59c-2 0.666992 -3 1.66699 -3 3s2 3.66602 6 6.99902c64.667 58.667 126 146.334 184 263.001s87 210 87 280c0 47.333 -11.667 84.833 -35 112.5
s-54.666 41.5 -93.999 41.5c-84.667 0 -168.5 -47.167 -251.5 -141.5s-124.5 -189.166 -124.5 -284.499c0 -39.333 10.833 -71.166 32.5 -95.499s50.167 -36.5 85.5 -36.5c78.667 0 149.667 50.333 213 151c38.667 61.333 58 116 58 164c0 26.667 -6.16699 48 -18.5 64
s-29.166 24 -50.499 24c-40.667 0 -83.834 -29.167 -129.501 -87.5s-68.5 -113.833 -68.5 -166.5c0 -42.667 15.333 -64 46 -64h8c1.33301 0.666992 3 1 5 1s3 -1 3 -3c0 -4.66699 -5.66699 -7 -17 -7c-18.667 0 -34 8.83301 -46 26.5s-18 39.834 -18 66.501
c0 54.667 24 108.667 72 162s96.667 80 146 80c23.333 0 42 -8.5 56 -25.5s21 -39.833 21 -68.5c0 -54 -20.333 -112.333 -61 -175c-64.667 -100 -138.334 -150 -221.001 -150c-41.333 0 -75.166 15.333 -101.499 46s-39.5 70.334 -39.5 119.001
c0 96 44.667 187.333 134 274c93.333 90.667 183 136 269 136c50.667 0 93.167 -20 127.5 -60s51.5 -88.667 51.5 -146c0 -62.667 -25 -137.167 -75 -223.5s-113 -163.5 -189 -231.5c-7.33301 -6.66699 -11 -10.334 -11 -11.001c0 -1.33301 0.666992 -2 2 -2
c9.33301 0 41.666 28.333 96.999 85c72 73.333 176.667 200.333 314 381c38.667 50.667 76 95.5 112 134.5s58.333 58.5 67 58.5c2 0 3 -0.666992 3 -2s-1 -3.33301 -3 -6c-20.667 -27.333 -37.334 -55 -50.001 -83c-13.333 -31.333 -35 -92 -65 -182
c-32 -97.333 -61.333 -171.333 -88 -222c-27.333 -52.667 -61.666 -100 -102.999 -142c-0.666992 -1.33301 -1.33398 -2.33301 -2.00098 -3c0 -1.33301 0.666992 -2 2 -2c4.66699 0 28 21.333 70 64c24.667 24.667 104.667 119 240 283
c67.333 81.333 128.333 146.166 183 194.499s115.334 91.166 182.001 128.499c91.333 51.333 171.666 77 240.999 77c22 0 33 -4.66699 33 -14z" />
    <glyph glyph-name="X" unicode="X" horiz-adv-x="1006" 
d="M1299 576c0 -10.667 -3 -22.4971 -9 -35.4971s-11.667 -19.5 -17 -19.5c-3.33301 0 -5 1.66699 -5 5c0 1.33301 2.33301 4.66602 7 9.99902c10 9.33301 15 22.333 15 39c0 19.333 -7.66699 35.333 -23 48s-34.666 19 -57.999 19c-73.333 0 -168.333 -48.667 -285 -146
c-17.333 -14 -70.666 -63.333 -159.999 -148c-51.333 -131.333 -77 -217.333 -77 -258c0 -67.333 31.333 -101 94 -101c56 0 117 33.667 183 101s99 127.666 99 180.999c0 24 -7.33301 43.167 -22 57.5s-34.334 21.5 -59.001 21.5c-26.667 0 -57.334 -10.167 -92.001 -30.5
s-64.334 -45.5 -89.001 -75.5c-4 -6 -7.33301 -9 -10 -9c-2 0.666992 -3 1.66699 -3 3c0 3.33301 8 13 24 29c62 61.333 119.333 92 172 92c26.667 0 49 -9.33301 67 -28s27 -42 27 -70c0 -62.667 -34 -125.167 -102 -187.5s-135.667 -93.5 -203 -93.5
c-38 0 -69.667 13.167 -95 39.5s-38 59.166 -38 98.499c0 38.667 13.667 91.667 41 159c-6.66699 -6 -20 -19.333 -40 -40c-86 -92.667 -161.167 -159.667 -225.5 -201s-126.166 -62 -185.499 -62c-38.667 0 -70.667 12 -96 36s-38 54 -38 90c0 38 13.333 74 40 108
s61 58.667 103 74c-2 12 -3 21.333 -3 28c0 93.333 53 177 159 251c94 66 181 99 261 99c46 0 82.667 -13 110 -39s41 -60.667 41 -104c0 -38 -11.667 -88 -35 -150l47 47c86 86 158.5 148.167 217.5 186.5s112.167 57.5 159.5 57.5c30 0 54.667 -7.66699 74 -23
s29 -35 29 -59zM768 547.003c0 32.667 -9.49902 58.498 -28.499 77.498s-45.167 28.5 -78.5 28.5c-48.667 0 -100.5 -14.167 -155.5 -42.5s-106.5 -67.166 -154.5 -116.499c-62.667 -65.333 -94.667 -134 -96 -206c19.333 4.66699 36.333 7 51 7c16 0 24 -1.66699 24 -5
c-0.666992 -2 -2 -3 -4 -3h-4l-19 1c-10.667 0.666992 -26.334 -2 -47.001 -8c8 -67.333 49.333 -101 124 -101c78 0 153.333 41 226 123c52 58.667 78 112.667 78 162c0 20 -6.66699 36.333 -20 49s-30.333 19 -51 19c-46.667 0 -96.667 -27.167 -150 -81.5
s-80 -105.166 -80 -152.499c0 -13.333 4.16699 -24.833 12.5 -34.5s18.166 -14.167 29.499 -13.5c4 0 6 -1 6 -3s-2.33301 -3 -7 -3c-18 0 -32.5 6.66699 -43.5 20s-16.5 31.333 -16.5 54c0 51.333 27.167 101.166 81.5 149.499s109.833 72.5 166.5 72.5
c24 0 43.5 -7 58.5 -21s22.5 -32.333 22.5 -55c0 -63.333 -36.667 -129.666 -110 -198.999c-67.333 -63.333 -134.666 -95 -201.999 -95c-74.667 0 -121.667 35 -141 105c-40.667 -16.667 -73 -40.834 -97 -72.501s-36 -66.167 -36 -103.5c0 -33.333 11 -60.5 33 -81.5
s50.333 -31.5 85 -31.5c52.667 0 111.667 20.833 177 62.5s145 108.834 239 201.501l48 46c36 88 58.167 145.5 66.5 172.5s12.5 53.167 12.5 78.5z" />
    <glyph glyph-name="Y" unicode="Y" horiz-adv-x="884" 
d="M1142 526c0 -1.33301 -3.33398 -4.32715 -10.001 -8.99414c-94 -66.667 -185 -191.667 -273 -375c-24 -49.333 -44.667 -88.333 -62 -117c13.333 -26.667 20 -54.334 20 -83.001c0 -70.667 -31.667 -131.334 -95 -182.001c-34.667 -28 -58.334 -42 -71.001 -42
c-2.66699 0 -4 1.33301 -4 4c0 2 7 6.33301 21 13c42 20.667 75.833 50.167 101.5 88.5s38.5 78.5 38.5 120.5c0 26.667 -5.33301 51 -16 73c-31.333 -51.333 -57 -89 -77 -113s-46.333 -48.333 -79 -73c-49.333 -38 -101 -68 -155 -90s-103 -33 -147 -33
c-54 0 -97.5 14.667 -130.5 44s-49.5 67.666 -49.5 114.999c0 63.333 30.167 120.5 90.5 171.5s138.5 85.5 234.5 103.5c8 25.333 18.5 48.166 31.5 68.499s41.167 58.5 84.5 114.5c76 98 114 173.667 114 227c0 35.333 -11.833 63 -35.5 83s-56.5 30 -98.5 30
c-99.333 0 -197.833 -45.333 -295.5 -136s-146.5 -182.334 -146.5 -275.001c0 -36 11.333 -65 34 -87s52.334 -33 89.001 -33c58.667 0 117.334 27.333 176.001 82c35.333 33.333 63.833 70 85.5 110s32.5 76.667 32.5 110c0 21.333 -6.33301 38.666 -19 51.999
s-29.334 20 -50.001 20c-46 0 -94.333 -28.333 -145 -85s-76 -110.667 -76 -162c0 -14.667 3.83301 -26.834 11.5 -36.501s17.167 -14.5 28.5 -14.5c1.33301 0 3.33301 0.333008 6 1h2c2.66699 0 4 -1 4 -3c0 -3.33301 -3.33301 -5 -10 -5
c-17.333 0 -31.666 7.33301 -42.999 22s-17 33 -17 55c0 55.333 25.833 108.5 77.5 159.5s105.167 76.5 160.5 76.5c23.333 0 42.166 -7.16699 56.499 -21.5s21.5 -33.833 21.5 -58.5c0 -65.333 -33.167 -133.5 -99.5 -204.5s-134.5 -106.5 -204.5 -106.5
c-42.667 0 -77 14.5 -103 43.5s-39 67.167 -39 114.5c0 96.667 52 185.667 156 267s207.667 122 311 122c48.667 0 87.334 -14 116.001 -42s43 -66 43 -114c0 -44 -10 -84.833 -30 -122.5s-66.667 -103.167 -140 -196.5c-10.667 -13.333 -22 -29.666 -34 -48.999
c6.66699 0.666992 14.667 1 24 1c56.667 0 110.667 -14.667 162 -44c42 41.333 94.333 101 157 179c72.667 90.667 134.667 157 186 199c40 32.667 64.667 49 74 49c3.33301 0 5 -2 5 -6zM868.999 263.006c-57.333 -70.667 -104.667 -124.667 -142 -162
c13.333 -8.66699 24 -17 32 -25c4 8 16.667 30.667 38 68zM713.998 99.0059c-45.333 27.333 -96.667 41.001 -154 41.001c-12 0 -22.667 -0.333008 -32 -1c-18 -30.667 -27 -56.334 -27 -77.001c0 -38 18.333 -57 55 -57c40 0 92.667 31.333 158 94zM754.997 69.0068
c-9.33301 8.66699 -20.667 17.333 -34 26c-68 -65.333 -123.333 -98 -166 -98c-24.667 0 -44.667 8.66699 -60 26s-23 40 -23 68c0 10 1.33301 23.333 4 40c-84 -20 -153.833 -57.167 -209.5 -111.5s-83.5 -112.833 -83.5 -175.5c0 -38.667 14.167 -69.5 42.5 -92.5
s65.833 -34.5 112.5 -34.5c150 0 289 117.333 417 352z" />
    <glyph glyph-name="Z" unicode="Z" horiz-adv-x="689" 
d="M1031 601c0 -21.333 -23.665 -51.001 -70.998 -89.001s-88.333 -60.333 -123 -67c-61.333 -107.333 -112.5 -180 -153.5 -218s-108.833 -75.667 -203.5 -113c50 -3.33301 90.833 -19.333 122.5 -48s48.167 -64.667 49.5 -108c36.667 -34.667 55 -76.667 55 -126
c0 -68 -36.333 -125.667 -109 -173c-16 -10.667 -36.5 -20.667 -61.5 -30s-43.167 -14 -54.5 -14c-3.33301 0 -5 1.33301 -5 4c0 3.33301 2.66699 5.33301 8 6c55.333 8 104.333 33.333 147 76s64 87.667 64 135c0 40 -14.667 76 -44 108
c-4 -54.667 -23.833 -102.834 -59.5 -144.501s-84.834 -74.834 -147.501 -99.501s-127.667 -37 -195 -37c-63.333 0 -115.166 15.667 -155.499 47s-60.5 71.666 -60.5 120.999c0 63.333 33.333 116.833 100 160.5s148.667 65.5 246 65.5c84 0 157.333 -19.333 220 -58
c-9.33301 62.667 -55 99.334 -137 110.001c-31.333 -12.667 -59 -19 -83 -19c-11.333 0 -17 2 -17 6c0 11.333 33 17.666 99 18.999c47.333 18.667 91.5 47.667 132.5 87s110.5 119.333 208.5 240c-40 4.66699 -68.333 17.334 -85 38.001s-28.334 57.334 -35.001 110.001
c-6 48 -36.667 72 -92 72c-74 0 -153 -33.333 -237 -100c-99.333 -79.333 -149 -159.666 -149 -240.999c0 -34.667 12.333 -62.334 37 -83.001s57.667 -31 99 -31c61.333 0 123.166 27.167 185.499 81.5s93.5 107.833 93.5 160.5c0 21.333 -6.5 38.166 -19.5 50.499
s-30.5 18.5 -52.5 18.5c-42.667 0 -91 -24 -145 -72s-81 -91 -81 -129c0 -16.667 10 -31 30 -43c3.33301 -2 5 -3.66699 5 -5c0 -2 -1 -3 -3 -3c-10.667 0 -21.334 7.33301 -32.001 22s-16 29.334 -16 44.001c0 44.667 25.833 88.334 77.5 131.001s104.834 64 159.501 64
c26.667 0 47.667 -6.83301 63 -20.5s23 -32.167 23 -55.5c0 -57.333 -31.833 -114.166 -95.5 -170.499s-127.834 -84.5 -192.501 -84.5c-47.333 0 -85.166 13.667 -113.499 41s-42.5 63.333 -42.5 108c0 70 35 135.333 105 196c46 40 97 71.833 153 95.5s108 35.5 156 35.5
c56.667 0 97 -19.667 121 -59c12 -19.333 20.167 -51.333 24.5 -96s26.5 -66.667 66.5 -66c40 46.667 79.333 86 118 118s66.667 48 84 48c12 0 18 -5.33301 18 -16zM1021 599.999c0 5.33301 -3 7.99902 -9 7.99902c-15.333 0 -40.833 -16.167 -76.5 -48.5
s-66.167 -67.166 -91.5 -104.499c48 12 96.333 44.667 145 98c21.333 23.333 32 39 32 47zM602.002 -26.002l-0.000976562 14c-56 37.333 -124 56 -204 56c-87.333 0 -165.166 -24 -233.499 -72s-102.5 -102.667 -102.5 -164c0 -39.333 17.333 -71.833 52 -97.5
s78.667 -38.5 132 -38.5c86 0 166.833 32.167 242.5 96.5s113.5 132.833 113.5 205.5z" />
    <glyph glyph-name="bracketleft" unicode="[" horiz-adv-x="439" 
d="M704 703c0 -3.33301 -2.83203 -5.33203 -8.49902 -5.99902s-25.834 -1.33398 -60.501 -2.00098l-428 -758c42 0 63 -1.33301 63 -4c0 -5.33301 -7.33301 -8 -22 -8l-108 1l442 780h23c38.667 0 64.667 0.666992 78 2h9c8 0 12 -1.66699 12 -5z" />
    <glyph glyph-name="backslash" unicode="\" 
d="M545 726l-224 -827h-12l224 827h12z" />
    <glyph glyph-name="bracketright" unicode="]" horiz-adv-x="439" 
d="M589 707l-441.999 -781.001c-6.66699 0.666992 -14.334 1 -23.001 1c-9.33301 0 -23.5 -0.333008 -42.5 -1s-30.833 -1 -35.5 -1h-10c-8 0 -12 1.66699 -12 5s3 5.33301 9 6s26.333 1.33398 61 2.00098l428 757h-12l-20 1c-8 -0.666992 -15.333 -1 -22 -1
c-4 0 -7 1.33301 -9 4c0 6 7.33301 9 22 9c16 0 30.667 -0.333008 44 -1s25.333 -1 36 -1c10 0 19.333 0.333008 28 1z" />
    <glyph glyph-name="asciicircum" unicode="^" horiz-adv-x="264" 
d="M361 267c-66.667 -104 -124.334 -205.33 -173.001 -303.997c42.667 -14.667 64 -43.334 64 -86.001c0 -44 -24 -85.333 -72 -124s-99.333 -58 -154 -58c-20 0 -35.667 2.66699 -47 8c-50.667 -38.667 -95 -58 -133 -58c-20.667 0 -37.667 6.66699 -51 20
s-20 30.666 -20 51.999c0 59.333 37.167 117.666 111.5 174.999s150.166 86 227.499 86c10.667 0 19.334 -0.666992 26.001 -2c13.333 28 39.333 76 78 144c-57.333 -83.333 -100.333 -125 -129 -125c-13.333 0 -25 5.5 -35 16.5s-15 24.167 -15 39.5
c0 19.333 11.667 48.333 35 87l76 127c14.667 -1.33301 23.334 -2 26.001 -2c10 0 21.333 1.33301 34 4l-96 -157c-26 -42.667 -39 -72 -39 -88c0 -13.333 6 -20 18 -20c34 0 88 62 162 186l46 77c7.33301 -1.33301 16.333 -2 27 -2c9.33301 0 20.333 1.33301 33 4z
M245 -121.997c0 40 -19.666 66.668 -58.999 80.001c-32 -63.333 -62.5 -112.833 -91.5 -148.5s-65.833 -69.834 -110.5 -102.501c14.667 -3.33301 27.667 -5 39 -5c53.333 0 103.666 18.667 150.999 56s71 77.333 71 120zM137.001 -29.9961
c-8 0.666992 -17 0.999023 -27 0.999023c-73.333 0 -145 -28.5 -215 -85.5s-105 -115.167 -105 -174.5c0 -17.333 5 -31.5 15 -42.5s22.667 -16.5 38 -16.5c32.667 0 72 19.333 118 58c-37.333 20 -56 47 -56 81c0 28.667 14 56.334 42 83.001c12.667 12 20.667 18 24 18
c1.33301 0 2 -0.666992 2 -2c0 -2 -3.66699 -5.66699 -11 -11c-33.333 -24 -50 -53.667 -50 -89c0 -32 18 -57.333 54 -76c55.333 48.667 112.333 134 171 256z" />
    <glyph glyph-name="underscore" unicode="_" horiz-adv-x="500" 
d="M546 -104h-500v21h500v-21z" />
    <glyph glyph-name="grave" unicode="`" horiz-adv-x="500" 
d="M437 312c-0.666992 -1.33301 -1.66699 -2 -3 -2c-8 0 -18.5 12 -31.5 36s-23.167 49.667 -30.5 77l42 29c-5.33301 -16 -8 -31.667 -8 -47c0 -34 9 -63 27 -87c2.66699 -2.66699 4 -4.66699 4 -6z" />
    <glyph glyph-name="a" unicode="a" horiz-adv-x="344" 
d="M434 153c0 -6.66699 -23.667 -38.334 -71 -95.001c-38.667 -46 -69 -69 -91 -69c-14.667 0 -26.834 5.5 -36.501 16.5s-14.5 25.167 -14.5 42.5s5.33301 36.333 16 57c-32.667 -45.333 -57.667 -76 -75 -92s-34 -24 -50 -24c-17.333 0 -31.833 7.33301 -43.5 22
s-17.5 33.334 -17.5 56.001c0 62.667 44 118 132 166c38.667 21.333 70 32 94 32c20 0 30 -9.66699 30 -29c0 -6 -1.33301 -13.333 -4 -22l25 47c10 -2 18.667 -3 26 -3c8.66699 0 20 1 34 3l-86 -143c-30 -50 -45 -83 -45 -99c0 -15.333 6.33301 -23 19 -23
s33.334 14.833 62.001 44.5s58 66.5 88 110.5c1.33301 3.33301 3 5 5 5s3 -1 3 -3zM300 234c0 16 -7.33301 24 -22 24c-30 0 -69.333 -29.333 -118 -88s-73 -106 -73 -142c0 -21.333 9.33301 -32 28 -32c22.667 0 61.667 37.333 117 112c45.333 61.333 68 103.333 68 126z
" />
    <glyph glyph-name="b" unicode="b" horiz-adv-x="263" 
d="M353 493l-218.999 -346.001c34 46.667 59.5 78 76.5 94s33.167 24 48.5 24c18 0 32.833 -7.33301 44.5 -22s17.5 -33.334 17.5 -56.001c0 -49.333 -31.333 -97.666 -94 -144.999c-46.667 -35.333 -88 -53 -124 -53c-16.667 0 -30.334 6.33301 -41.001 19
s-16 29.334 -16 50.001c0 24.667 15.667 62 47 112l202 324c8.66699 -2.66699 18 -4 28 -4c8 0 18 1 30 3zM285.001 224.999c0 22 -9 33 -27 33c-24 0 -64.667 -39.333 -122 -118c-42.667 -58.667 -64 -98 -64 -118c0 -17.333 8.33301 -26 25 -26c29.333 0 68 29.333 116 88
s72 105.667 72 141z" />
    <glyph glyph-name="c" unicode="c" horiz-adv-x="242" 
d="M333 153c0 -4.66699 -22.998 -31.9971 -68.998 -81.9971c-50 -54.667 -92.667 -82 -128 -82c-22.667 0 -42.167 8.66699 -58.5 26s-24.5 38 -24.5 62c0 27.333 11.167 55.666 33.5 84.999s52.166 54.666 89.499 75.999c31.333 18 57 27 77 27c24 0 36 -14.333 36 -43
c0 -22.667 -7.5 -45.167 -22.5 -67.5s-30.167 -33.5 -45.5 -33.5c-14.667 0 -22 7.33301 -22 22c0 17.333 15 33.333 45 48c23.333 11.333 35 26.333 35 45c0 14.667 -8 22 -24 22c-26.667 0 -59.834 -26.833 -99.501 -80.5s-59.5 -98.834 -59.5 -135.501
c0 -30.667 14.333 -46 43 -46c21.333 0 49 14 83 42s67.333 64.667 100 110c4 5.33301 7 8 9 8c1.33301 -0.666992 2 -1.66699 2 -3z" />
    <glyph glyph-name="d" unicode="d" horiz-adv-x="344" 
d="M534 494c-122 -194 -199.001 -318.167 -231.001 -372.5s-48 -88.833 -48 -103.5s6.66699 -22 20 -22c29.333 0 79.666 51.667 150.999 155c1.33301 3.33301 3 5 5 5s3 -1 3 -3c0 -1.33301 -1.66699 -4 -5 -8l-21 -29c-61.333 -84.667 -106.666 -127 -135.999 -127
c-14.667 0 -26.834 5.66699 -36.501 17s-14.5 25.666 -14.5 42.999s6 37.666 18 60.999c-56.667 -80.667 -99 -121 -127 -121c-17.333 0 -31.833 7.33301 -43.5 22s-17.5 33.334 -17.5 56.001c0 54 33.333 102.667 100 146c52.667 34.667 94.334 52 125.001 52
c20 0 30 -9.66699 30 -29c0 -9.33301 -2.66699 -19.666 -8 -30.999l174 292c10.667 -3.33301 21.334 -5 32.001 -5c2.66699 0 12.667 0.666992 30 2zM298.999 232c0 17.333 -8 26 -24 26c-29.333 0 -68 -29.333 -116 -88s-72 -105.667 -72 -141c0 -22 9 -33 27 -33
c26 0 70.667 45.333 134 136c34 48.667 51 82 51 100z" />
    <glyph glyph-name="e" unicode="e" horiz-adv-x="246" 
d="M337 153c0 -1.33301 -3 -5.66895 -9 -13.002l-21 -26c-67.333 -83.333 -125 -125 -173 -125c-23.333 0 -42.666 8.16699 -57.999 24.5s-23 36.833 -23 61.5c0 58.667 41 110.334 123 155.001c42.667 23.333 77.667 35 105 35c11.333 0 21.166 -3.5 29.499 -10.5
s12.5 -15.5 12.5 -25.5c0 -23.333 -15.167 -43.166 -45.5 -59.499s-81.5 -31.833 -153.5 -46.5c-22 -33.333 -33 -61.333 -33 -84c0 -28 15 -42 45 -42c51.333 0 114.333 50.333 189 151c4 5.33301 7.33301 8 10 8c1.33301 -0.666992 2 -1.66699 2 -3zM296 242.997
c0 10.667 -5.66797 16 -17.001 16c-17.333 0 -40 -12 -68 -36s-55.667 -55 -83 -93c46.667 12 86.334 29 119.001 51s49 42.667 49 62z" />
    <glyph glyph-name="f" unicode="f" horiz-adv-x="133" 
d="M422 503c0 -28.667 -20.5 -65.001 -61.5 -109.001s-94.833 -87 -161.5 -129h84l-4 -7h-85l-40 -78c-49.333 -96 -91.333 -168.333 -126 -217s-75 -92 -121 -130c-62.667 -52 -121 -78 -175 -78c-24 0 -36 3.33301 -36 10c0 3.33301 1.66699 5 5 5
c2.66699 0 4.66699 -0.333008 6 -1c11.333 -3.33301 22.333 -5 33 -5c44 0 88.333 19.667 133 59c27.333 24 51.333 52.333 72 85c16.667 26 56.667 97 120 213l75 137h-52l4 7h53c41.333 70.667 87.333 131.834 138 183.501s89.667 77.5 117 77.5
c14.667 0 22 -7.66699 22 -23zM416 503.999c0 10.667 -5.33105 15.998 -15.998 15.998c-24.667 0 -58.334 -28.333 -101.001 -85c-21.333 -28.667 -53.333 -82 -96 -160c53.333 36.667 102.166 78.834 146.499 126.501s66.5 81.834 66.5 102.501z" />
    <glyph glyph-name="g" unicode="g" horiz-adv-x="335" 
d="M425 153c0 -5.33301 -17.665 -27.668 -52.998 -67.001c-39.333 -43.333 -90.333 -82.333 -153 -117l-24 -44c-44.667 -82 -93.834 -144.667 -147.501 -188s-99.834 -65 -138.501 -65c-14 0 -25.5 4.16699 -34.5 12.5s-13.5 18.833 -13.5 31.5
c0 66.667 75.333 134.334 226 203.001c32.667 14.667 53.667 24.667 63 30l83 153c-36 -48 -61.5 -78.833 -76.5 -92.5s-30.167 -20.5 -45.5 -20.5c-17.333 0 -31.833 7.5 -43.5 22.5s-17.5 33.167 -17.5 54.5c0 56 36.667 107 110 153c49.333 30.667 88 46 116 46
c19.333 0 29 -10.667 29 -32c0 -6 -1.33301 -13 -4 -21l27 49c9.33301 -2 17 -3 23 -3c8.66699 0 21 1 37 3c-2 -2.66699 -16.333 -27 -43 -73l-121 -209c42.667 24 76.834 47.333 102.501 70s54.5 55 86.5 97c5.33301 6.66699 8.66602 10 9.99902 10
c1.33301 -0.666992 2 -1.66699 2 -3zM300.002 232.998c0 16.667 -8.00098 25 -24.001 25c-29.333 0 -68.166 -29.333 -116.499 -88s-72.5 -105.667 -72.5 -141c0 -22 9.33301 -33 28 -33c19.333 0 52 29 98 87c58 73.333 87 123.333 87 150zM145.001 -59.002
c-6 -3.33301 -24.333 -12.668 -55 -28.001c-148.667 -73.333 -223 -139.333 -223 -198c0 -10 3.83301 -18.5 11.5 -25.5s17.167 -10.5 28.5 -10.5c36 0 71 18.333 105 55s76.333 102.334 127 197.001z" />
    <glyph glyph-name="h" unicode="h" horiz-adv-x="313" 
d="M403 154c0 -2.66699 -1.66699 -5.66699 -5 -9l-21 -29c-61.333 -84.667 -107 -127 -137 -127c-15.333 0 -28 5.5 -38 16.5s-15 25.167 -15 42.5c0 22.667 12.333 52.334 37 89.001c38.667 57.333 58 91.333 58 102c0 12.667 -6.66699 19 -20 19
c-19.333 0 -45.666 -18.833 -78.999 -56.5s-78.333 -107.834 -135 -210.501c-10 2 -18.333 3 -25 3c-7.33301 0 -17 -1 -29 -3l72 130l45 82l99 168l74 126c10 -2 18.333 -3 25 -3c12.667 0 25 1.66699 37 5l-151 -244l-76 -126c61.333 90.667 109.666 136 144.999 136
c14 0 26 -6 36 -18s15 -26.667 15 -44c0 -22 -14.333 -54.333 -43 -97c-32 -47.333 -48 -77 -48 -89c0 -14 7 -21 21 -21c25.333 0 67.333 41 126 123l15 21l9 11c1.33301 3.33301 3.33301 5 6 5c1.33301 0 2 -0.666992 2 -2z" />
    <glyph glyph-name="i" unicode="i" horiz-adv-x="168" 
d="M251 355c0 -11.333 -4.83301 -22 -14.5 -32s-20.167 -15 -31.5 -15c-14.667 0 -22 7.33301 -22 22c0 10.667 5 21 15 31s20.667 15 32 15c14 0 21 -7 21 -21zM258 153c0 -1.33301 -1.66797 -4.00195 -5.00098 -8.00195l-21 -29c-61.333 -84.667 -108 -127 -140 -127
c-15.333 0 -28.166 5.33301 -38.499 16s-15.5 24.334 -15.5 41.001c0 18.667 11.333 47.334 34 86.001l76 129c10 -2 18 -3 24 -3c8.66699 0 21 1 37 3l-111 -182c-16 -26 -24 -46.333 -24 -61s7.66699 -22 23 -22c29.333 0 80.333 51.667 153 155c1.33301 3.33301 3 5 5 5
s3 -1 3 -3z" />
    <glyph glyph-name="j" unicode="j" horiz-adv-x="151" 
d="M256 354c0 -11.333 -4.83398 -21.668 -14.501 -31.001s-20.167 -14 -31.5 -14c-13.333 0 -20 7 -20 21c0 10.667 4.83301 20.834 14.5 30.501s19.834 14.5 30.501 14.5c14 0 21 -7 21 -21zM241.999 153.998c0 -4.66699 -18.3311 -27.6641 -54.998 -68.9971
s-87 -80 -151 -116l-25 -43c-50 -86.667 -99.667 -150 -149 -190c-52 -42.667 -96.667 -64 -134 -64c-33.333 0 -50 15.333 -50 46c0 37.333 25.333 75.666 76 114.999c27.333 21.333 50.666 37.666 69.999 48.999c30 16.667 75.667 38.334 137 65.001l7 3l85 152l92 159
c9.33301 -2 17 -3 23 -3c9.33301 0 21.333 1 36 3l-118 -200l-45 -82c42 23.333 76.167 46.666 102.5 69.999s55.166 55.666 86.499 96.999c4 6.66699 7.33301 10 10 10c1.33301 0 2 -0.666992 2 -2zM-35.999 -58.999c-92.667 -47.333 -151.667 -79.666 -177 -96.999
c-68 -46.667 -102 -89.334 -102 -128.001c0 -10.667 4 -19.5 12 -26.5s17.667 -10.5 29 -10.5c34 0 68 19 102 57c28 32 71.333 97 130 195z" />
    <glyph glyph-name="k" unicode="k" horiz-adv-x="301" 
d="M350 499l-87.999 -143.999l-84 -136c-28 -45.333 -51.667 -86.333 -71 -123c-22 -40.667 -39.667 -72.334 -53 -95.001l-6 -10c-8.66699 2 -17.334 3 -26.001 3c-7.33301 0 -18 -1 -32 -3l25 43l57 99c8 14.667 20.667 36.667 38 66l179 300
c13.333 -2.66699 23.333 -4 30 -4s17 1.33301 31 4zM392.001 153.001c0 -1.33301 -1.66895 -4.00098 -5.00195 -8.00098l-21 -29c-61.333 -84.667 -107.666 -127 -138.999 -127c-14 0 -26.333 4.66699 -37 14s-16 20 -16 32c0 10.667 9 34 27 70c6.66699 13.333 10 23 10 29
c0 7.33301 -5.33301 14 -16 20c-12.667 -5.33301 -23 -8 -31 -8c-11.333 0 -17 3.33301 -17 10c0 5.33301 5.33301 8 16 8s20.334 -1.66699 29.001 -5c16 7.33301 42 31.666 78 72.999c19.333 22 39 33 59 33c24.667 0 37 -11.667 37 -35
c0 -15.333 -6.16699 -30.833 -18.5 -46.5s-24.833 -23.5 -37.5 -23.5c-14 0 -21 6.33301 -21 19c0 12 10.667 24.667 32 38c8.66699 5.33301 13 13 13 23c0 8 -5 12 -15 12c-14 0 -31.667 -12.333 -53 -37c-26.667 -31.333 -48.667 -50.666 -66 -57.999
c34 -15.333 51 -33.333 51 -54c0 -11.333 -8 -33.333 -24 -66c-6.66699 -13.333 -10 -22.666 -10 -27.999c0 -8.66699 5.33301 -13 16 -13c30.667 0 80.667 51.667 150 155c2 3.33301 4 5 6 5s3 -1 3 -3z" />
    <glyph glyph-name="l" unicode="l" horiz-adv-x="160" 
d="M347 499c-136.667 -227.333 -216.334 -361 -239.001 -401s-34 -66.667 -34 -80c0 -14.667 6.33301 -22 19 -22c27.333 0 77.333 51.667 150 155c1.33301 3.33301 3.33301 5 6 5c1.33301 -0.666992 2 -1.66699 2 -3c0 -2 -1.66699 -4.66699 -5 -8l-21 -29
c-61.333 -84.667 -106.666 -127 -135.999 -127c-14 0 -25.5 5.16699 -34.5 15.5s-13.5 23.833 -13.5 40.5c0 18 4.16699 35.333 12.5 52s36.5 65 84.5 145c59.333 98 109 183 149 255c10 -2.66699 18.667 -4 26 -4c12 0 23.333 2 34 6z" />
    <glyph glyph-name="m" unicode="m" horiz-adv-x="544" 
d="M634 153c0 -1.33301 -1.66992 -3.99902 -5.00293 -7.99902l-21 -29c-61.333 -84.667 -106.666 -127 -135.999 -127c-15.333 0 -27.833 5.66699 -37.5 17s-14.5 26 -14.5 44c0 14.667 3 28.167 9 40.5s21 35.833 45 70.5c27.333 39.333 41 65 41 77
c0 13.333 -6.66699 20 -20 20c-42.667 0 -116.334 -88.333 -221.001 -265c-6.66699 1.33301 -15.667 2 -27 2c-13.333 0 -24.666 -0.666992 -33.999 -2l69 110c45.333 72 68 116.333 68 133c0 14.667 -6 22 -18 22c-18 0 -47.333 -25.833 -88 -77.5
s-81 -114.167 -121 -187.5c-7.33301 1.33301 -17 2 -29 2c-12.667 0 -23.667 -0.666992 -33 -2l70 110c48 75.333 72 122 72 140c0 10 -3.66699 15 -11 15c-16 0 -49 -35 -99 -105c-3.33301 -4.66699 -6 -7 -8 -7c-1.33301 0.666992 -2 1.66699 -2 3
c0 3.33301 14.833 23.5 44.5 60.5s52.5 55.5 68.5 55.5c10.667 0 19.667 -5 27 -15s11 -21.667 11 -35c0 -18.667 -9.66699 -45 -29 -79c58.667 86 102.334 129 131.001 129c13.333 0 24.5 -5.5 33.5 -16.5s13.5 -24.833 13.5 -41.5c0 -18.667 -8.66699 -42.334 -26 -71.001
c62 86 108.333 129 139 129c14 0 25.833 -6 35.5 -18s14.5 -26.667 14.5 -44c0 -15.333 -3.66699 -30.5 -11 -45.5s-25.666 -44.167 -54.999 -87.5c-16 -24 -24 -42 -24 -54c0 -13.333 6.66699 -20 20 -20c25.333 0 67.333 41 126 123l15 21l9 11c1.33301 3.33301 3 5 5 5
s3 -1 3 -3z" />
    <glyph glyph-name="n" unicode="n" horiz-adv-x="391" 
d="M482 153c0 -6.66699 -23.6699 -38.3311 -71.0029 -94.998c-38.667 -46 -69 -69 -91 -69c-14.667 0 -27 5.66699 -37 17s-15 25.333 -15 42c0 14.667 3 28.167 9 40.5s22 37.666 48 75.999s39 62.833 39 73.5c0 13.333 -7 20 -21 20
c-47.333 0 -120.666 -88.333 -219.999 -265c-16 1.33301 -25.667 2 -29 2c-11.333 0 -22 -0.666992 -32 -2l76 121c43.333 68.667 65 111.667 65 129c0 10 -4 15 -12 15c-16.667 0 -49.334 -35 -98.001 -105c-3.33301 -4 -5.66602 -6.33301 -6.99902 -7c-2 0 -3 1 -3 3
c0 1.33301 0.666992 2.66602 2 3.99902l9 12c50 66.667 83.667 100 101 100c10.667 0 20 -5 28 -15s12 -22 12 -36c0 -20.667 -12.333 -49.667 -37 -87c38.667 52.667 68.334 88.834 89.001 108.501s39.667 29.5 57 29.5c14.667 0 26.834 -5.83301 36.501 -17.5
s14.5 -26.167 14.5 -43.5c0 -21.333 -15.167 -54.833 -45.5 -100.5s-45.5 -74.834 -45.5 -87.501c0 -13.333 6.66699 -20 20 -20c29.333 0 79.333 51.667 150 155c1.33301 3.33301 3 5 5 5s3 -1 3 -3z" />
    <glyph glyph-name="o" unicode="o" horiz-adv-x="290" 
d="M380 154c0 -5.33301 -9.66699 -17.667 -29 -37c-28.667 -28.667 -55 -43 -79 -43c-10 0 -19 2 -27 6c-42.667 -60.667 -83 -91 -121 -91c-19.333 0 -36 8 -50 24s-21 35.333 -21 58c0 50 33 98.333 99 145c46 32.667 84 49 114 49c28 0 42 -15 42 -45
c0 -37.333 -19.667 -82.333 -59 -135c6.66699 -4 14 -6 22 -6c14.667 0 31.667 6.83301 51 20.5s35.333 30.167 48 49.5c4 4.66699 6.66699 7 8 7s2 -0.666992 2 -2zM301 218.999c0 26.667 -11.999 40.001 -35.999 40.001c-29.333 0 -65.333 -28.333 -108 -85
s-64 -104.334 -64 -143.001c0 -22.667 10.667 -34 32 -34c35.333 0 73.666 29 114.999 87c-9.33301 10 -14 20.667 -14 32c0 16 6.33301 32.5 19 49.5s25 25.5 37 25.5c5.33301 0 9 -3.33301 11 -10c5.33301 11.333 8 24 8 38z" />
    <glyph glyph-name="p" unicode="p" horiz-adv-x="265" 
d="M323 187c0 -53.333 -33.002 -101.667 -99.002 -145c-53.333 -35.333 -95.333 -53 -126 -53c-20.667 0 -31 9.66699 -31 29c0 6 1.66699 14 5 24l-187 -312c-11.333 2.66699 -20.666 4 -27.999 4c-10.667 0 -21.334 -2 -32.001 -6l401 659
c8.66699 -2.66699 17.334 -4 26.001 -4s19.334 1.33301 32.001 4l-145 -234c34.667 46 60 76.167 76 90.5s31.667 21.5 47 21.5c17.333 0 31.833 -7.5 43.5 -22.5s17.5 -33.5 17.5 -55.5zM286.998 225.999c0 21.333 -9.33301 32 -28 32c-24 0 -64 -38.333 -120 -115
c-43.333 -59.333 -65 -100 -65 -122c0 -16.667 7.66699 -25 23 -25c30 0 69.167 29.167 117.5 87.5s72.5 105.833 72.5 142.5z" />
    <glyph glyph-name="q" unicode="q" horiz-adv-x="289" 
d="M386 262l-157 -259l-137 -229l-25 -40c-10.667 2.66699 -21 4 -31 4c-10.667 0 -21 -1.33301 -31 -4l229 367c-1.33301 -2 -7.66602 -10.333 -18.999 -25c-43.333 -58 -78.333 -87 -105 -87c-16.667 0 -30.834 7.5 -42.501 22.5s-17.5 33.5 -17.5 55.5
c0 52 33.333 100.333 100 145c53.333 35.333 95.333 53 126 53c20 0 30 -9.66699 30 -29c0 -6.66699 -2.33301 -16 -7 -28l29 53c6 -1.33301 13.667 -2 23 -2c7.33301 0 19 1 35 3zM299 234c0 16 -7.33398 24 -22.001 24c-29.333 0 -68.333 -29.333 -117 -88
s-73 -106 -73 -142c0 -21.333 9.33301 -32 28 -32c22.667 0 61.334 36.667 116.001 110c45.333 61.333 68 104 68 128z" />
    <glyph glyph-name="r" unicode="r" horiz-adv-x="278" 
d="M369 153c0 -2.66699 -9.66504 -14.667 -28.998 -36c-24.667 -27.333 -48 -41 -70 -41c-24.667 0 -37 14.333 -37 43c0 9.33301 2 21 6 35c-20.667 -18 -37.334 -35.833 -50.001 -53.5s-35 -53.5 -67 -107.5c-17.333 1.33301 -27.333 2 -30 2
c-1.33301 0 -11.333 -0.666992 -30 -2l80 130c40 65.333 60 105.666 60 120.999c0 9.33301 -3.66699 14 -11 14c-18 0 -51 -35 -99 -105c-3.33301 -4.66699 -6 -7 -8 -7c-1.33301 0.666992 -2 1.66699 -2 3s0.666992 2.66602 2 3.99902l9 12c50 66.667 84 100 102 100
c26 0 39 -16.667 39 -50c0 -25.333 -13.333 -58.666 -40 -99.999c16.667 19.333 32.667 35.333 48 48c12.667 28.667 28.167 52.834 46.5 72.501s34.833 29.5 49.5 29.5c10 0 15 -4.33301 15 -13c0 -15.333 -22.667 -37.666 -68 -66.999
c-6.66699 -4.66699 -17.334 -11.334 -32.001 -20.001l-6 -5c-4.66699 -14.667 -7 -27 -7 -37c0 -27.333 10.333 -41 31 -41c25.333 0 53 21 83 63c6.66699 7.33301 10.667 11 12 11c2 0 3 -1 3 -3z" />
    <glyph glyph-name="s" unicode="s" horiz-adv-x="195" 
d="M256 343c0 -13.333 -20.333 -39.335 -61 -78.002c-2 -10 -3 -18.667 -3 -26c0 -19.333 8.66699 -49.333 26 -90c8.66699 -20.667 13 -38 13 -52c0 -29.333 -14.333 -54.666 -43 -75.999s-62.334 -32 -101.001 -32c-22 0 -39.667 6.33301 -53 19s-20 29.334 -20 50.001
c0 24.667 8.66699 48.5 26 71.5s35.333 34.5 54 34.5c3.33301 0 6.33301 -0.666992 9 -2l39 48c12 14 27.667 33.333 47 58c5.33301 22.667 13.833 42.167 25.5 58.5s22.834 24.5 33.501 24.5c5.33301 0 8 -2.66699 8 -8zM188 149.998
c0 9.33301 -0.333008 18.8311 -1 28.498s-1 23.5 -1 41.5c0 14.667 0.666992 27 2 37l-79 -98c6 -5.33301 9 -11.666 9 -18.999c0 -19.333 -15.667 -32.333 -47 -39c-12.667 -2.66699 -23.667 -9.5 -33 -20.5s-14 -22.5 -14 -34.5c0 -13.333 4.66699 -24.333 14 -33
s21 -13 35 -13c27.333 0 53.333 15.833 78 47.5s37 65.834 37 102.501z" />
    <glyph glyph-name="t" unicode="t" horiz-adv-x="165" 
d="M271 265l-4.00098 -6.99902h-64l-109 -186c-13.333 -22.667 -20 -40.667 -20 -54c0 -14.667 7.66699 -22 23 -22c30 0 80 51.667 150 155c2 3.33301 4 5 6 5s3 -1 3 -3c0 -1.33301 -1.66699 -4 -5 -8l-21 -29c-61.333 -84.667 -107.333 -127 -138 -127
c-15.333 0 -28.166 5.5 -38.499 16.5s-15.5 24.833 -15.5 41.5c0 19.333 8.66699 43.666 26 72.999l82 138h-50l5 7h49l57 95c10 -2.66699 19.333 -4 28 -4s18 1.33301 28 4l-56 -95h64z" />
    <glyph glyph-name="u" unicode="u" horiz-adv-x="313" 
d="M404 153c0 -7.33301 -23.668 -39.001 -71.001 -95.001c-39.333 -46 -70.333 -69 -93 -69c-14 0 -26 5.66699 -36 17s-15 25.333 -15 42c0 12.667 6.33301 30.334 19 53.001l-10 -13c-30 -38.667 -51.667 -64.334 -65 -77.001c-16 -14.667 -30.667 -22 -44 -22
c-14.667 0 -26.834 5.5 -36.501 16.5s-14.5 24.833 -14.5 41.5c0 18.667 7.33301 40.334 22 65.001l89 149c11.333 -2 20 -3 26 -3s17 1 33 3l-116 -191c-12 -20 -18 -37.333 -18 -52s6.33301 -22 19 -22c32.667 0 85.334 61.333 158.001 184l48 81c10 -2 18.333 -3 25 -3
c8.66699 0 20.334 1 35.001 3l-78 -127c-37.333 -60.667 -56 -99.667 -56 -117c0 -14 6.66699 -21 20 -21c26 0 68.333 41 127 123l15 21l9 11c1.33301 3.33301 3 5 5 5s3 -1 3 -3z" />
    <glyph glyph-name="v" unicode="v" horiz-adv-x="273" 
d="M364 154c0 -4 -10.334 -16.667 -31.001 -38c-28 -29.333 -52.667 -44 -74 -44c-14.667 0 -26.667 7.66699 -36 23c-28.667 -40 -52.167 -67.667 -70.5 -83s-36.833 -23 -55.5 -23c-16.667 0 -30.667 5.66699 -42 17s-17 25.333 -17 42c0 19.333 11 47.333 33 84l77 129
c16 -1.33301 26.667 -2 32 -2c12 0 21.667 0.666992 29 2l-102 -165c-22.667 -37.333 -34 -63 -34 -77c0 -15.333 8.66699 -23 26 -23c16 0 32.333 7.33301 49 22s40.667 42.334 72 83.001c-2.66699 10 -4 18.667 -4 26c0 29.333 9 59.666 27 90.999s35.667 47 53 47
c8 0 12 -4.66699 12 -14c0 -24 -27 -74.333 -81 -151c6.66699 -14.667 17.334 -22 32.001 -22c24.667 0 54.667 22 90 66c6.66699 8 11 12 13 12c1.33301 0 2 -0.666992 2 -2z" />
    <glyph glyph-name="w" unicode="w" horiz-adv-x="424" 
d="M515 154c0 -4 -10.3311 -16.668 -30.998 -38.001c-28 -29.333 -52.667 -44 -74 -44c-14 0 -26 7.66699 -36 23c-28.667 -40 -52.167 -67.667 -70.5 -83s-36.833 -23 -55.5 -23c-16.667 0 -30.5 5.5 -41.5 16.5s-16.5 24.833 -16.5 41.5
c0 13.333 4.33301 29.666 13 48.999c-48.667 -71.333 -87 -107 -115 -107c-14 0 -25.833 5.66699 -35.5 17s-14.5 25 -14.5 41c0 18.667 9.66699 44.334 29 77.001l81 137c13.333 -2 23 -3 29 -3c5.33301 0 16 1 32 3l-111 -181c-17.333 -28 -26 -48.667 -26 -62
c0 -14.667 6.66699 -22 20 -22c14.667 0 36.5 16.333 65.5 49s57.833 73.334 86.5 122.001l55 94c17.333 -1.33301 28.333 -2 33 -2c11.333 0 20.666 0.666992 27.999 2l-102 -165c-22.667 -36.667 -34 -62 -34 -76c0 -16 8.33301 -24 25 -24
c33.333 0 73.666 35 120.999 105c-2 12 -3 21 -3 27c0 29.333 9.16699 59.5 27.5 90.5s35.833 46.5 52.5 46.5c7.33301 0 11 -5 11 -15c0 -27.333 -26.667 -77.333 -80 -150c8 -14.667 18.667 -22 32 -22c24.667 0 54.667 22 90 66c6.66699 8 11 12 13 12
c1.33301 0 2 -0.666992 2 -2z" />
    <glyph glyph-name="x" unicode="x" horiz-adv-x="348" 
d="M438 153l-1.99609 -4l-6 -8c-42.667 -56.667 -75.834 -96.167 -99.501 -118.5s-45.5 -33.5 -65.5 -33.5c-19.333 0 -36.333 7.5 -51 22.5s-22 32.5 -22 52.5c0 8.66699 2.33301 21 7 37c-44 -74.667 -82.667 -112 -116 -112c-10.667 0 -19.5 4 -26.5 12
s-10.5 17.667 -10.5 29c0 16.667 6 32.167 18 46.5s25 21.5 39 21.5c17.333 0 26 -8.33301 26 -25c0 -18.667 -13.333 -31.667 -40 -39c-14.667 -4 -22 -11.333 -22 -22c0 -10 6 -15 18 -15c24 0 51.667 22 83 66c49.333 69.333 74 124.333 74 165c0 20 -9 30 -27 30
c-30.667 0 -70.334 -33.667 -119.001 -101c-5.33301 -7.33301 -9 -11 -11 -11c-1.33301 0.666992 -2 1.66699 -2 3c0 6 16.167 26.833 48.5 62.5s61.166 53.5 86.499 53.5c19.333 0 35.333 -6.66699 48 -20s19 -30 19 -50c0 -10 -2.33301 -21 -7 -33
c44.667 68.667 83.334 103 116.001 103c24.667 0 37 -13.333 37 -40c0 -16 -5.33301 -30.833 -16 -44.5s-22.334 -20.5 -35.001 -20.5c-16 0 -24 8.33301 -24 25c0 16 11.667 27.333 35 34c14.667 4.66699 22 12.334 22 23.001s-6.66699 16 -20 16
c-27.333 0 -60.833 -27.833 -100.5 -83.5s-59.5 -102.834 -59.5 -141.501c0 -24.667 11.667 -37 35 -37c34 0 86.333 49.667 157 149c5.33301 7.33301 8.66602 11 9.99902 11c2 0 3 -1 3 -3z" />
    <glyph glyph-name="y" unicode="y" horiz-adv-x="308" 
d="M398 153c0 -5.33301 -18.001 -27.667 -54.001 -67c-39.333 -43.333 -91 -82.666 -155 -117.999l-24 -43c-47.333 -84.667 -96.666 -147.667 -147.999 -189c-53.333 -42.667 -99.333 -64 -138 -64c-13.333 0 -24.5 4.16699 -33.5 12.5s-13.5 18.833 -13.5 31.5
c0 65.333 75.333 133 226 203l56 26l7 4l86 153c-34 -46.667 -58.667 -77.167 -74 -91.5s-30.666 -21.5 -45.999 -21.5c-13.333 0 -25 5.66699 -35 17s-15 24.666 -15 39.999c0 18.667 11.667 47.667 35 87l75 127c7.33301 -1.33301 16 -2 26 -2
c8.66699 0 20.334 1 35.001 3l-96 -156c-27.333 -44.667 -41 -73.667 -41 -87c0 -14.667 6.66699 -22 20 -22c35.333 0 89.333 62.333 162 187l45 77c7.33301 -1.33301 16.333 -2 27 -2c9.33301 0 20.333 1 33 3c-40.667 -64 -95.334 -158 -164.001 -282
c39.333 20.667 72.666 43 99.999 67s58 57.667 92 101c4.66699 6 7.66699 9 9 9c2 0 3 -1 3 -3zM115.999 -59.001l-55 -28c-148 -73.333 -222 -139.333 -222 -198c0 -24.667 13.667 -37 41 -37c34.667 0 69 18.833 103 56.5s76.333 103.167 127 196.5z" />
    <glyph glyph-name="z" unicode="z" horiz-adv-x="279" 
d="M384 260c0 -10.667 -14.9961 -24.667 -44.9961 -42c-33.333 -28 -89.666 -72 -168.999 -132l-41 -31l14 1c15.333 1.33301 29.166 -3.83398 41.499 -15.501s20.166 -26.834 23.499 -45.501c18.667 10.667 44.5 32.5 77.5 65.5s57.5 61.833 73.5 86.5c4 6 7 9 9 9
c1.33301 0 2 -0.666992 2 -2c0 -6.66699 -18 -30 -54 -70s-71.667 -72.333 -107 -97v-13c0 -36 -12.833 -74.5 -38.5 -115.5s-57.5 -74.167 -95.5 -99.5c-82.667 -54.667 -148.667 -82 -198 -82c-38 0 -57 15.333 -57 46c0 36 26 73.667 78 113
c27.333 20.667 97.333 55.667 210 105c22 10 42.667 20.333 62 31c5.33301 14.667 8 28.334 8 41.001c0 24.667 -13 37 -39 37c-7.33301 0 -13 -0.333008 -17 -1l-7 -6l-18 -17c-30.667 -28.667 -50.334 -43 -59.001 -43c-8 0 -12 3.66699 -12 11
c0 20.667 30 40.334 90 59.001l208 161l-10 -7c-18 -12.667 -34.667 -19 -50 -19c-10.667 0 -24 6.66699 -40 20s-29 20 -39 20c-20 0 -50.333 -25.333 -91 -76c-4 -4 -6.66699 -6 -8 -6c-1.33301 0.666992 -2 1.66699 -2 3c0 5.33301 15 24 45 56
c36 38.667 66.667 58 92 58c10 0 31.667 -10.667 65 -32c11.333 -7.33301 21.666 -11 30.999 -11c4.66699 0 9.66699 1.33301 15 4l6 8l16 20c7.33301 9.33301 14.666 14 21.999 14c5.33301 0 8 -2 8 -6zM167.004 -36c-8 -4.66699 -54.334 -26.666 -139.001 -65.999
c-62.667 -28.667 -112 -58.834 -148 -90.501s-54 -60.5 -54 -86.5c0 -25.333 16.667 -38 50 -38c46.667 0 100.334 29.333 161.001 88s104 123 130 193z" />
    <glyph glyph-name="braceleft" unicode="{" horiz-adv-x="266" 
d="M338 -117c0 -51.333 -31.498 -98.3311 -94.498 -140.998s-131.833 -64 -206.5 -64c-48 0 -110.333 15.333 -187 46c-32.667 13.333 -56.334 22 -71.001 26c-25.333 -9.33301 -49.666 -14 -72.999 -14s-35 2.66699 -35 8c0 10 19.333 15 58 15
c12.667 0 28.667 -1.33301 48 -4c31.333 13.333 60.666 34.666 87.999 63.999s60 75.333 98 138l267 436c6.66699 -3.33301 14 -5 22 -5c10 0 21 1.66699 33 5l-145 -235c35.333 46 60.833 76.167 76.5 90.5s31.5 21.5 47.5 21.5c16.667 0 30.834 -7.5 42.501 -22.5
s17.5 -33.167 17.5 -54.5c0 -53.333 -33 -102 -99 -146c-52 -34.667 -93.667 -52 -125 -52c-21.333 0 -32 9.66699 -32 29c0 5.33301 1.66699 13.333 5 24c-60.667 -102.667 -108.167 -171.667 -142.5 -207s-82.833 -64.666 -145.5 -87.999
c13.333 -2.66699 35 -8.66699 65 -18c85.333 -26.667 157 -40 215 -40c69.333 0 128.666 17.667 177.999 53s74 78 74 128c0 27.333 -9.33301 49.666 -28 66.999s-43 26 -73 26c-42.667 0 -81 -13.5 -115 -40.5s-51 -57.5 -51 -91.5c0 -20.667 7.66699 -37 23 -49
s36 -18 62 -18c35.333 0 62.666 10.667 81.999 32c1.33301 1.33301 2.33301 2 3 2c1.33301 0 2 -0.666992 2 -2c0 -8.66699 -9.66699 -17.334 -29 -26.001s-38.333 -13 -57 -13c-28 0 -51.5 7 -70.5 21s-28.5 31.333 -28.5 52c0 35.333 19.333 67.333 58 96s82 43 130 43
c33.333 0 60.5 -8.66699 81.5 -26s31.5 -39.333 31.5 -66zM288.002 231.002c0 21.333 -9.33301 32 -28 32c-24.667 0 -64.667 -38 -120 -114c-43.333 -59.333 -65 -100 -65 -122c0 -16.667 7.66699 -25 23 -25c30 0 69.167 29.167 117.5 87.5s72.5 105.5 72.5 141.5z" />
    <glyph glyph-name="bar" unicode="|" horiz-adv-x="500" 
d="M419 -167h-19v834h19v-834z" />
    <glyph glyph-name="braceright" unicode="}" horiz-adv-x="291" 
d="M516 -124c0 -50.667 -31.499 -97.499 -94.499 -140.499s-131.833 -64.5 -206.5 -64.5c-50 0 -112.333 15.333 -187 46c-28.667 12 -52.334 20.667 -71.001 26c-25.333 -9.33301 -49.666 -14 -72.999 -14s-35 2.66699 -35 8c0 10 19 15 57 15
c11.333 0 27.666 -1.33301 48.999 -4c32 14 61.5 35.5 88.5 64.5s59.5 74.833 97.5 137.5l98 162c-37.333 -49.333 -63.666 -81.166 -78.999 -95.499s-31.333 -21.5 -48 -21.5c-17.333 0 -31.5 7.33301 -42.5 22s-16.5 33.334 -16.5 56.001
c0 53.333 32.667 101.666 98 144.999c52.667 34.667 95 52 127 52c19.333 0 29 -9.66699 29 -29c0 -8.66699 -5 -23.667 -15 -45l37 71c6 -1.33301 13.667 -2 23 -2c14 0 26 0.666992 36 2l-138 -227l-20 -34c-44.667 -80.667 -85.167 -138.5 -121.5 -173.5
s-84.833 -63.833 -145.5 -86.5c8 -2 29.667 -8 65 -18c84.667 -26 156.334 -39 215.001 -39c69.333 0 128.666 17.667 177.999 53s74 77.666 74 126.999c0 27.333 -9.33301 49.666 -28 66.999s-43 26 -73 26c-42.667 0 -81 -13.667 -115 -41s-51 -57.666 -51 -90.999
c0 -20.667 7.66699 -37 23 -49s36 -18 62 -18c35.333 0 62.666 10.667 81.999 32c1.33301 1.33301 2.33301 2 3 2c1.33301 0 2 -0.666992 2 -2c0 -8.66699 -9.66699 -17.334 -29 -26.001s-38.333 -13 -57 -13c-28 0 -51.5 7 -70.5 21s-28.5 31.333 -28.5 52
c0 35.333 19.333 67.333 58 96s82 43 130 43c33.333 0 60.5 -8.66699 81.5 -26s31.5 -39.333 31.5 -66zM300.001 240.001c0 15.333 -7.33301 23 -22 23c-29.333 0 -68.333 -29.167 -117 -87.5s-73 -105.5 -73 -141.5c0 -21.333 9.33301 -32 28 -32
c23.333 0 62 36.667 116 110c45.333 61.333 68 104 68 128z" />
    <glyph glyph-name="asciitilde" unicode="~" horiz-adv-x="308" 
d="M607 515c0 -56 -35.834 -108.668 -107.501 -158.001s-148.167 -74 -229.5 -74c-20 0 -37.667 2 -53 6l-96 -155c62.667 91.333 111 137 145 137c14.667 0 26.834 -6.16699 36.501 -18.5s14.5 -27.166 14.5 -44.499c0 -14.667 -3.5 -28.834 -10.5 -42.501
s-25.167 -42.167 -54.5 -85.5c-18 -26.667 -27 -46.334 -27 -59.001s6 -19 18 -19c26 0 76.667 52 152 156c3.33301 4.66699 5.66602 7 6.99902 7c2 0 3 -1 3 -3s-2 -5.66699 -6 -11c-1.33301 -2 -11 -14.667 -29 -38c-36 -47.333 -62.667 -78.833 -80 -94.5
s-33.666 -23.5 -48.999 -23.5s-27.833 5.33301 -37.5 16s-14.5 24.334 -14.5 41.001c0 23.333 12.667 53.333 38 90c38 54.667 57 89 57 103c0 12.667 -6.33301 19 -19 19c-45.333 0 -117.666 -89.333 -216.999 -268c-8 2 -18.333 3 -31 3c-8.66699 0 -16.334 -1 -23.001 -3
l43 78c30.667 56.667 59.667 107.334 87 152.001l47 77c-46 25.333 -69 56.333 -69 93c0 44.667 24 85.167 72 121.5s101.667 54.5 161 54.5c36 0 64.333 -5.66699 85 -17c44 24 81 36 111 36c50.667 0 76 -25.333 76 -76zM589.999 528.999c0 36.667 -18.666 55 -55.999 55
c-27.333 0 -60.666 -12 -99.999 -36c34 -23.333 51 -50 51 -80c0 -13.333 -4.33301 -29 -13 -47s-16.334 -27 -23.001 -27c-1.33301 0.666992 -2 1.66699 -2 3s2.33301 4.33301 7 9c16 16.667 24 37.334 24 62.001c0 31.333 -16.667 56.666 -50 75.999
c-34 -26.667 -65.333 -57.167 -94 -91.5s-66.334 -86.833 -113.001 -157.5c16.667 -3.33301 34 -5 52 -5c73.333 0 144.5 26 213.5 78s103.5 105.667 103.5 161zM413 550.999c-16.667 9.33301 -42.333 13.999 -77 13.999c-54 0 -104.333 -18.5 -151 -55.5
s-70 -77.167 -70 -120.5c0 -36 20 -62.667 60 -80c76.667 120.667 156 201.334 238 242.001z" />
    <glyph glyph-name="nonbreakingspace" unicode="&#xa0;" horiz-adv-x="177" 
 />
    <glyph glyph-name="exclamdown" unicode="&#xa1;" horiz-adv-x="287" 
d="M452 543c0 -13.333 -7 -26.667 -21 -40s-28 -20 -42 -20c-12.667 0 -19 6.66699 -19 20c0 14.667 6.66699 28.667 20 42s27 20 41 20s21 -7.33301 21 -22zM372 449.999c0 -1.33301 -1.99902 -5.00098 -5.99902 -11.001c-30.667 -44.667 -84.334 -154.667 -161.001 -330
c-18.667 -43.333 -34.5 -73.333 -47.5 -90s-26.833 -25 -41.5 -25c-19.333 0 -29 9.66699 -29 29c0 10 6 24.5 18 43.5s43.333 63.5 94 133.5c80.667 110.667 134.667 193.334 162 248.001c2 4 4.33301 6 7 6s4 -1.33301 4 -4z" />
    <glyph glyph-name="cent" unicode="&#xa2;" 
d="M534 491c0 -2.66699 -1 -5.66699 -3 -9l-66 -108c28 -5.33301 42 -20.333 42 -45c0 -22.667 -10.167 -42.834 -30.5 -60.501s-43.5 -26.5 -69.5 -26.5c-25.333 0 -38 11.667 -38 35c0 10.667 2.33301 16 7 16c1.33301 -0.666992 2 -1.66699 2 -3l-1 -3l-1 -9
c0 -17.333 8.33301 -26 25 -26c17.333 0 36 10.833 56 32.5s30 41.834 30 60.501c0 15.333 -8.66699 23 -26 23c-30.667 0 -67.334 -26 -110.001 -78s-64 -96.667 -64 -134c0 -28 13.667 -42 41 -42c42.667 0 85.667 32.667 129 98c2 3.33301 3.66699 5.33301 5 6
c2.66699 0 4 -1.33301 4 -4c0 -3.33301 -6 -12.833 -18 -28.5s-23.333 -28.5 -34 -38.5c-28.667 -26.667 -58 -40 -88 -40c-5.33301 0 -10.666 0.666992 -15.999 2l-86 -149c-2.66699 -4 -5 -6 -7 -6c-3.33301 0 -5 1.66699 -5 5c0 2.66699 1.66699 6 5 10l85 142
c-36 15.333 -54 41.333 -54 78c0 40.667 22 80.667 66 120s91 61.333 141 66l65 111c3.33301 6 6.33301 9 9 9c3.33301 0 5 -1.33301 5 -4z" />
    <glyph glyph-name="sterling" unicode="&#xa3;" 
d="M720 467c0 -12 -5.66699 -18.001 -17 -18.001s-21 8 -29 24c-4.66699 10 -11.667 15 -21 15c-22.667 0 -49.167 -12.833 -79.5 -38.5s-68.5 -74.5 -114.5 -146.5h86l-4 -8h-86c-37.333 -65.333 -69.666 -114 -96.999 -146s-62 -62.333 -104 -91
c58 -27.333 107 -41 147 -41c28.667 0 53.167 5.83301 73.5 17.5s30.5 25.834 30.5 42.501c0 14 -7.33301 22 -22 24c4 22 16.667 33 38 33c12.667 0 23.167 -4.66699 31.5 -14s12.5 -21.333 12.5 -36c0 -24.667 -11 -45 -33 -61s-50 -24 -84 -24
c-54 0 -120.667 18.333 -200 55c-58 -37.333 -109.333 -56 -154 -56c-23.333 0 -42.833 5.33301 -58.5 16s-23.5 24.334 -23.5 41.001c0 16 7.83301 29.167 23.5 39.5s35.834 15.5 60.501 15.5c27.333 0 74.666 -15 141.999 -45c29.333 28 77 97.333 143 208
c3.33301 5.33301 7.66602 12.666 12.999 21.999h-85l4 8h86c82 128.667 172 193 270 193c34 0 51 -9.66699 51 -29zM233 60.999c-59.333 29.333 -105.667 44 -139 44c-20.667 0 -37.834 -4.66699 -51.501 -14s-20.5 -21.333 -20.5 -36s7 -26.667 21 -36s31.667 -14 53 -14
c50.667 0 96.334 18.667 137.001 56z" />
    <glyph glyph-name="currency" unicode="&#xa4;" horiz-adv-x="298" 
d="M608 517c0 -56.667 -35.6689 -109.831 -107.002 -159.498s-147.666 -74.5 -228.999 -74.5c-20 0 -38 2 -54 6l-37 -64l-76 -126c-14 -22.667 -30 -53.667 -48 -93l-6 -10c-8 2 -16.333 3 -25 3s-19.667 -1 -33 -3l25 43l57 100c8.66699 16 21.334 37.667 38.001 65l59 99
c-46 22 -69 52.667 -69 92c0 45.333 24 86.166 72 122.499s101.667 54.5 161 54.5c31.333 0 59.666 -5.66699 84.999 -17c46.667 24.667 84.334 37 113.001 37c22.667 0 40.667 -6.83301 54 -20.5s20 -31.834 20 -54.501zM394.998 162.003
c0 -4.66699 -15.834 -26.8301 -47.501 -66.4971s-55.667 -66.334 -72 -80.001s-31.833 -20.5 -46.5 -20.5c-13.333 0 -25.333 4.66699 -36 14s-16 20 -16 32c0 10 9 33.333 27 70c6.66699 13.333 10 22.666 10 27.999c0 8 -5.33301 15 -16 21c-12 -6 -22.333 -9 -31 -9
c-11.333 0 -17 3.33301 -17 10c0 6 5.33301 9 16 9s20.334 -1.66699 29.001 -5c15.333 6 41.333 30 78 72c19.333 22 38.666 33 57.999 33c25.333 0 38 -11.333 38 -34c0 -16 -6.16699 -31.667 -18.5 -47s-24.833 -23 -37.5 -23c-14 0 -21 6.33301 -21 19
c0 11.333 10.667 23.666 32 36.999c8.66699 5.33301 13 13 13 23c0 8 -5 12 -15 12c-14 0 -31.667 -12.333 -53 -37c-26.667 -30.667 -48.667 -49.667 -66 -57c34 -14 51 -32 51 -54c0 -12.667 -8 -34.667 -24 -66c-6.66699 -13.333 -10 -22.333 -10 -27
c0 -8.66699 4.33301 -13 13 -13c14 0 31.333 10.5 52 31.5s53.334 61.5 98.001 121.5c4.66699 6 7.66699 9 9 9c2 -0.666992 3 -1.66699 3 -3zM590.997 528.007c0 38 -18.3311 57.001 -54.998 57.001c-30.667 0 -64.334 -12.333 -101.001 -37
c34 -22.667 51 -49.334 51 -80.001c0 -13.333 -4.33301 -29 -13 -47s-16.334 -27 -23.001 -27c-1.33301 0.666992 -2 1.66699 -2 3c0 0.666992 0.333008 1.66699 1 3c20 22 30 44.667 30 68c0 28.667 -16.333 54 -49 76c-56 -37.333 -125.333 -120.333 -208 -249
c16.667 -3.33301 34 -5 52 -5c72.667 0 143.667 26 213 78s104 105.333 104 160zM413.999 551.008c-22.667 9.33301 -47.332 13.999 -73.999 13.999c-55.333 0 -106.5 -18.333 -153.5 -55s-70.5 -76.667 -70.5 -120c0 -37.333 20 -64.333 60 -81
c75.333 118.667 154.666 199.334 237.999 242.001z" />
    <glyph glyph-name="yen" unicode="&#xa5;" 
d="M720 517c0 -4 -7.33398 -6.33203 -22.001 -6.99902c-64 -2.66699 -146.333 -76.667 -247 -222h129l-6 -9h-129l-37 -55h154l-6 -9h-154c-31.333 -49.333 -75 -127.666 -131 -234.999c-12.667 4 -23.667 6 -33 6c-10.667 0 -22 -2 -34 -6l133 235h-115l5 9h115
c8 15.333 18.333 33.666 31 54.999h-133l5 9h133c52.667 96.667 79 157.667 79 183c0 27.333 -21 41 -63 41s-79.667 -13 -113 -39s-50 -55.333 -50 -88c0 -28.667 17 -43 51 -43c15.333 0 31.833 5 49.5 15s31.834 22.333 42.501 37c0.666992 2 2 3 4 3
c1.33301 -0.666992 2 -1.66699 2 -3c0 -2 -6 -9 -18 -21c-25.333 -24.667 -52.666 -37 -81.999 -37c-18.667 0 -34 5.16699 -46 15.5s-18 23.833 -18 40.5c0 31.333 18.167 60.166 54.5 86.499s76.5 39.5 120.5 39.5c56.667 0 85 -24 85 -72
c0 -42 -17.667 -101.333 -53 -178l-6 -13c119.333 178 217.666 267 294.999 267c5.33301 0 8 -1.66699 8 -5z" />
    <glyph glyph-name="brokenbar" unicode="&#xa6;" horiz-adv-x="500" 
d="M419 347h-19v320h19v-320zM419 -167h-19v320h19v-320z" />
    <glyph glyph-name="section" unicode="&#xa7;" 
d="M673 592c0 -2.66699 -1.33301 -4.00195 -4 -4.00195s-8 3 -16 9c-28 20.667 -56.667 31 -86 31c-34.667 0 -63.834 -11.167 -87.501 -33.5s-35.5 -50.166 -35.5 -83.499c0 -18.667 10.667 -68.667 32 -150c12.667 -48.667 19 -96.667 19 -144
c0 -77.333 -23.167 -143.5 -69.5 -198.5s-102.166 -82.5 -167.499 -82.5c-27.333 0 -57.833 6.83301 -91.5 20.5s-50.5 25.834 -50.5 36.501c0 3.33301 1.66699 5 5 5c2.66699 0 12.334 -6 29.001 -18c29.333 -20.667 60.666 -31 93.999 -31c34.667 0 65.667 13 93 39
s41 55.667 41 89c0 19.333 -3.66699 43.333 -11 72c-25.333 98 -38 170 -38 216c0 79.333 20.833 145.333 62.5 198s94.167 79 157.5 79c22.667 0 49 -6 79 -18s45 -22.667 45 -32zM509 624.998c-92 -32 -138 -102.333 -138 -211c0 -40.667 8 -100.334 24 -179.001
c10.667 -52.667 16 -93 16 -121c0 -62 -30.667 -113 -92 -153c89.333 34 134 106.333 134 217c0 34 -6.83301 83.333 -20.5 148s-20.5 113.334 -20.5 146.001c0 70.667 32.333 121.667 97 153z" />
    <glyph glyph-name="dieresis" unicode="&#xa8;" horiz-adv-x="500" 
d="M500 360c0 -12 -4.5 -22.832 -13.5 -32.499s-18.833 -14.5 -29.5 -14.5c-16 0 -24 7.33301 -24 22c0 11.333 4.83301 21.666 14.5 30.999s20.167 14 31.5 14c14 0 21 -6.66699 21 -20zM417 360.001c0 -12 -4.5 -22.833 -13.5 -32.5s-18.833 -14.5 -29.5 -14.5
c-16 0 -24 7.66699 -24 23c0 11.333 4.83301 21.5 14.5 30.5s20.167 13.5 31.5 13.5c14 0 21 -6.66699 21 -20z" />
    <glyph glyph-name="copyright" unicode="&#xa9;" horiz-adv-x="768" 
d="M882 343c0 -100 -36.832 -186.833 -110.499 -260.5s-160.167 -110.5 -259.5 -110.5c-88 0 -162 29.833 -222 89.5s-90 133.167 -90 220.5c0 100.667 37.167 187.667 111.5 261s162.166 110 263.499 110c86 0 158.667 -30 218 -90s89 -133.333 89 -220zM869.001 341
c0 86 -28.834 157.502 -86.501 214.502s-130.167 85.5 -217.5 85.5c-93.333 0 -175.333 -35.833 -246 -107.5s-106 -154.834 -106 -249.501c0 -84.667 28.833 -155.834 86.5 -213.501s128.834 -86.5 213.501 -86.5c95.333 0 178.5 35.5 249.5 106.5s106.5 154.5 106.5 250.5
zM744 438.002c0 -32.667 -13.667 -62.167 -41 -88.5s-58.333 -39.5 -93 -39.5c-14.667 0 -27.334 3.5 -38.001 10.5s-16 15.5 -16 25.5c0 3.33301 1 5 3 5c1.33301 -0.666992 2 -1.66699 2 -3c2 -16.667 12.333 -25 31 -25c30.667 0 60.667 14.667 90 44s44 59 44 89
s-16.667 45 -50 45c-49.333 0 -108.666 -27.333 -177.999 -82c-38.667 -30 -69 -63.667 -91 -101s-33 -73 -33 -107c0 -60.667 33.333 -91 100 -91c66 0 130 45 192 135c6.66699 9.33301 11 14 13 14s3 -1 3 -3c0 -10.667 -17.667 -34.667 -53 -72
c-52 -55.333 -104 -83 -156 -83c-38 0 -70.5 13.167 -97.5 39.5s-40.5 57.833 -40.5 94.5c0 38 13.833 76.333 41.5 115s64.5 70.667 110.5 96c64.667 36 123.667 54 177 54c24 0 43.333 -6.5 58 -19.5s22 -30.5 22 -52.5z" />
    <glyph glyph-name="ordfeminine" unicode="&#xaa;" 
d="M549 369c0 -6 -18 -28.002 -54 -66.002c-30 -32 -53.333 -48 -70 -48c-25.333 0 -38 13.667 -38 41c0 12 4.33301 25.333 13 40c-42.667 -54 -74.667 -81 -96 -81c-14 0 -25.833 5.33301 -35.5 16s-14.5 23.667 -14.5 39c0 44.667 34.333 83.334 103 116.001
c30.667 14.667 54.667 22 72 22c15.333 0 23 -6.66699 23 -20c0 -3.33301 -1 -8.66602 -3 -15.999l19 33c4.66699 -1.33301 11 -2 19 -2c3.33301 0 14.333 0.666992 33 2l-64 -100c-22.667 -35.333 -34 -59 -34 -71c0 -8 3 -12 9 -12c8 0 23.5 11 46.5 33
s44.167 46.333 63.5 73c2 2 3.66699 3 5 3c2 0 3 -0.666992 3 -2zM445 425.998c0 10 -5.33301 15.001 -16 15.001c-21.333 0 -49.5 -20.333 -84.5 -61s-52.5 -73.334 -52.5 -98.001c0 -13.333 5.33301 -20 16 -20c16.667 0 45.667 25.667 87 77
c33.333 41.333 50 70.333 50 87z" />
    <glyph glyph-name="guillemotleft" unicode="&#xab;" horiz-adv-x="347" 
d="M400 208c0 -3.33301 -15.332 -17.333 -45.999 -42c-39.333 -32 -73 -54 -101 -66c17.333 -18 36 -32.667 56 -44c2 -0.666992 3 -2 3 -4l-1 -1l-12 6c-30.667 15.333 -64 30.666 -100 45.999c60 14.667 125.333 49.334 196 104.001c1.33301 1.33301 2.66602 2 3.99902 2z
M309.001 214c0 -2.66699 -16.9971 -16.998 -50.9971 -42.998s-67.667 -46.333 -101 -61l7 -6l20 -16l20 -17l15 -12c3.33301 -2 6.33301 -4.33301 9 -7c0 -1.33301 -0.666992 -2 -2 -2c-2 0 -12.333 5.33301 -31 16c-8.66699 5.33301 -18.334 10.666 -29.001 15.999l-61 34
c53.333 9.33301 119.666 41.666 198.999 96.999c1.33301 1.33301 2.66602 2 3.99902 2z" />
    <glyph glyph-name="logicalnot" unicode="&#xac;" horiz-adv-x="523" 
d="M614 0h-19v249h-414v18h433v-267z" />
    <glyph glyph-name="sfthyphen" unicode="&#xad;" horiz-adv-x="358" 
d="M358 133c0 -4 -13.3301 -10.167 -39.9971 -18.5s-47 -12.5 -61 -12.5c-13.333 0 -27 1.66699 -41 5c-16.667 4 -29.334 6 -38.001 6c-13.333 0 -26.333 -3.33301 -39 -10c-0.666992 -0.666992 -1.66699 -1 -3 -1s-2 0.666992 -2 2c0 4 12.667 10.333 38 19
s43.666 13 54.999 13c6.66699 0 20.667 -2.33301 42 -7c18 -4 31 -6 39 -6c15.333 0 29.666 3.33301 42.999 10c2 1.33301 3.66699 2 5 2s2 -0.666992 2 -2z" />
    <glyph glyph-name="registered" unicode="&#xae;" horiz-adv-x="768" 
d="M882 343c0 -100 -36.832 -186.833 -110.499 -260.5s-160.167 -110.5 -259.5 -110.5c-88 0 -162 29.833 -222 89.5s-90 133.167 -90 220.5c0 100.667 37.167 187.667 111.5 261s162.166 110 263.499 110c86 0 158.667 -30 218 -90s89 -133.333 89 -220zM869.001 341
c0 86 -28.834 157.502 -86.501 214.502s-130.167 85.5 -217.5 85.5c-93.333 0 -175.333 -35.833 -246 -107.5s-106 -154.834 -106 -249.501c0 -84.667 28.833 -155.834 86.5 -213.501s128.834 -86.5 213.501 -86.5c95.333 0 178.5 35.5 249.5 106.5s106.5 154.5 106.5 250.5
zM778 521.002c0 -1.33301 -4.66504 -2.66699 -13.998 -4c-16.667 -2 -38.667 -10.667 -66 -26c34.667 -22 52 -50 52 -84c0 -46.667 -33.667 -74.667 -101 -84c28 -14.667 42 -36 42 -64c0 -10 -3.33301 -28.667 -10 -56c-7.33301 -30 -11 -49.333 -11 -58
c0 -25.333 12 -38 36 -38c17.333 0 32 7.66699 44 23c2.66699 2.66699 4.33398 4 5.00098 4c1.33301 0 2 -1 2 -3c-0.666992 -5.33301 -7.33398 -11.5 -20.001 -18.5s-23.667 -10.5 -33 -10.5c-18 0 -33.5 8.16699 -46.5 24.5s-19.5 35.5 -19.5 57.5
c0 14 4.66699 35.333 14 64c6.66699 20.667 10 36.334 10 47.001s-6 19.334 -18 26.001c-16 -1.33301 -26.667 -2 -32 -2c-15.333 0 -23 2 -23 6c0 3.33301 5.66699 5 17 5c13.333 0 26 -2 38 -6c48 14.667 72 46.667 72 96c0 25.333 -10.333 45.666 -31 60.999
c-52 -38.667 -91.333 -95.667 -118 -171c-28.667 -80.667 -63.334 -135.334 -104.001 -164.001c-31.333 -22 -63 -33 -95 -33c-24.667 0 -45.667 7 -63 21s-26 30.667 -26 50c0 12.667 3.83301 23.334 11.5 32.001s16.834 13 27.501 13c16.667 0 25 -9 25 -27
c0 -18.667 -8.33301 -28 -25 -28c-15.333 0 -23 6.66699 -23 20c0 3.33301 1.33301 8.66602 4 15.999c0.666992 0.666992 1 1.66699 1 3s-0.666992 2 -2 2c-2.66699 0 -5.66699 -3.5 -9 -10.5s-5 -13.833 -5 -20.5c0 -17.333 8.16699 -32.5 24.5 -45.5
s35.833 -19.5 58.5 -19.5c27.333 0 52.666 14 75.999 42c13.333 16.667 38 64.667 74 144c32.667 72 86.667 132.333 162 181c-28.667 22 -62.334 33 -101.001 33c-56.667 0 -109 -19.167 -157 -57.5s-72 -79.833 -72 -124.5c0 -38 22 -57 66 -57
c7.33301 0 17.5 1.83301 30.5 5.5s20.5 5.5 22.5 5.5s3 -0.666992 3 -2c0 -2.66699 -6.66699 -5.66699 -20 -9s-26 -5 -38 -5c-22.667 0 -41.167 6.33301 -55.5 19s-21.5 29.334 -21.5 50.001c0 49.333 23 92.166 69 128.499s100 54.5 162 54.5c43.333 0 85 -10.667 125 -32
c38.667 19.333 65 29 79 29c4.66699 0 7 -1 7 -3z" />
    <glyph glyph-name="macron" unicode="&#xaf;" horiz-adv-x="500" 
d="M509 348l-3 -9h-221l3 9h221z" />
    <glyph glyph-name="macron" unicode="&#x2c9;" horiz-adv-x="500" 
d="M509 348l-3 -9h-221l3 9h221z" />
    <glyph glyph-name="degree" unicode="&#xb0;" 
d="M578 535c0 -23.333 -8.66699 -43.5 -26 -60.5s-38 -25.5 -62 -25.5s-44.667 8.5 -62 25.5s-26 37.167 -26 60.5c0 24 8.66699 44.333 26 61s38.333 25 63 25c24 0 44.5 -8.5 61.5 -25.5s25.5 -37.167 25.5 -60.5zM562 535c0 20 -6.99902 37 -20.999 51s-31.333 21 -52 21
c-19.333 0 -36 -7.16699 -50 -21.5s-21 -31.166 -21 -50.499c0 -20 7 -37 21 -51s31 -21 51 -21c19.333 0 36.166 7.16699 50.499 21.5s21.5 31.166 21.5 50.499z" />
    <glyph glyph-name="plusminus" unicode="&#xb1;" horiz-adv-x="781" 
d="M889 333c0 -92.667 -32.5 -171.333 -97.5 -236s-143.833 -97 -236.5 -97c-92 -0 -170.5 32.333 -235.5 97s-97.5 143 -97.5 235c0 94 32.667 173.333 98 238s145.333 97 240 97c90 0 167.333 -32.833 232 -98.5s97 -144.167 97 -235.5z" />
    <glyph glyph-name="twosuperior" unicode="&#xb2;" horiz-adv-x="318" 
d="M522 511c0 -35.333 -21.3369 -67.0039 -64.0039 -95.0039c-21.333 -14 -63 -33 -125 -57c-53.333 -20.667 -94.666 -44.334 -123.999 -71.001c14 10.667 30.667 16 50 16c14 0 30.333 -2.66699 49 -8l48 -14c6.66699 -2 13.667 -3 21 -3c38 0 63.333 23 76 69
c0.666992 3.33301 2 5 4 5s3 -1 3 -3c0 -10.667 -7 -25.667 -21 -45c-25.333 -34.667 -56.333 -52 -93 -52c-14 0 -43.667 7.33301 -89 22c-12 4 -23 6 -33 6c-20.667 0 -32 -7.66699 -34 -23c0 -5.33301 -1.66699 -8 -5 -8c-2.66699 0 -4 1.33301 -4 4
c0 8.66699 8 21.334 24 38.001c21.333 22 63 47 125 75c48.667 22 87.334 47.833 116.001 77.5s43 58.834 43 87.501c0 26 -16.667 39 -50 39c-35.333 0 -73.166 -17.333 -113.499 -52s-60.5 -67 -60.5 -97c0 -20.667 13 -31 39 -31c21.333 0 44.833 9.83301 70.5 29.5
s43.834 41.834 54.501 66.501c0.666992 2.66699 2 4 4 4s3 -1 3 -3c0 -9.33301 -8.66699 -23.666 -26 -42.999c-36 -40 -71 -60 -105 -60c-34.667 0 -52 16.667 -52 50c0 34.667 19.833 67 59.5 97s82.167 45 127.5 45c24 0 43.667 -6.16699 59 -18.5s23 -28.166 23 -47.499
z" />
    <glyph glyph-name="threesuperior" unicode="&#xb3;" horiz-adv-x="318" 
d="M501 525c0 -46 -39.668 -76.332 -119.001 -90.999c46 -10.667 69 -34.334 69 -71.001c0 -28 -16.667 -52.667 -50 -74s-72.333 -32 -117 -32c-27.333 0 -50.166 5.5 -68.499 16.5s-27.5 24.833 -27.5 41.5c0 18 9 33.167 27 45.5s40 18.5 66 18.5
c19.333 0 29 -1.66699 29 -5c0 -2 -1.33301 -3 -4 -3l-8 1h-10c-22.667 0 -41.5 -5.66699 -56.5 -17s-22.5 -25.666 -22.5 -42.999c0 -14.667 5.83301 -26.334 17.5 -35.001s26.834 -13 45.501 -13c35.333 0 68.166 12.5 98.499 37.5s45.5 52.167 45.5 81.5
c0 24 -15 40.333 -45 49c-12.667 -2.66699 -26.667 -4 -42 -4h-6c-7.33301 0 -11 1.66699 -11 5c0 4.66699 7.66699 7 23 7c11.333 0 23.333 -1 36 -3c64.667 22.667 97 56.667 97 102c0 24 -15.333 36 -46 36c-27.333 0 -54.833 -9.16699 -82.5 -27.5
s-41.5 -36.833 -41.5 -55.5c0 -16.667 11 -25 33 -25c30 0 58.667 18 86 54c1.33301 2 3 3 5 3c1.33301 0 2 -0.666992 2 -2c0 -8 -11 -20.333 -33 -37s-42.667 -25 -62 -25c-27.333 0 -41 12.667 -41 38c0 21.333 13.5 40.5 40.5 57.5s57.833 25.5 92.5 25.5
c24 0 43.333 -5.16699 58 -15.5s22 -23.833 22 -40.5z" />
    <glyph glyph-name="acute" unicode="&#xb4;" horiz-adv-x="500" 
d="M567 412c-31.333 -24.667 -71.667 -47.333 -121 -68c-38 -16 -59.667 -24 -65 -24c-1.33301 0 -2.33301 0.333008 -3 1c0 0.666992 2 2 6 4c76 36.667 130.333 76 163 118z" />
    <glyph glyph-name="mu" unicode="&#xb5;" horiz-adv-x="348" 
d="M438 153c0 -1.33301 -1.66504 -3.99902 -4.99805 -7.99902l-21 -29c-61.333 -84.667 -107 -127 -137 -127c-14.667 0 -27 5.66699 -37 17s-15 25.333 -15 42c0 13.333 6.33301 31 19 53c-46 -74.667 -84.333 -112 -115 -112c-21.333 0 -32 12.333 -32 37
c0 6.66699 0.333008 12 1 16l-174 -312c-19.333 2.66699 -30.666 4 -33.999 4c-8.66699 0 -18.334 -2 -29.001 -6l323 533c11.333 -2 20.333 -3 27 -3c5.33301 0 16.333 1 33 3l-116 -191c-10 -16.667 -15 -32.334 -15 -47.001c0 -18 7 -27 21 -27
c30.667 0 81.667 61.333 153 184l47 81c11.333 -2 19.666 -3 24.999 -3c8 0 20 1 36 3l-79 -127c-36.667 -58.667 -55 -97.667 -55 -117c0 -14 6.66699 -21 20 -21c29.333 0 79.666 51.667 150.999 155c1.33301 3.33301 3 5 5 5s3 -1 3 -3z" />
    <glyph glyph-name="mu" unicode="&#x3bc;" horiz-adv-x="348" 
d="M438 153c0 -1.33301 -1.66504 -3.99902 -4.99805 -7.99902l-21 -29c-61.333 -84.667 -107 -127 -137 -127c-14.667 0 -27 5.66699 -37 17s-15 25.333 -15 42c0 13.333 6.33301 31 19 53c-46 -74.667 -84.333 -112 -115 -112c-21.333 0 -32 12.333 -32 37
c0 6.66699 0.333008 12 1 16l-174 -312c-19.333 2.66699 -30.666 4 -33.999 4c-8.66699 0 -18.334 -2 -29.001 -6l323 533c11.333 -2 20.333 -3 27 -3c5.33301 0 16.333 1 33 3l-116 -191c-10 -16.667 -15 -32.334 -15 -47.001c0 -18 7 -27 21 -27
c30.667 0 81.667 61.333 153 184l47 81c11.333 -2 19.666 -3 24.999 -3c8 0 20 1 36 3l-79 -127c-36.667 -58.667 -55 -97.667 -55 -117c0 -14 6.66699 -21 20 -21c29.333 0 79.666 51.667 150.999 155c1.33301 3.33301 3 5 5 5s3 -1 3 -3z" />
    <glyph glyph-name="paragraph" unicode="&#xb6;" horiz-adv-x="827" 
d="M1203 511c0 -18.667 -1.66797 -36.168 -5.00098 -52.501s-6.66602 -24.5 -9.99902 -24.5c-2 0.666992 -3 2 -3 4c0 6 1.5 17 4.5 33s4.5 28.667 4.5 38c0 40 -12.333 72.333 -37 97s-57.334 37 -98.001 37c-64.667 0 -127.667 -27 -189 -81
c-34.667 -30.667 -64.5 -65.834 -89.5 -105.501s-61.333 -109.334 -109 -209.001s-118.167 -172.5 -211.5 -218.5c-66 -32.667 -125.667 -49 -179 -49c-51.333 0 -92 13 -122 39s-45 61 -45 105c0 18.667 5.5 42.834 16.5 72.501s20.167 44.5 27.5 44.5
c2 -0.666992 3 -2 3 -4c0 -1.33301 -1.33301 -4 -4 -8c-22.667 -36.667 -34 -71.667 -34 -105c0 -41.333 14.167 -74.333 42.5 -99s66.166 -37 113.499 -37c60.667 0 115.334 18.333 164.001 55s100 98.334 154 185.001c61.333 98.667 111.666 172.834 150.999 222.501
s82.333 93.5 129 131.5c-37.333 17.333 -72.666 26 -105.999 26c-62 0 -114.333 -21.5 -157 -64.5s-64 -95.833 -64 -158.5c0 -62 16 -93 48 -93c8 0 15.333 2.33301 22 7c0 0.666992 0.333008 1 1 1c1.33301 0 2 -0.666992 2 -2c0 -4 -6.5 -8 -19.5 -12
s-25.833 -6 -38.5 -6c-43.333 0 -80.666 14.5 -111.999 43.5s-47 63.167 -47 102.5c0 55.333 31.167 102.166 93.5 140.499s138.5 57.5 228.5 57.5c56.667 0 109 -12 157 -36c60.667 42.667 119 64 175 64c42 0 76.333 -13.167 103 -39.5s40 -60.166 40 -101.499z" />
    <glyph glyph-name="periodcentered" unicode="&#xb7;" horiz-adv-x="231" 
d="M234 132c0 -16 -6.50098 -30.667 -19.501 -44s-27.5 -20 -43.5 -20s-24 7.66699 -24 23c0 14.667 6.83301 29 20.5 43s27.834 21 42.501 21c16 0 24 -7.66699 24 -23z" />
    <glyph glyph-name="cedilla" unicode="&#xb8;" horiz-adv-x="500" 
d="M266 -49c0 -24 -13.999 -36 -41.999 -36c-12.667 0 -30.334 5.66699 -53.001 17s-34 20.333 -34 27c0 2 1 3 3 3s4.66699 -1.33301 8 -4c18.667 -12.667 36.667 -19 54 -19c9.33301 0 17.5 3 24.5 9s10.5 12.667 10.5 20c0 10 -6.66699 22.667 -20 38l8 -2
c27.333 -19.333 41 -37 41 -53z" />
    <glyph glyph-name="onesuperior" unicode="&#xb9;" horiz-adv-x="318" 
d="M501 565c0 -2 -22.334 -37.001 -67.001 -105.001c-59.333 -90.667 -94.666 -157.334 -105.999 -200.001c-8.66699 2 -16 3 -22 3c-8.66699 0 -20 -1.33301 -34 -4c14 38.667 56 99.334 126 182.001c29.333 34.667 53 64.334 71 89.001
c-45.333 -47.333 -87.5 -87.5 -126.5 -120.5s-64.167 -49.5 -75.5 -49.5c-2 0 -3.33301 1 -4 3c0 2 4.33301 5 13 9c49.333 24.667 122 88.667 218 192c2 2.66699 3.66699 4 5 4c1.33301 -0.666992 2 -1.66699 2 -3z" />
    <glyph glyph-name="ordmasculine" unicode="&#xba;" 
d="M529 370c0 -3.33301 -7.33301 -11.998 -22 -25.998c-21.333 -20 -41.666 -30 -60.999 -30c-9.33301 0 -16 1.66699 -20 5c-32.667 -42.667 -63.334 -64 -92.001 -64c-16 0 -29.667 5.66699 -41 17s-17 25 -17 41c0 29.333 18.5 59.166 55.5 89.499
s73.167 45.5 108.5 45.5c22 0 33 -10.667 33 -32c0 -24.667 -14.333 -55.334 -43 -92.001c4.66699 -2.66699 9.66699 -4 15 -4c19.333 0 45.333 16.667 78 50c0.666992 1.33301 1.66699 2 3 2c2 0 3 -0.666992 3 -2zM466 416.002c0 16.667 -8.33398 25 -25.001 25
c-20.667 0 -46 -19.5 -76 -58.5s-45 -71.833 -45 -98.5c0 -14 5.66699 -21 17 -21c24.667 0 52.334 20.333 83.001 61c-9.33301 5.33301 -14 12 -14 20c0 10.667 5.5 22 16.5 34s21.167 18 30.5 18c3.33301 0 5.33301 -1.66699 6 -5c4.66699 8.66699 7 17 7 25z" />
    <glyph glyph-name="guillemotright" unicode="&#xbb;" horiz-adv-x="347" 
d="M363 128c-60 -11.333 -126.334 -38.334 -199.001 -81.001c-5.33301 -3.33301 -8.66602 -5 -9.99902 -5l-1 1c-0.666992 5.33301 20 20.333 62 45s73 40 93 46c-30.667 26.667 -55.334 47.334 -74.001 62.001c-1.33301 1.33301 -2 2.33301 -2 3l1 1
c0.666992 0 1.33398 -0.333008 2.00098 -1l3 -1zM257.999 147.999c-50 -13.333 -114.331 -46.332 -192.998 -98.999l-3 -2l-4 -3c-0.666992 -0.666992 -1.33398 -1 -2.00098 -1l-1 1c0 1.33301 1.66699 3.33301 5 6l8 8c36.667 36.667 81.667 67.667 135 93
c-10 11.333 -27 25.333 -51 42c-4.66699 3.33301 -7 5.33301 -7 6s0.333008 1 1 1c1.33301 0 8.66602 -3.33301 21.999 -10l25 -12l29 -14c5.33301 -2.66699 13.333 -6.33398 24 -11.001z" />
    <glyph glyph-name="onequarter" unicode="&#xbc;" horiz-adv-x="651" 
d="M535 565c0 -0.666992 -0.333008 -1.66797 -1 -3.00098l-3 -4l-76 -99c-70.667 -89.333 -114 -155.666 -130 -198.999c-6.66699 1.33301 -14 2 -22 2c-6.66699 0 -18 -1 -34 -3c18.667 39.333 67.667 100 147 182l83 89c-50 -46.667 -97 -86.667 -141 -120
s-71.667 -50 -83 -50c-2 0.666992 -3 1.66699 -3 3s5 4.33301 15 9c52 23.333 132 87 240 191c2.66699 2.66699 4.66699 4 6 4s2 -0.666992 2 -2zM810 340.999c0 -2.66699 -1.33398 -4.00293 -4.00098 -4.00293c-0.666992 0 -4.16699 0.833008 -10.5 2.5
s-12.5 2.5 -18.5 2.5c-51.333 0 -122.333 -40.667 -213 -122c-68 -61.333 -120.667 -101.666 -158 -120.999c22 5.33301 48.667 8 80 8c11.333 0 23.333 -1 36 -3c14 18.667 41.333 51.334 82 98.001c29.333 34 52.666 63 69.999 87c0.666992 2.66699 2.33398 4 5.00098 4
c1.33301 0 2 -0.666992 2 -2c0 -0.666992 -0.333008 -1.66699 -1 -3l-14 -21l-108 -165h25c24 0 43.333 4.66699 58 14s22 21.333 22 36c0 2 -0.666992 6.33301 -2 13c-0.666992 0.666992 -1 1.66699 -1 3c0.666992 2 1.66699 3 3 3c4 0 6 -5.66699 6 -17
c0 -44 -40 -66 -120 -66c-22.667 -39.333 -36.667 -69 -42 -89c-10.667 2 -19 3 -25 3c-4 0 -14.667 -1 -32 -3c14.667 28.667 34.667 58.334 60 89.001c-44 4 -71 6 -81 6c-8.66699 0 -21 -0.666992 -37 -2c-24 -15.333 -44 -23 -60 -23c-3.33301 0 -5 1.33301 -5 4
c0 7.33301 20.333 15.333 61 24c44 22.667 101.333 65.667 172 129c92.667 83.333 165.334 125 218.001 125c21.333 0 32 -3.33301 32 -10zM698.999 561.996c0 -2.66699 -21.335 -27.002 -64.002 -73.002c-45.333 -49.333 -115.166 -134.5 -209.499 -255.5
s-161.833 -212.167 -202.5 -273.5c-8.66699 4 -18.334 6 -29.001 6c-9.33301 0 -17.666 -0.666992 -24.999 -2c62.667 74.667 154.334 178.334 275.001 311.001c108.667 118.667 190.667 212.334 246 281.001l4 5c0.666992 2 2 3 4 3c0.666992 0 1 -0.666992 1 -2z" />
    <glyph glyph-name="onehalf" unicode="&#xbd;" horiz-adv-x="651" 
d="M491 564c0 -2 -22.333 -37.001 -67 -105.001c-58 -88 -93 -154.333 -105 -199c-6.66699 1.33301 -14 2 -22 2c-6.66699 0 -18 -1 -34 -3c13.333 38 55.333 98.667 126 182c28.667 34 52.334 63.667 71.001 89c-44 -46.667 -86 -86.667 -126 -120s-65.667 -50 -77 -50
c-2 0.666992 -3 1.66699 -3 3c0 2 4.33301 5 13 9c47.333 22.667 119.666 86.334 216.999 191.001c2 2.66699 3.66699 4 5 4c1.33301 -0.666992 2 -1.66699 2 -3zM714 248.999c0 -34.667 -21.332 -66.335 -63.999 -95.002c-20 -13.333 -61.667 -32.333 -125 -57
c-54 -20.667 -95 -44.334 -123 -71.001c14.667 10 31 15 49 15c19.333 0 41.666 -4.33301 66.999 -13c23.333 -8 40.666 -12 51.999 -12c38 0 63.333 23.333 76 70c0.666992 3.33301 2 5 4 5s3 -1 3 -3c0 -10.667 -7 -26 -21 -46c-24.667 -34.667 -55.667 -52 -93 -52
c-15.333 0 -36.666 4.83301 -63.999 14.5s-47 14.5 -59 14.5c-20 0 -31 -7.66699 -33 -23c0 -5.33301 -1.66699 -8 -5 -8c-2.66699 0 -4 1.33301 -4 4c0 9.33301 8 22 24 38c22.667 22.667 64 47.667 124 75c48.667 22 87.167 47.833 115.5 77.5s42.5 58.834 42.5 87.501
c0 26 -16.333 39 -49 39c-34.667 0 -72.167 -17.333 -112.5 -52s-60.5 -67 -60.5 -97c0 -20.667 13 -31 39 -31c21.333 0 44.833 9.83301 70.5 29.5s43.834 41.834 54.501 66.501c0.666992 2.66699 2 4 4 4s3 -1 3 -3c0 -8.66699 -8.66699 -23 -26 -43
c-35.333 -40 -70.333 -60 -105 -60s-52 17 -52 51s19.833 66 59.5 96s82.167 45 127.5 45c23.333 0 42.666 -6.16699 57.999 -18.5s23 -28.166 23 -47.499zM676.001 561.998c0 -2.66699 -21.335 -27.002 -64.002 -73.002c-45.333 -49.333 -115.166 -134.5 -209.499 -255.5
s-161.833 -212.167 -202.5 -273.5c-8.66699 4 -18.334 6 -29.001 6c-9.33301 0 -17.666 -0.666992 -24.999 -2c62.667 74.667 154.334 178.334 275.001 311.001c108.667 118.667 190.667 212.334 246 281.001l4 5c0.666992 2 2 3 4 3c0.666992 0 1 -0.666992 1 -2z" />
    <glyph glyph-name="threequarters" unicode="&#xbe;" horiz-adv-x="651" 
d="M505 524c0 -46 -39.668 -75.9971 -119.001 -89.9971c46 -10.667 69 -34.334 69 -71.001c0 -28.667 -16.667 -53.667 -50 -75s-72.333 -32 -117 -32c-28 0 -51 5.5 -69 16.5s-27 25.167 -27 42.5s9 32.166 27 44.499s39.667 18.5 65 18.5c20 0 30 -1.66699 30 -5
c0 -2 -1 -3 -3 -3h-3c-6.66699 1.33301 -12.667 2 -18 2c-21.333 0 -39.5 -5.83301 -54.5 -17.5s-22.5 -26.167 -22.5 -43.5c0 -32 21 -48 63 -48c35.333 0 68.166 12.5 98.499 37.5s45.5 52.167 45.5 81.5c0 24.667 -15 41 -45 49c-16 -2.66699 -30.333 -4 -43 -4
c-10.667 0 -16 1.66699 -16 5c0 4.66699 7.66699 7 23 7c12 0 24 -0.666992 36 -2c64.667 21.333 97 55.333 97 102c0 24 -15.667 36 -47 36c-27.333 0 -54.666 -9.33301 -81.999 -28s-41 -37.334 -41 -56.001c0 -16.667 10.667 -25 32 -25c30.667 0 59.667 18 87 54
c0.666992 2.66699 2.33398 4 5.00098 4c1.33301 0 2 -0.666992 2 -2c0 -7.33301 -10.667 -19.5 -32 -36.5s-42.333 -25.5 -63 -25.5c-27.333 0 -41 12.667 -41 38c0 21.333 13.5 40.5 40.5 57.5s57.833 25.5 92.5 25.5c53.333 0 80 -19 80 -57zM807.999 341.003
c0 -2.66699 -1.33008 -4 -3.99707 -4l-11 2.5c-7.33301 1.66699 -13.333 2.5 -18 2.5c-52.667 0 -119 -40.667 -199 -122c-61.333 -62 -109 -102.333 -143 -121c22.667 4.66699 50 7 82 7c13.333 0 24.666 -0.666992 33.999 -2c6.66699 10.667 30 43.334 70 98.001
c31.333 42.667 51 71.667 59 87c0.666992 2.66699 2 4 4 4s3 -1 3 -3l-1 -2l-3 -6l-8 -15l-14 -24c-4.66699 -8 -11.334 -20.333 -20.001 -37c-21.333 -38 -40 -72.667 -56 -104h28c48.667 0 73 15.333 73 46c0 4.66699 -1.33301 10 -4 16
c-0.666992 0.666992 -1 1.66699 -1 3c0 2 1 3 3 3c5.33301 0 8 -7.33301 8 -22c0 -40 -38 -60 -114 -60c-18 -38.667 -28.333 -68.334 -31 -89.001c-10 2 -17.667 3 -23 3c-6 0 -16.667 -1 -32 -3c8.66699 24 24.667 53.667 48 89c-5.33301 0.666992 -15 1.66699 -29 3
c-22 2 -39.333 3 -52 3c-8.66699 0 -20.667 -0.666992 -36 -2c-24 -15.333 -43 -23 -57 -23c-4 0 -6 1.33301 -6 4c0 6.66699 19.333 14.667 58 24c42 24 94 67 156 129c83.333 83.333 150.666 125 201.999 125c22.667 0 34 -3.33301 34 -10zM733.002 562.003
c0 -2 -21.333 -26.333 -64 -73c-46 -50 -114.667 -133.5 -206 -250.5s-160.333 -209.833 -207 -278.5c-8 4 -17.667 6 -29 6c-8.66699 0 -16.667 -0.666992 -24 -2c204 246 370.333 436 499 570l26 27c0.666992 2 2 3 4 3c0.666992 0 1 -0.666992 1 -2z" />
    <glyph glyph-name="questiondown" unicode="&#xbf;" horiz-adv-x="436" 
d="M542 550c0 -13.333 -7 -26.667 -21 -40s-27.667 -20 -41 -20s-20 6.66699 -20 20c0 14.667 6.66699 28.667 20 42s27 20 41 20s21 -7.33301 21 -22zM509 207.999c0 -53.333 -28.502 -101.998 -85.502 -145.998s-120.5 -66.333 -190.5 -67
c16.667 -40 44.334 -60 83.001 -60c12.667 0 25.334 2.33301 38.001 7c2.66699 1.33301 4.33398 2 5.00098 2c2 -0.666992 3 -1.66699 3 -3c0 -2.66699 -5.5 -5.5 -16.5 -8.5s-20.833 -4.5 -29.5 -4.5c-42 0 -72 22.333 -90 67
c-43.333 2.66699 -78.833 16.334 -106.5 41.001s-41.5 54.667 -41.5 90c0 51.333 31 96.666 93 135.999c22 14 76.667 37.667 164 71c90 34.667 135 70 135 106c0 16.667 -9 25 -27 25c-28.667 0 -56.334 -19.333 -83.001 -58c-0.666992 -2 -2 -3 -4 -3
c-1.33301 0 -2 0.666992 -2 2c0 6 9.33301 17.667 28 35c22 20.667 43 31 63 31c21.333 0 32 -10.333 32 -31c0 -17.333 -10.667 -35.666 -32 -54.999c-11.333 -10.667 -48.333 -33.334 -111 -68.001c-137.333 -76 -206 -151.333 -206 -226c0 -54.667 32.333 -84.667 97 -90
c-3.33301 12 -5 24 -5 36c0 57.333 23.167 112.166 69.5 164.499s94.833 78.5 145.5 78.5c21.333 0 39 -6.83301 53 -20.5s21 -30.834 21 -51.501zM493.998 220.001c0 35.333 -19.667 53.001 -59 53.001c-46.667 0 -93.167 -26.333 -139.5 -79
s-69.5 -105.334 -69.5 -158.001c0 -11.333 1.66699 -23.333 5 -36c66 0 127.333 27 184 81c52.667 50 79 96.333 79 139z" />
    <glyph glyph-name="Agrave" unicode="&#xc0;" horiz-adv-x="953" 
d="M1329 703c-0.666992 -1.33301 -1.66504 -2.00098 -2.99805 -2.00098c-8.66699 0 -19.834 12.333 -33.501 37s-23.834 51.334 -30.501 80.001l44 30c-6 -16 -9 -32.333 -9 -49c0 -35.333 9.33301 -65 28 -89l1 -2c2 -2 3 -3.66699 3 -5zM1441 583.999
c0 -6 -3.33301 -9 -10 -9c-4.66699 0 -15.667 2 -33 6c-34.667 8 -64 12 -88 12c-54.667 -17.333 -101.167 -48.166 -139.5 -92.499s-84.833 -120.833 -139.5 -229.5c-78 -154.667 -177.667 -246 -299 -274c25.333 -4 47.666 -6 66.999 -6
c59.333 0 109.666 19.333 150.999 58c24 22.667 56.667 61.667 98 117c3.33301 4.66699 6 7 8 7c1.33301 -0.666992 2 -1.66699 2 -3c0 -4.66699 -18.667 -29.667 -56 -75c-34.667 -42.667 -66.167 -71.834 -94.5 -87.501s-63.5 -23.5 -105.5 -23.5
c-24 0 -53 3.33301 -87 10c-22 -6.66699 -46 -10 -72 -10c-18.667 0 -28 3.33301 -28 10c0 8 12.667 12 38 12c16.667 0 37.334 -1.66699 62.001 -5c50 11.333 88.333 31.5 115 60.5s76.334 103.5 149.001 223.5h-188c-182 -201.333 -339.667 -302 -473 -302
c-60.667 0 -108.667 17 -144 51s-53 79.667 -53 137c0 70.667 27.333 137.667 82 201s122.667 107.333 204 132c27.333 53.333 68.5 97.333 123.5 132s110.833 52 167.5 52c33.333 0 59.833 -8.5 79.5 -25.5s29.5 -40.167 29.5 -69.5c0 -22.667 -7.66699 -49 -23 -79
c-14 -27.333 -21 -46 -21 -56c0 -24 14 -36 42 -36c32.667 0 66.334 24 101.001 72c2.66699 4 5 6 7 6c2.66699 0 4 -1.33301 4 -4c0 -3.33301 -7.66699 -13.666 -23 -30.999c-30.667 -34.667 -60.334 -52 -89.001 -52c-18.667 0 -33.834 6.66699 -45.501 20
s-17.5 30.666 -17.5 51.999c0 20 10.667 49.333 32 88c10 18 15 33.667 15 47c0 16.667 -9 30.667 -27 42s-40 17 -66 17c-52.667 0 -105.167 -16.333 -157.5 -49s-92.166 -73.667 -119.499 -123c24 5.33301 45.333 8 64 8c48 0 85.667 -12.667 113 -38s41 -60.333 41 -105
c0 -10.667 -0.666992 -20 -2 -28c26.667 21.333 47.667 49.666 63 84.999c0.666992 3.33301 2 5 4 5c2.66699 0 4 -1.66699 4 -5c0 -9.33301 -7.5 -24 -22.5 -44s-31.833 -37.667 -50.5 -53c-11.333 -62.667 -44.833 -118.667 -100.5 -168s-112.5 -74 -170.5 -74
c-31.333 0 -57.333 10.167 -78 30.5s-31 45.833 -31 76.5c0 37.333 12 74 36 110s55.667 65.333 95 88c-0.666992 8 -1 14 -1 18c0 23.333 5.66699 49 17 77c-69.333 -25.333 -128.666 -70.666 -177.999 -135.999s-74 -131.333 -74 -198c0 -49.333 15.333 -89 46 -119
s71.667 -45 123 -45c59.333 0 118.166 20.333 176.499 61s139.833 118 244.5 232c-44 0 -75.667 -0.333008 -95 -1l7 10c30.667 0 62.667 -0.333008 96 -1c95.333 106 187.833 183.333 277.5 232s184.5 73.667 284.5 75c21.333 4.66699 43 7 65 7
c45.333 0 68 -7.66699 68 -23zM1286 590.999c-84.667 -4.66699 -163.167 -28.999 -235.5 -72.999s-156.5 -119 -252.5 -225h186c40.667 71.333 90.5 136.166 149.5 194.499s109.833 92.833 152.5 103.5zM621.002 384c0 37.333 -12.168 67.168 -36.501 89.501
s-56.833 33.5 -97.5 33.5c-24 0 -48.667 -4.33301 -74 -13c-13.333 -30 -20 -61.333 -20 -94c34.667 18 60.334 27 77.001 27c3.33301 0 5 -1 5 -3c0 -2.66699 -6 -5.33398 -18 -8.00098c-18.667 -4.66699 -39.667 -13 -63 -25c11.333 -65.333 49.333 -98 114 -98
c32.667 0 67.667 11.667 105 35c5.33301 19.333 8 38 8 56zM609.001 316.002c-36 -20.667 -70.334 -30.999 -103.001 -30.999s-59.667 9 -81 27s-34.666 42.667 -39.999 74c-36.667 -22 -66.167 -50 -88.5 -84s-33.5 -67.667 -33.5 -101c0 -30.667 9 -55.334 27 -74.001
s41.667 -28 71 -28c46.667 0 93.667 20.833 141 62.5s83 93.167 107 154.5z" />
    <glyph glyph-name="Aacute" unicode="&#xc1;" horiz-adv-x="953" 
d="M1459 811c-31.333 -23.333 -72.999 -46.333 -124.999 -69c-38 -16.667 -60.333 -25 -67 -25c-2 0 -3 0.666992 -3 2c0 0.666992 2 2 6 4c32 15.333 64.667 34.833 98 58.5s56.666 44.5 69.999 62.5zM1441 584c0 -6 -3.33301 -9 -10 -9c-4.66699 0 -15.667 2 -33 6
c-34.667 8 -64 12 -88 12c-54.667 -17.333 -101.167 -48.166 -139.5 -92.499s-84.833 -120.833 -139.5 -229.5c-78 -154.667 -177.667 -246 -299 -274c25.333 -4 47.666 -6 66.999 -6c59.333 0 109.666 19.333 150.999 58c24 22.667 56.667 61.667 98 117
c3.33301 4.66699 6 7 8 7c1.33301 -0.666992 2 -1.66699 2 -3c0 -4.66699 -18.667 -29.667 -56 -75c-34.667 -42.667 -66.167 -71.834 -94.5 -87.501s-63.5 -23.5 -105.5 -23.5c-24 0 -53 3.33301 -87 10c-22 -6.66699 -46 -10 -72 -10c-18.667 0 -28 3.33301 -28 10
c0 8 12.667 12 38 12c16.667 0 37.334 -1.66699 62.001 -5c50 11.333 88.333 31.5 115 60.5s76.334 103.5 149.001 223.5h-188c-182 -201.333 -339.667 -302 -473 -302c-60.667 0 -108.667 17 -144 51s-53 79.667 -53 137c0 70.667 27.333 137.667 82 201
s122.667 107.333 204 132c27.333 53.333 68.5 97.333 123.5 132s110.833 52 167.5 52c33.333 0 59.833 -8.5 79.5 -25.5s29.5 -40.167 29.5 -69.5c0 -22.667 -7.66699 -49 -23 -79c-14 -27.333 -21 -46 -21 -56c0 -24 14 -36 42 -36c32.667 0 66.334 24 101.001 72
c2.66699 4 5 6 7 6c2.66699 0 4 -1.33301 4 -4c0 -3.33301 -7.66699 -13.666 -23 -30.999c-30.667 -34.667 -60.334 -52 -89.001 -52c-18.667 0 -33.834 6.66699 -45.501 20s-17.5 30.666 -17.5 51.999c0 20 10.667 49.333 32 88c10 18 15 33.667 15 47
c0 16.667 -9 30.667 -27 42s-40 17 -66 17c-52.667 0 -105.167 -16.333 -157.5 -49s-92.166 -73.667 -119.499 -123c24 5.33301 45.333 8 64 8c48 0 85.667 -12.667 113 -38s41 -60.333 41 -105c0 -10.667 -0.666992 -20 -2 -28c26.667 21.333 47.667 49.666 63 84.999
c0.666992 3.33301 2 5 4 5c2.66699 0 4 -1.66699 4 -5c0 -9.33301 -7.5 -24 -22.5 -44s-31.833 -37.667 -50.5 -53c-11.333 -62.667 -44.833 -118.667 -100.5 -168s-112.5 -74 -170.5 -74c-31.333 0 -57.333 10.167 -78 30.5s-31 45.833 -31 76.5c0 37.333 12 74 36 110
s55.667 65.333 95 88c-0.666992 8 -1 14 -1 18c0 23.333 5.66699 49 17 77c-69.333 -25.333 -128.666 -70.666 -177.999 -135.999s-74 -131.333 -74 -198c0 -49.333 15.333 -89 46 -119s71.667 -45 123 -45c59.333 0 118.166 20.333 176.499 61s139.833 118 244.5 232
c-44 0 -75.667 -0.333008 -95 -1l7 10c30.667 0 62.667 -0.333008 96 -1c95.333 106 187.833 183.333 277.5 232s184.5 73.667 284.5 75c21.333 4.66699 43 7 65 7c45.333 0 68 -7.66699 68 -23zM1286 591c-84.667 -4.66699 -163.167 -28.999 -235.5 -72.999
s-156.5 -119 -252.5 -225h186c40.667 71.333 90.5 136.166 149.5 194.499s109.833 92.833 152.5 103.5zM621.001 384.001c0 37.333 -12.168 67.168 -36.501 89.501s-56.833 33.5 -97.5 33.5c-24 0 -48.667 -4.33301 -74 -13c-13.333 -30 -20 -61.333 -20 -94
c34.667 18 60.334 27 77.001 27c3.33301 0 5 -1 5 -3c0 -2.66699 -6 -5.33398 -18 -8.00098c-18.667 -4.66699 -39.667 -13 -63 -25c11.333 -65.333 49.333 -98 114 -98c32.667 0 67.667 11.667 105 35c5.33301 19.333 8 38 8 56zM609 316.003
c-36 -20.667 -70.334 -30.999 -103.001 -30.999s-59.667 9 -81 27s-34.666 42.667 -39.999 74c-36.667 -22 -66.167 -50 -88.5 -84s-33.5 -67.667 -33.5 -101c0 -30.667 9 -55.334 27 -74.001s41.667 -28 71 -28c46.667 0 93.667 20.833 141 62.5s83 93.167 107 154.5z" />
    <glyph glyph-name="Acircumflex" unicode="&#xc2;" horiz-adv-x="953" 
d="M1402 844c-2 -24 -5.00098 -64.667 -9.00098 -122c0 -2.66699 -0.666992 -4 -2 -4c-1.33301 0.666992 -2 2 -2 4c-2 33.333 -6 56.333 -12 69c-19.333 -13.333 -49.666 -29 -90.999 -47s-67.333 -27 -78 -27c-2 0 -3 0.666992 -3 2c0.666992 0.666992 3 2 7 4
c36 15.333 72.833 35 110.5 59s64.167 44.667 79.5 62zM1441 584c0 -6 -3.33301 -9 -10 -9c-4.66699 0 -15.667 2 -33 6c-34.667 8 -64 12 -88 12c-54.667 -17.333 -101.167 -48.166 -139.5 -92.499s-84.833 -120.833 -139.5 -229.5c-78 -154.667 -177.667 -246 -299 -274
c25.333 -4 47.666 -6 66.999 -6c59.333 0 109.666 19.333 150.999 58c24 22.667 56.667 61.667 98 117c3.33301 4.66699 6 7 8 7c1.33301 -0.666992 2 -1.66699 2 -3c0 -4.66699 -18.667 -29.667 -56 -75c-34.667 -42.667 -66.167 -71.834 -94.5 -87.501
s-63.5 -23.5 -105.5 -23.5c-24 0 -53 3.33301 -87 10c-22 -6.66699 -46 -10 -72 -10c-18.667 0 -28 3.33301 -28 10c0 8 12.667 12 38 12c16.667 0 37.334 -1.66699 62.001 -5c50 11.333 88.333 31.5 115 60.5s76.334 103.5 149.001 223.5h-188
c-182 -201.333 -339.667 -302 -473 -302c-60.667 0 -108.667 17 -144 51s-53 79.667 -53 137c0 70.667 27.333 137.667 82 201s122.667 107.333 204 132c27.333 53.333 68.5 97.333 123.5 132s110.833 52 167.5 52c33.333 0 59.833 -8.5 79.5 -25.5s29.5 -40.167 29.5 -69.5
c0 -22.667 -7.66699 -49 -23 -79c-14 -27.333 -21 -46 -21 -56c0 -24 14 -36 42 -36c32.667 0 66.334 24 101.001 72c2.66699 4 5 6 7 6c2.66699 0 4 -1.33301 4 -4c0 -3.33301 -7.66699 -13.666 -23 -30.999c-30.667 -34.667 -60.334 -52 -89.001 -52
c-18.667 0 -33.834 6.66699 -45.501 20s-17.5 30.666 -17.5 51.999c0 20 10.667 49.333 32 88c10 18 15 33.667 15 47c0 16.667 -9 30.667 -27 42s-40 17 -66 17c-52.667 0 -105.167 -16.333 -157.5 -49s-92.166 -73.667 -119.499 -123c24 5.33301 45.333 8 64 8
c48 0 85.667 -12.667 113 -38s41 -60.333 41 -105c0 -10.667 -0.666992 -20 -2 -28c26.667 21.333 47.667 49.666 63 84.999c0.666992 3.33301 2 5 4 5c2.66699 0 4 -1.66699 4 -5c0 -9.33301 -7.5 -24 -22.5 -44s-31.833 -37.667 -50.5 -53
c-11.333 -62.667 -44.833 -118.667 -100.5 -168s-112.5 -74 -170.5 -74c-31.333 0 -57.333 10.167 -78 30.5s-31 45.833 -31 76.5c0 37.333 12 74 36 110s55.667 65.333 95 88c-0.666992 8 -1 14 -1 18c0 23.333 5.66699 49 17 77
c-69.333 -25.333 -128.666 -70.666 -177.999 -135.999s-74 -131.333 -74 -198c0 -49.333 15.333 -89 46 -119s71.667 -45 123 -45c59.333 0 118.166 20.333 176.499 61s139.833 118 244.5 232c-44 0 -75.667 -0.333008 -95 -1l7 10c30.667 0 62.667 -0.333008 96 -1
c95.333 106 187.833 183.333 277.5 232s184.5 73.667 284.5 75c21.333 4.66699 43 7 65 7c45.333 0 68 -7.66699 68 -23zM1286 591c-84.667 -4.66699 -163.167 -28.999 -235.5 -72.999s-156.5 -119 -252.5 -225h186c40.667 71.333 90.5 136.166 149.5 194.499
s109.833 92.833 152.5 103.5zM620.999 384.001c0 37.333 -12.168 67.168 -36.501 89.501s-56.833 33.5 -97.5 33.5c-24 0 -48.667 -4.33301 -74 -13c-13.333 -30 -20 -61.333 -20 -94c34.667 18 60.334 27 77.001 27c3.33301 0 5 -1 5 -3
c0 -2.66699 -6 -5.33398 -18 -8.00098c-18.667 -4.66699 -39.667 -13 -63 -25c11.333 -65.333 49.333 -98 114 -98c32.667 0 67.667 11.667 105 35c5.33301 19.333 8 38 8 56zM608.998 316.003c-36 -20.667 -70.334 -30.999 -103.001 -30.999s-59.667 9 -81 27
s-34.666 42.667 -39.999 74c-36.667 -22 -66.167 -50 -88.5 -84s-33.5 -67.667 -33.5 -101c0 -30.667 9 -55.334 27 -74.001s41.667 -28 71 -28c46.667 0 93.667 20.833 141 62.5s83 93.167 107 154.5z" />
    <glyph glyph-name="Atilde" unicode="&#xc3;" horiz-adv-x="953" 
d="M1410 758c0 -4.66699 -9.33496 -11.332 -28.002 -19.999s-32.667 -13 -42 -13c-10 0 -24.667 2.33301 -44 7l-10 2c-32 8 -52.667 12 -62 12c-8.66699 0 -18 -2.33301 -28 -7c-2.66699 -2 -5 -3 -7 -3s-3 0.666992 -3 2c0 2 8.16699 8 24.5 18s31.833 15 46.5 15
c8 0 28 -3.66699 60 -11c28.667 -6.66699 47.334 -10 56.001 -10c11.333 0 21 2.66699 29 8c2.66699 1.33301 4.33398 2 5.00098 2c2 -0.666992 3 -1.33398 3 -2.00098zM1441 584.002c0 -6 -3.33301 -9 -10 -9c-4.66699 0 -15.667 2 -33 6c-34.667 8 -64 12 -88 12
c-54.667 -17.333 -101.167 -48.166 -139.5 -92.499s-84.833 -120.833 -139.5 -229.5c-78 -154.667 -177.667 -246 -299 -274c25.333 -4 47.666 -6 66.999 -6c59.333 0 109.666 19.333 150.999 58c24 22.667 56.667 61.667 98 117c3.33301 4.66699 6 7 8 7
c1.33301 -0.666992 2 -1.66699 2 -3c0 -4.66699 -18.667 -29.667 -56 -75c-34.667 -42.667 -66.167 -71.834 -94.5 -87.501s-63.5 -23.5 -105.5 -23.5c-24 0 -53 3.33301 -87 10c-22 -6.66699 -46 -10 -72 -10c-18.667 0 -28 3.33301 -28 10c0 8 12.667 12 38 12
c16.667 0 37.334 -1.66699 62.001 -5c50 11.333 88.333 31.5 115 60.5s76.334 103.5 149.001 223.5h-188c-182 -201.333 -339.667 -302 -473 -302c-60.667 0 -108.667 17 -144 51s-53 79.667 -53 137c0 70.667 27.333 137.667 82 201s122.667 107.333 204 132
c27.333 53.333 68.5 97.333 123.5 132s110.833 52 167.5 52c33.333 0 59.833 -8.5 79.5 -25.5s29.5 -40.167 29.5 -69.5c0 -22.667 -7.66699 -49 -23 -79c-14 -27.333 -21 -46 -21 -56c0 -24 14 -36 42 -36c32.667 0 66.334 24 101.001 72c2.66699 4 5 6 7 6
c2.66699 0 4 -1.33301 4 -4c0 -3.33301 -7.66699 -13.666 -23 -30.999c-30.667 -34.667 -60.334 -52 -89.001 -52c-18.667 0 -33.834 6.66699 -45.501 20s-17.5 30.666 -17.5 51.999c0 20 10.667 49.333 32 88c10 18 15 33.667 15 47c0 16.667 -9 30.667 -27 42
s-40 17 -66 17c-52.667 0 -105.167 -16.333 -157.5 -49s-92.166 -73.667 -119.499 -123c24 5.33301 45.333 8 64 8c48 0 85.667 -12.667 113 -38s41 -60.333 41 -105c0 -10.667 -0.666992 -20 -2 -28c26.667 21.333 47.667 49.666 63 84.999c0.666992 3.33301 2 5 4 5
c2.66699 0 4 -1.66699 4 -5c0 -9.33301 -7.5 -24 -22.5 -44s-31.833 -37.667 -50.5 -53c-11.333 -62.667 -44.833 -118.667 -100.5 -168s-112.5 -74 -170.5 -74c-31.333 0 -57.333 10.167 -78 30.5s-31 45.833 -31 76.5c0 37.333 12 74 36 110s55.667 65.333 95 88
c-0.666992 8 -1 14 -1 18c0 23.333 5.66699 49 17 77c-69.333 -25.333 -128.666 -70.666 -177.999 -135.999s-74 -131.333 -74 -198c0 -49.333 15.333 -89 46 -119s71.667 -45 123 -45c59.333 0 118.166 20.333 176.499 61s139.833 118 244.5 232
c-44 0 -75.667 -0.333008 -95 -1l7 10c30.667 0 62.667 -0.333008 96 -1c95.333 106 187.833 183.333 277.5 232s184.5 73.667 284.5 75c21.333 4.66699 43 7 65 7c45.333 0 68 -7.66699 68 -23zM1286 591.002c-84.667 -4.66699 -163.167 -28.999 -235.5 -72.999
s-156.5 -119 -252.5 -225h186c40.667 71.333 90.5 136.166 149.5 194.499s109.833 92.833 152.5 103.5zM620.998 384.003c0 37.333 -12.168 67.168 -36.501 89.501s-56.833 33.5 -97.5 33.5c-24 0 -48.667 -4.33301 -74 -13c-13.333 -30 -20 -61.333 -20 -94
c34.667 18 60.334 27 77.001 27c3.33301 0 5 -1 5 -3c0 -2.66699 -6 -5.33398 -18 -8.00098c-18.667 -4.66699 -39.667 -13 -63 -25c11.333 -65.333 49.333 -98 114 -98c32.667 0 67.667 11.667 105 35c5.33301 19.333 8 38 8 56zM608.997 316.005
c-36 -20.667 -70.334 -30.999 -103.001 -30.999s-59.667 9 -81 27s-34.666 42.667 -39.999 74c-36.667 -22 -66.167 -50 -88.5 -84s-33.5 -67.667 -33.5 -101c0 -30.667 9 -55.334 27 -74.001s41.667 -28 71 -28c46.667 0 93.667 20.833 141 62.5s83 93.167 107 154.5z" />
    <glyph glyph-name="Adieresis" unicode="&#xc4;" horiz-adv-x="953" 
d="M1370 763c0 -12.667 -4.66797 -23.833 -14.001 -33.5s-19.666 -14.5 -30.999 -14.5c-16 0 -24 7.66699 -24 23c0 11.333 5 21.833 15 31.5s20.667 14.5 32 14.5c14.667 0 22 -7 22 -21zM1285 763.001c0 -12.667 -4.66797 -23.833 -14.001 -33.5
s-19.666 -14.5 -30.999 -14.5c-16 0 -24 7.66699 -24 23c0 11.333 5 21.833 15 31.5s20.667 14.5 32 14.5c14.667 0 22 -7 22 -21zM1441 584.002c0 -6 -3.33301 -9 -10 -9c-4.66699 0 -15.667 2 -33 6c-34.667 8 -64 12 -88 12
c-54.667 -17.333 -101.167 -48.166 -139.5 -92.499s-84.833 -120.833 -139.5 -229.5c-78 -154.667 -177.667 -246 -299 -274c25.333 -4 47.666 -6 66.999 -6c59.333 0 109.666 19.333 150.999 58c24 22.667 56.667 61.667 98 117c3.33301 4.66699 6 7 8 7
c1.33301 -0.666992 2 -1.66699 2 -3c0 -4.66699 -18.667 -29.667 -56 -75c-34.667 -42.667 -66.167 -71.834 -94.5 -87.501s-63.5 -23.5 -105.5 -23.5c-24 0 -53 3.33301 -87 10c-22 -6.66699 -46 -10 -72 -10c-18.667 0 -28 3.33301 -28 10c0 8 12.667 12 38 12
c16.667 0 37.334 -1.66699 62.001 -5c50 11.333 88.333 31.5 115 60.5s76.334 103.5 149.001 223.5h-188c-182 -201.333 -339.667 -302 -473 -302c-60.667 0 -108.667 17 -144 51s-53 79.667 -53 137c0 70.667 27.333 137.667 82 201s122.667 107.333 204 132
c27.333 53.333 68.5 97.333 123.5 132s110.833 52 167.5 52c33.333 0 59.833 -8.5 79.5 -25.5s29.5 -40.167 29.5 -69.5c0 -22.667 -7.66699 -49 -23 -79c-14 -27.333 -21 -46 -21 -56c0 -24 14 -36 42 -36c32.667 0 66.334 24 101.001 72c2.66699 4 5 6 7 6
c2.66699 0 4 -1.33301 4 -4c0 -3.33301 -7.66699 -13.666 -23 -30.999c-30.667 -34.667 -60.334 -52 -89.001 -52c-18.667 0 -33.834 6.66699 -45.501 20s-17.5 30.666 -17.5 51.999c0 20 10.667 49.333 32 88c10 18 15 33.667 15 47c0 16.667 -9 30.667 -27 42
s-40 17 -66 17c-52.667 0 -105.167 -16.333 -157.5 -49s-92.166 -73.667 -119.499 -123c24 5.33301 45.333 8 64 8c48 0 85.667 -12.667 113 -38s41 -60.333 41 -105c0 -10.667 -0.666992 -20 -2 -28c26.667 21.333 47.667 49.666 63 84.999c0.666992 3.33301 2 5 4 5
c2.66699 0 4 -1.66699 4 -5c0 -9.33301 -7.5 -24 -22.5 -44s-31.833 -37.667 -50.5 -53c-11.333 -62.667 -44.833 -118.667 -100.5 -168s-112.5 -74 -170.5 -74c-31.333 0 -57.333 10.167 -78 30.5s-31 45.833 -31 76.5c0 37.333 12 74 36 110s55.667 65.333 95 88
c-0.666992 8 -1 14 -1 18c0 23.333 5.66699 49 17 77c-69.333 -25.333 -128.666 -70.666 -177.999 -135.999s-74 -131.333 -74 -198c0 -49.333 15.333 -89 46 -119s71.667 -45 123 -45c59.333 0 118.166 20.333 176.499 61s139.833 118 244.5 232
c-44 0 -75.667 -0.333008 -95 -1l7 10c30.667 0 62.667 -0.333008 96 -1c95.333 106 187.833 183.333 277.5 232s184.5 73.667 284.5 75c21.333 4.66699 43 7 65 7c45.333 0 68 -7.66699 68 -23zM1286 591.002c-84.667 -4.66699 -163.167 -28.999 -235.5 -72.999
s-156.5 -119 -252.5 -225h186c40.667 71.333 90.5 136.166 149.5 194.499s109.833 92.833 152.5 103.5zM620.998 384.003c0 37.333 -12.168 67.168 -36.501 89.501s-56.833 33.5 -97.5 33.5c-24 0 -48.667 -4.33301 -74 -13c-13.333 -30 -20 -61.333 -20 -94
c34.667 18 60.334 27 77.001 27c3.33301 0 5 -1 5 -3c0 -2.66699 -6 -5.33398 -18 -8.00098c-18.667 -4.66699 -39.667 -13 -63 -25c11.333 -65.333 49.333 -98 114 -98c32.667 0 67.667 11.667 105 35c5.33301 19.333 8 38 8 56zM608.997 316.005
c-36 -20.667 -70.334 -30.999 -103.001 -30.999s-59.667 9 -81 27s-34.666 42.667 -39.999 74c-36.667 -22 -66.167 -50 -88.5 -84s-33.5 -67.667 -33.5 -101c0 -30.667 9 -55.334 27 -74.001s41.667 -28 71 -28c46.667 0 93.667 20.833 141 62.5s83 93.167 107 154.5z" />
    <glyph glyph-name="Aring" unicode="&#xc5;" horiz-adv-x="953" 
d="M1351 798c0 -20.667 -8.66797 -40.334 -26.001 -59.001s-35.666 -28 -54.999 -28c-20 0 -30 9.66699 -30 29c0 20.667 9 40.334 27 59.001s37 28 57 28c18 0 27 -9.66699 27 -29zM1441 584c0 -6 -3.33301 -9 -10 -9c-4.66699 0 -15.667 2 -33 6c-34.667 8 -64 12 -88 12
c-54.667 -17.333 -101.167 -48.166 -139.5 -92.499s-84.833 -120.833 -139.5 -229.5c-78 -154.667 -177.667 -246 -299 -274c25.333 -4 47.666 -6 66.999 -6c59.333 0 109.666 19.333 150.999 58c24 22.667 56.667 61.667 98 117c3.33301 4.66699 6 7 8 7
c1.33301 -0.666992 2 -1.66699 2 -3c0 -4.66699 -18.667 -29.667 -56 -75c-34.667 -42.667 -66.167 -71.834 -94.5 -87.501s-63.5 -23.5 -105.5 -23.5c-24 0 -53 3.33301 -87 10c-22 -6.66699 -46 -10 -72 -10c-18.667 0 -28 3.33301 -28 10c0 8 12.667 12 38 12
c16.667 0 37.334 -1.66699 62.001 -5c50 11.333 88.333 31.5 115 60.5s76.334 103.5 149.001 223.5h-188c-182 -201.333 -339.667 -302 -473 -302c-60.667 0 -108.667 17 -144 51s-53 79.667 -53 137c0 70.667 27.333 137.667 82 201s122.667 107.333 204 132
c27.333 53.333 68.5 97.333 123.5 132s110.833 52 167.5 52c33.333 0 59.833 -8.5 79.5 -25.5s29.5 -40.167 29.5 -69.5c0 -22.667 -7.66699 -49 -23 -79c-14 -27.333 -21 -46 -21 -56c0 -24 14 -36 42 -36c32.667 0 66.334 24 101.001 72c2.66699 4 5 6 7 6
c2.66699 0 4 -1.33301 4 -4c0 -3.33301 -7.66699 -13.666 -23 -30.999c-30.667 -34.667 -60.334 -52 -89.001 -52c-18.667 0 -33.834 6.66699 -45.501 20s-17.5 30.666 -17.5 51.999c0 20 10.667 49.333 32 88c10 18 15 33.667 15 47c0 16.667 -9 30.667 -27 42
s-40 17 -66 17c-52.667 0 -105.167 -16.333 -157.5 -49s-92.166 -73.667 -119.499 -123c24 5.33301 45.333 8 64 8c48 0 85.667 -12.667 113 -38s41 -60.333 41 -105c0 -10.667 -0.666992 -20 -2 -28c26.667 21.333 47.667 49.666 63 84.999c0.666992 3.33301 2 5 4 5
c2.66699 0 4 -1.66699 4 -5c0 -9.33301 -7.5 -24 -22.5 -44s-31.833 -37.667 -50.5 -53c-11.333 -62.667 -44.833 -118.667 -100.5 -168s-112.5 -74 -170.5 -74c-31.333 0 -57.333 10.167 -78 30.5s-31 45.833 -31 76.5c0 37.333 12 74 36 110s55.667 65.333 95 88
c-0.666992 8 -1 14 -1 18c0 23.333 5.66699 49 17 77c-69.333 -25.333 -128.666 -70.666 -177.999 -135.999s-74 -131.333 -74 -198c0 -49.333 15.333 -89 46 -119s71.667 -45 123 -45c59.333 0 118.166 20.333 176.499 61s139.833 118 244.5 232
c-44 0 -75.667 -0.333008 -95 -1l7 10c30.667 0 62.667 -0.333008 96 -1c95.333 106 187.833 183.333 277.5 232s184.5 73.667 284.5 75c21.333 4.66699 43 7 65 7c45.333 0 68 -7.66699 68 -23zM1339 800c0 10.667 -5 15.998 -15 15.998c-14 0 -29.333 -9.16699 -46 -27.5
s-25 -35.166 -25 -50.499c0 -10.667 5 -16 15 -16c13.333 0 28.5 9.33301 45.5 28s25.5 35.334 25.5 50.001zM1286 590.998c-84.667 -4.66699 -163.167 -28.999 -235.5 -72.999s-156.5 -119 -252.5 -225h186c40.667 71.333 90.5 136.166 149.5 194.499
s109.833 92.833 152.5 103.5zM620.999 383.999c0 37.333 -12.168 67.168 -36.501 89.501s-56.833 33.5 -97.5 33.5c-24 0 -48.667 -4.33301 -74 -13c-13.333 -30 -20 -61.333 -20 -94c34.667 18 60.334 27 77.001 27c3.33301 0 5 -1 5 -3
c0 -2.66699 -6 -5.33398 -18 -8.00098c-18.667 -4.66699 -39.667 -13 -63 -25c11.333 -65.333 49.333 -98 114 -98c32.667 0 67.667 11.667 105 35c5.33301 19.333 8 38 8 56zM608.998 316.001c-36 -20.667 -70.334 -30.999 -103.001 -30.999s-59.667 9 -81 27
s-34.666 42.667 -39.999 74c-36.667 -22 -66.167 -50 -88.5 -84s-33.5 -67.667 -33.5 -101c0 -30.667 9 -55.334 27 -74.001s41.667 -28 71 -28c46.667 0 93.667 20.833 141 62.5s83 93.167 107 154.5z" />
    <glyph glyph-name="AE" unicode="&#xc6;" horiz-adv-x="1337" 
d="M1533 547c0 -22 -20.001 -32.999 -60.001 -32.999c-29.333 0 -76 7.66699 -140 23c-6 1.33301 -27.333 6.66602 -64 15.999c-4.66699 1.33301 -11.334 3 -20.001 5c-55.333 -30.667 -83 -70.334 -83 -119.001c0 -23.333 7.66699 -39.333 23 -48c22 2 38.667 3 50 3
c36 0 54 -4 54 -12c0 -5.33301 -7.66699 -8 -23 -8c-24.667 0 -50.667 3.66699 -78 11c-31.333 -4.66699 -66.666 -15.667 -105.999 -33s-73.333 -37 -102 -59h85l-5 -8h-90c-61.333 -53.333 -92 -109.333 -92 -168c0 -62 33.667 -101.667 101 -119
c-12.667 19.333 -19 42 -19 68c0 64.667 32.667 124 98 178s137.333 81 216 81c35.333 0 63.666 -8.83301 84.999 -26.5s32 -41.167 32 -70.5c0 -63.333 -34.833 -120.5 -104.5 -171.5s-148.167 -76.5 -235.5 -76.5c-17.333 0 -33.666 1 -48.999 3
c28.667 -42 75 -63 139 -63c36 0 66.667 5.66699 92 17l6 1c2 -0.666992 3 -2 3 -4c0 -4.66699 -11.833 -9.5 -35.5 -14.5s-45.5 -7.5 -65.5 -7.5c-70 0 -122 24.667 -156 74c-48.667 9.33301 -87.334 27.833 -116.001 55.5s-43 59.834 -43 96.501
c0 50.667 25.667 99.667 77 147h-116c-182 -201.333 -339.667 -302 -473 -302c-60.667 0 -108.667 17 -144 51s-53 79.667 -53 137c0 70.667 27.333 137.667 82 201s122.667 107.333 204 132c26.667 51.333 67.167 94.833 121.5 130.5s107.833 53.5 160.5 53.5
c31.333 0 56.666 -8.66699 75.999 -26s29 -40.333 29 -69c0 -23.333 -7.5 -49.166 -22.5 -77.499s-22.5 -47.5 -22.5 -57.5c0 -24 14.333 -36 43 -36c32.667 0 66.334 24 101.001 72c2.66699 4 5 6 7 6c2.66699 0 4 -1.33301 4 -4s-7.66699 -13 -23 -31
c-30 -34.667 -59.667 -52 -89 -52c-19.333 0 -34.833 6.66699 -46.5 20s-17.5 30.666 -17.5 51.999c0 18.667 11 48 33 88c10 18 15 33.667 15 47c0 15.333 -8.83301 29 -26.5 41s-38.167 18 -61.5 18c-27.333 0 -59.666 -7.66699 -96.999 -23s-69.333 -34 -96 -56
c-31.333 -26 -56.666 -57 -75.999 -93c24 5.33301 45.333 8 64 8c48 0 85.667 -12.667 113 -38s41 -60.333 41 -105c0 -10.667 -0.666992 -20 -2 -28c26.667 21.333 47.667 49.666 63 84.999c0.666992 3.33301 2 5 4 5c2.66699 0 4 -1.66699 4 -5
c0 -9.33301 -7.5 -24 -22.5 -44s-31.833 -37.667 -50.5 -53c-11.333 -62.667 -44.833 -118.667 -100.5 -168s-112.5 -74 -170.5 -74c-31.333 0 -57.333 10.167 -78 30.5s-31 45.833 -31 76.5c0 37.333 12 74 36 110s55.667 65.333 95 88c-0.666992 8 -1 14 -1 18
c0 23.333 5.66699 49 17 77c-69.333 -25.333 -128.666 -70.666 -177.999 -135.999s-74 -131.333 -74 -198c0 -49.333 15.333 -89 46 -119s71.667 -45 123 -45c59.333 0 118.166 20.333 176.499 61s139.833 118 244.5 232c-44 0 -75.667 -0.333008 -95 -1l7 10
c30.667 0 62.667 -0.333008 96 -1c95.333 109.333 173.333 185.5 234 228.5s120 64.5 178 64.5c14 0 35 -3 63 -9c46 20.667 96.667 31 152 31c44 0 81.667 -6 113 -18s47 -26.333 47 -43zM1523 548.001c0 12.667 -13.5 23.833 -40.5 33.5s-57.833 14.5 -92.5 14.5
c-46 0 -89.333 -10.333 -130 -31c92 -28 164 -42 216 -42c31.333 0 47 8.33301 47 25zM1210 572l-8.00098 1.00098c-26.667 3.33301 -40.667 5 -42 5c-48 0 -94.667 -17.833 -140 -53.5s-119.333 -112.834 -222 -231.501h119c62.667 50.667 150.334 83 263.001 97
c-36 14.667 -54 38.667 -54 72c0 43.333 28 80 84 110zM1386 233.001c0 23.333 -9.33301 42.666 -28 57.999s-42.334 23 -71.001 23c-70 0 -138.333 -29.167 -205 -87.5s-100 -118.166 -100 -179.499c0 -17.333 5.66699 -35 17 -53c16.667 -3.33301 33.334 -5 50.001 -5
c78 0 153.667 26.5 227 79.5s110 107.833 110 164.5zM620.998 384.001c0 37.333 -12.168 67.168 -36.501 89.501s-56.833 33.5 -97.5 33.5c-24 0 -48.667 -4.33301 -74 -13c-13.333 -30 -20 -61.333 -20 -94c34.667 18 60.334 27 77.001 27c3.33301 0 5 -1 5 -3
c0 -2.66699 -6 -5.33398 -18 -8.00098c-18.667 -4.66699 -39.667 -13 -63 -25c11.333 -65.333 49.333 -98 114 -98c32.667 0 67.667 11.667 105 35c5.33301 19.333 8 38 8 56zM608.997 316.003c-36 -20.667 -70.334 -30.999 -103.001 -30.999s-59.667 9 -81 27
s-34.666 42.667 -39.999 74c-36.667 -22 -66.167 -50 -88.5 -84s-33.5 -67.667 -33.5 -101c0 -30.667 9 -55.334 27 -74.001s41.667 -28 71 -28c46.667 0 93.667 20.833 141 62.5s83 93.167 107 154.5z" />
    <glyph glyph-name="Ccedilla" unicode="&#xc7;" horiz-adv-x="797" 
d="M936 542c0 -20.667 -14.665 -42.6689 -43.998 -66.002c26.667 -41.333 40 -77.666 40 -108.999c0 -8 -2.33301 -12 -7 -12c-4 0 -6 5.33301 -6 16c-0.666992 32 -12 65 -34 99c-48.667 -35.333 -113.334 -65.666 -194.001 -90.999s-152.334 -38 -215.001 -38
c-8.66699 0 -16.334 0.333008 -23.001 1c-52 -72.667 -78 -142.667 -78 -210c0 -44.667 13.833 -80.167 41.5 -106.5s65.167 -40.166 112.5 -41.499c-26.667 28 -40 64 -40 108c0 65.333 28.833 126.166 86.5 182.499s120.167 84.5 187.5 84.5c64.667 0 97 -34 97 -102
s-31.167 -130.5 -93.5 -187.5s-133.833 -88.167 -214.5 -93.5c26.667 -21.333 61.334 -32 104.001 -32c45.333 0 86.666 14.333 123.999 43c3.33301 2.66699 6 4 8 4s3 -1 3 -3c0 -8.66699 -17.167 -19.5 -51.5 -32.5s-62.166 -19.5 -83.499 -19.5c-46.667 0 -86 13 -118 39
c-26.667 0 -54.334 4.66699 -83.001 14c24 -17.333 36 -35 36 -53c0 -28.667 -16.333 -43 -49 -43c-14.667 0 -35.167 6.66699 -61.5 20s-39.5 24 -39.5 32c0.666992 2 1.66699 3 3 3c2 0 5.33301 -1.66699 10 -5c20.667 -14.667 41.334 -22 62.001 -22
c11.333 0 21 3.33301 29 10s12 14.667 12 24c0 17.333 -13.5 35.166 -40.5 53.499s-48.5 42.833 -64.5 73.5s-24 62 -24 94c0 56 19.333 113 58 171c-67.333 11.333 -119.333 31.333 -156 60s-55 64.334 -55 107.001c0 51.333 26 94 78 128s117.333 51 196 51
c110 0 220.333 -36.333 331 -109c19.333 4 38.333 6 57 6c66 0 99 -16 99 -48zM928.002 541.998c0 26.667 -26 40 -78 40c-18 0 -37.333 -2.33301 -58 -7c36 -25.333 68 -56.333 96 -93c26.667 22 40 42 40 60zM881.002 476.998c-24.667 36.667 -58.334 68.667 -101.001 96
c-60 -15.333 -119.167 -43.5 -177.5 -84.5s-106.166 -87.5 -143.499 -139.5h12c62.667 0 134.167 12.5 214.5 37.5s145.5 55.167 195.5 90.5zM766.002 581.998c-99.333 57.333 -204.332 86 -314.999 86c-69.333 0 -129.833 -16.333 -181.5 -49s-77.5 -70.667 -77.5 -114
c0 -76 66 -126.667 198 -152c81.333 114.667 206.666 191 375.999 229zM848.003 268.998c0 25.333 -7.16797 45.166 -21.501 59.499s-34.166 21.5 -59.499 21.5c-55.333 0 -111.333 -30.667 -168 -92s-85 -122.333 -85 -183c0 -37.333 9.66699 -67.666 29 -90.999
c68.667 0 136.667 31.5 204 94.5s101 126.5 101 190.5z" />
    <glyph glyph-name="Egrave" unicode="&#xc8;" horiz-adv-x="872" 
d="M980 703c-0.666992 -1.33301 -1.66504 -2.00098 -2.99805 -2.00098c-8.66699 0 -19.834 12.333 -33.501 37s-23.834 51.334 -30.501 80.001l44 30c-6 -16 -9 -32.333 -9 -49c0 -35.333 9.33301 -65 28 -89l1 -2c2 -2 3 -3.66699 3 -5zM1067 546.999
c0 -22 -20.001 -33 -60.001 -33c-26 0 -48.333 1.83301 -67 5.5s-71 16.5 -157 38.5c-55.333 -31.333 -83 -71 -83 -119c0 -22.667 7.66699 -39 23 -49c18 2.66699 35.667 4 53 4c34 0 51 -4 51 -12c0 -5.33301 -9.33301 -8 -28 -8c-20.667 0 -45 3.33301 -73 10
c-29.333 -4 -63.333 -14.333 -102 -31c-6.66699 -42 -29 -80 -67 -114s-81.333 -54.667 -130 -62c-6.66699 -22.667 -10 -43 -10 -61c0 -62 33.333 -101.333 100 -118c-12.667 19.333 -19 42 -19 68c0 64.667 32.667 124 98 178s137.333 81 216 81
c34.667 0 62.834 -8.83301 84.501 -26.5s32.5 -41.167 32.5 -70.5c0 -63.333 -34.833 -120.5 -104.5 -171.5s-148.167 -76.5 -235.5 -76.5c-17.333 0 -33.666 1 -48.999 3c29.333 -42 75.666 -63 138.999 -63c36 0 66.667 5.66699 92 17l6 1c2 -0.666992 3 -2 3 -4
c0 -4.66699 -11.833 -9.5 -35.5 -14.5s-45.5 -7.5 -65.5 -7.5c-68 0 -120 24.667 -156 74c-106 24 -159 74.333 -159 151c0 11.333 1.33301 23.333 4 36c-64 1.33301 -115.833 19.333 -155.5 54s-59.5 79.334 -59.5 134.001c0 72.667 31.333 133 94 181s141 72 235 72
c68 0 157.667 -13 269 -39c44.667 21.333 96.667 32 156 32c44.667 0 82.5 -5.83301 113.5 -17.5s46.5 -25.834 46.5 -42.501zM1057 546.999c0 12.667 -13.5 23.833 -40.5 33.5s-57.833 14.5 -92.5 14.5c-46 0 -89.333 -10.333 -130 -31c90 -27.333 162.333 -41 217 -41
c30.667 0 46 8 46 24zM920.001 231.998c0 23.333 -9.33203 42.668 -27.999 58.001s-42.334 23 -71.001 23c-70 0 -138.333 -29 -205 -87s-100 -117.333 -100 -178c0 -18 5.66699 -36 17 -54c18.667 -3.33301 36 -5 52 -5c76.667 0 151.667 26.667 225 80
s110 107.666 110 162.999zM740.002 570c-82 16.667 -150.668 25 -206.001 25c-101.333 0 -187.166 -24.5 -257.499 -73.5s-105.5 -109.167 -105.5 -180.5c0 -45.333 18.5 -82.833 55.5 -112.5s84.833 -45.5 143.5 -47.5c13.333 42.667 42.333 81.334 87 116.001
s97.667 59.334 159 74.001c0.666992 4 1 8.33301 1 13c0 34.667 -12.5 64.667 -37.5 90s-57.5 41.333 -97.5 48c-3.33301 1.33301 -5 2.66602 -5 3.99902c0 3.33301 2.33301 5 7 5c9.33301 0 23 -3.66699 41 -11s32.333 -15 43 -23c38.667 -29.333 58 -70.333 58 -123
c26.667 6 56 11 88 15c-36 15.333 -54 39.333 -54 72c0 43.333 26.667 79.666 80 108.999zM613.001 348c-95.333 -42.667 -156.333 -96.667 -183 -162c45.333 8.66699 85 28 119 58s55.333 64.667 64 104z" />
    <glyph glyph-name="Eacute" unicode="&#xc9;" horiz-adv-x="872" 
d="M1145 811c-31.333 -23.333 -72.999 -46.333 -124.999 -69c-38 -16.667 -60.333 -25 -67 -25c-2 0 -3 0.666992 -3 2c0 0.666992 2 2 6 4c32 15.333 64.667 34.833 98 58.5s56.666 44.5 69.999 62.5zM1067 547c0 -22 -20.001 -33 -60.001 -33
c-26 0 -48.333 1.83301 -67 5.5s-71 16.5 -157 38.5c-55.333 -31.333 -83 -71 -83 -119c0 -22.667 7.66699 -39 23 -49c18 2.66699 35.667 4 53 4c34 0 51 -4 51 -12c0 -5.33301 -9.33301 -8 -28 -8c-20.667 0 -45 3.33301 -73 10c-29.333 -4 -63.333 -14.333 -102 -31
c-6.66699 -42 -29 -80 -67 -114s-81.333 -54.667 -130 -62c-6.66699 -22.667 -10 -43 -10 -61c0 -62 33.333 -101.333 100 -118c-12.667 19.333 -19 42 -19 68c0 64.667 32.667 124 98 178s137.333 81 216 81c34.667 0 62.834 -8.83301 84.501 -26.5
s32.5 -41.167 32.5 -70.5c0 -63.333 -34.833 -120.5 -104.5 -171.5s-148.167 -76.5 -235.5 -76.5c-17.333 0 -33.666 1 -48.999 3c29.333 -42 75.666 -63 138.999 -63c36 0 66.667 5.66699 92 17l6 1c2 -0.666992 3 -2 3 -4c0 -4.66699 -11.833 -9.5 -35.5 -14.5
s-45.5 -7.5 -65.5 -7.5c-68 0 -120 24.667 -156 74c-106 24 -159 74.333 -159 151c0 11.333 1.33301 23.333 4 36c-64 1.33301 -115.833 19.333 -155.5 54s-59.5 79.334 -59.5 134.001c0 72.667 31.333 133 94 181s141 72 235 72c68 0 157.667 -13 269 -39
c44.667 21.333 96.667 32 156 32c44.667 0 82.5 -5.83301 113.5 -17.5s46.5 -25.834 46.5 -42.501zM1057 547c0 12.667 -13.5 23.833 -40.5 33.5s-57.833 14.5 -92.5 14.5c-46 0 -89.333 -10.333 -130 -31c90 -27.333 162.333 -41 217 -41c30.667 0 46 8 46 24zM920 231.999
c0 23.333 -9.33203 42.668 -27.999 58.001s-42.334 23 -71.001 23c-70 0 -138.333 -29 -205 -87s-100 -117.333 -100 -178c0 -18 5.66699 -36 17 -54c18.667 -3.33301 36 -5 52 -5c76.667 0 151.667 26.667 225 80s110 107.666 110 162.999zM740.001 570.001
c-82 16.667 -150.668 25 -206.001 25c-101.333 0 -187.166 -24.5 -257.499 -73.5s-105.5 -109.167 -105.5 -180.5c0 -45.333 18.5 -82.833 55.5 -112.5s84.833 -45.5 143.5 -47.5c13.333 42.667 42.333 81.334 87 116.001s97.667 59.334 159 74.001
c0.666992 4 1 8.33301 1 13c0 34.667 -12.5 64.667 -37.5 90s-57.5 41.333 -97.5 48c-3.33301 1.33301 -5 2.66602 -5 3.99902c0 3.33301 2.33301 5 7 5c9.33301 0 23 -3.66699 41 -11s32.333 -15 43 -23c38.667 -29.333 58 -70.333 58 -123c26.667 6 56 11 88 15
c-36 15.333 -54 39.333 -54 72c0 43.333 26.667 79.666 80 108.999zM613 348.001c-95.333 -42.667 -156.333 -96.667 -183 -162c45.333 8.66699 85 28 119 58s55.333 64.667 64 104z" />
    <glyph glyph-name="Ecircumflex" unicode="&#xca;" horiz-adv-x="872" 
d="M1065 844c-2 -24 -5.00098 -64.667 -9.00098 -122c0 -2.66699 -0.666992 -4 -2 -4c-1.33301 0.666992 -2 2 -2 4c-2 33.333 -6 56.333 -12 69c-19.333 -13.333 -49.666 -29 -90.999 -47s-67.333 -27 -78 -27c-2 0 -3 0.666992 -3 2c0.666992 0.666992 3 2 7 4
c36 15.333 72.833 35 110.5 59s64.167 44.667 79.5 62zM1067 547c0 -22 -20.001 -33 -60.001 -33c-26 0 -48.333 1.83301 -67 5.5s-71 16.5 -157 38.5c-55.333 -31.333 -83 -71 -83 -119c0 -22.667 7.66699 -39 23 -49c18 2.66699 35.667 4 53 4c34 0 51 -4 51 -12
c0 -5.33301 -9.33301 -8 -28 -8c-20.667 0 -45 3.33301 -73 10c-29.333 -4 -63.333 -14.333 -102 -31c-6.66699 -42 -29 -80 -67 -114s-81.333 -54.667 -130 -62c-6.66699 -22.667 -10 -43 -10 -61c0 -62 33.333 -101.333 100 -118c-12.667 19.333 -19 42 -19 68
c0 64.667 32.667 124 98 178s137.333 81 216 81c34.667 0 62.834 -8.83301 84.501 -26.5s32.5 -41.167 32.5 -70.5c0 -63.333 -34.833 -120.5 -104.5 -171.5s-148.167 -76.5 -235.5 -76.5c-17.333 0 -33.666 1 -48.999 3c29.333 -42 75.666 -63 138.999 -63
c36 0 66.667 5.66699 92 17l6 1c2 -0.666992 3 -2 3 -4c0 -4.66699 -11.833 -9.5 -35.5 -14.5s-45.5 -7.5 -65.5 -7.5c-68 0 -120 24.667 -156 74c-106 24 -159 74.333 -159 151c0 11.333 1.33301 23.333 4 36c-64 1.33301 -115.833 19.333 -155.5 54
s-59.5 79.334 -59.5 134.001c0 72.667 31.333 133 94 181s141 72 235 72c68 0 157.667 -13 269 -39c44.667 21.333 96.667 32 156 32c44.667 0 82.5 -5.83301 113.5 -17.5s46.5 -25.834 46.5 -42.501zM1057 547c0 12.667 -13.5 23.833 -40.5 33.5s-57.833 14.5 -92.5 14.5
c-46 0 -89.333 -10.333 -130 -31c90 -27.333 162.333 -41 217 -41c30.667 0 46 8 46 24zM919.998 231.999c0 23.333 -9.33203 42.668 -27.999 58.001s-42.334 23 -71.001 23c-70 0 -138.333 -29 -205 -87s-100 -117.333 -100 -178c0 -18 5.66699 -36 17 -54
c18.667 -3.33301 36 -5 52 -5c76.667 0 151.667 26.667 225 80s110 107.666 110 162.999zM739.999 570.001c-82 16.667 -150.668 25 -206.001 25c-101.333 0 -187.166 -24.5 -257.499 -73.5s-105.5 -109.167 -105.5 -180.5c0 -45.333 18.5 -82.833 55.5 -112.5
s84.833 -45.5 143.5 -47.5c13.333 42.667 42.333 81.334 87 116.001s97.667 59.334 159 74.001c0.666992 4 1 8.33301 1 13c0 34.667 -12.5 64.667 -37.5 90s-57.5 41.333 -97.5 48c-3.33301 1.33301 -5 2.66602 -5 3.99902c0 3.33301 2.33301 5 7 5
c9.33301 0 23 -3.66699 41 -11s32.333 -15 43 -23c38.667 -29.333 58 -70.333 58 -123c26.667 6 56 11 88 15c-36 15.333 -54 39.333 -54 72c0 43.333 26.667 79.666 80 108.999zM612.998 348.001c-95.333 -42.667 -156.333 -96.667 -183 -162c45.333 8.66699 85 28 119 58
s55.333 64.667 64 104z" />
    <glyph glyph-name="Edieresis" unicode="&#xcb;" horiz-adv-x="872" 
d="M1021 763c0 -12.667 -4.66797 -23.833 -14.001 -33.5s-19.666 -14.5 -30.999 -14.5c-16 0 -24 7.66699 -24 23c0 11.333 5 21.833 15 31.5s20.667 14.5 32 14.5c14.667 0 22 -7 22 -21zM935.999 763.001c0 -12.667 -4.66797 -23.833 -14.001 -33.5
s-19.666 -14.5 -30.999 -14.5c-16 0 -24 7.66699 -24 23c0 11.333 5 21.833 15 31.5s20.667 14.5 32 14.5c14.667 0 22 -7 22 -21zM1067 547.002c0 -22 -20.001 -33 -60.001 -33c-26 0 -48.333 1.83301 -67 5.5s-71 16.5 -157 38.5c-55.333 -31.333 -83 -71 -83 -119
c0 -22.667 7.66699 -39 23 -49c18 2.66699 35.667 4 53 4c34 0 51 -4 51 -12c0 -5.33301 -9.33301 -8 -28 -8c-20.667 0 -45 3.33301 -73 10c-29.333 -4 -63.333 -14.333 -102 -31c-6.66699 -42 -29 -80 -67 -114s-81.333 -54.667 -130 -62
c-6.66699 -22.667 -10 -43 -10 -61c0 -62 33.333 -101.333 100 -118c-12.667 19.333 -19 42 -19 68c0 64.667 32.667 124 98 178s137.333 81 216 81c34.667 0 62.834 -8.83301 84.501 -26.5s32.5 -41.167 32.5 -70.5c0 -63.333 -34.833 -120.5 -104.5 -171.5
s-148.167 -76.5 -235.5 -76.5c-17.333 0 -33.666 1 -48.999 3c29.333 -42 75.666 -63 138.999 -63c36 0 66.667 5.66699 92 17l6 1c2 -0.666992 3 -2 3 -4c0 -4.66699 -11.833 -9.5 -35.5 -14.5s-45.5 -7.5 -65.5 -7.5c-68 0 -120 24.667 -156 74
c-106 24 -159 74.333 -159 151c0 11.333 1.33301 23.333 4 36c-64 1.33301 -115.833 19.333 -155.5 54s-59.5 79.334 -59.5 134.001c0 72.667 31.333 133 94 181s141 72 235 72c68 0 157.667 -13 269 -39c44.667 21.333 96.667 32 156 32
c44.667 0 82.5 -5.83301 113.5 -17.5s46.5 -25.834 46.5 -42.501zM1057 547.002c0 12.667 -13.5 23.833 -40.5 33.5s-57.833 14.5 -92.5 14.5c-46 0 -89.333 -10.333 -130 -31c90 -27.333 162.333 -41 217 -41c30.667 0 46 8 46 24zM919.997 232.001
c0 23.333 -9.33203 42.668 -27.999 58.001s-42.334 23 -71.001 23c-70 0 -138.333 -29 -205 -87s-100 -117.333 -100 -178c0 -18 5.66699 -36 17 -54c18.667 -3.33301 36 -5 52 -5c76.667 0 151.667 26.667 225 80s110 107.666 110 162.999zM739.998 570.003
c-82 16.667 -150.668 25 -206.001 25c-101.333 0 -187.166 -24.5 -257.499 -73.5s-105.5 -109.167 -105.5 -180.5c0 -45.333 18.5 -82.833 55.5 -112.5s84.833 -45.5 143.5 -47.5c13.333 42.667 42.333 81.334 87 116.001s97.667 59.334 159 74.001
c0.666992 4 1 8.33301 1 13c0 34.667 -12.5 64.667 -37.5 90s-57.5 41.333 -97.5 48c-3.33301 1.33301 -5 2.66602 -5 3.99902c0 3.33301 2.33301 5 7 5c9.33301 0 23 -3.66699 41 -11s32.333 -15 43 -23c38.667 -29.333 58 -70.333 58 -123c26.667 6 56 11 88 15
c-36 15.333 -54 39.333 -54 72c0 43.333 26.667 79.666 80 108.999zM612.997 348.003c-95.333 -42.667 -156.333 -96.667 -183 -162c45.333 8.66699 85 28 119 58s55.333 64.667 64 104z" />
    <glyph glyph-name="Igrave" unicode="&#xcc;" horiz-adv-x="719" 
d="M1018 703c-0.666992 -1.33301 -1.66504 -2.00098 -2.99805 -2.00098c-8.66699 0 -19.834 12.333 -33.501 37s-23.834 51.334 -30.501 80.001l44 30c-6 -16 -9 -32.333 -9 -49c0 -35.333 9.33301 -65 28 -89l1 -2c2 -2 3 -3.66699 3 -5zM1098 645.999
c0 -5.33301 -13.5 -14 -40.5 -26s-57.833 -22.667 -92.5 -32c-44.667 -32.667 -85.834 -73.5 -123.501 -122.5s-79.5 -116.5 -125.5 -202.5c4 -0.666992 8.66699 -1 14 -1c39.333 0 75.833 12.167 109.5 36.5s54.167 53.833 61.5 88.5c1.33301 5.33301 3 8 5 8
s3 -1.33301 3 -4c0 -19.333 -10.667 -42 -32 -68c-16.667 -20 -38.667 -36.5 -66 -49.5s-54.333 -19.5 -81 -19.5c-4.66699 0 -10.667 0.333008 -18 1c-30 -54.667 -48.833 -88 -56.5 -100s-19.5 -26.667 -35.5 -44c-37.333 -40.667 -84 -73 -140 -97s-111.667 -36 -167 -36
c-63.333 0 -114.166 16.167 -152.499 48.5s-57.5 75.5 -57.5 129.5c0 68.667 32.333 130.667 97 186s136.667 83 216 83c45.333 0 81.666 -12.667 108.999 -38s41 -59.333 41 -102c0 -58.667 -24.333 -112.667 -73 -162s-102 -74 -160 -74
c-30.667 0 -56.5 10.833 -77.5 32.5s-31.5 48.5 -31.5 80.5c0 44 19.667 83.333 59 118s84 52 134 52c16.667 0 32.834 -4.33301 48.501 -13s23.5 -17.667 23.5 -27c0 -2 -1.33301 -3 -4 -3c-0.666992 0 -2 1 -4 3c-14 21.333 -33.667 32 -59 32
c-42.667 0 -83 -18.667 -121 -56s-57 -77 -57 -119c0 -28 8.33301 -50.167 25 -66.5s39.334 -24.5 68.001 -24.5c53.333 0 103.333 24.333 150 73s70 100.334 70 155.001c0 38 -12.833 69.167 -38.5 93.5s-58.5 36.5 -98.5 36.5c-75.333 0 -142.666 -29.333 -201.999 -88
s-89 -125.334 -89 -200.001c0 -40.667 16.333 -74.334 49 -101.001s74 -40 124 -40c98.667 0 187 49 265 147c16.667 20.667 48 65.334 94 134.001c-56 24 -84 63 -84 117c0 64.667 36.667 113 110 145c35.333 15.333 94 30 176 44c30 5.33301 55 10 75 14l24 5
c17.333 12.667 40.166 25.5 68.499 38.5s48.166 19.5 59.499 19.5c5.33301 0 8 -1.66699 8 -5zM951.002 583.999l-34 -7.99805c-12 -2.66699 -29.667 -7 -53 -13c-79.333 -18.667 -142.5 -46.334 -189.5 -83.001s-70.5 -76.667 -70.5 -120
c0 -38.667 20.333 -67.334 61 -86.001c86 136.667 181.333 240 286 310z" />
    <glyph glyph-name="Iacute" unicode="&#xcd;" horiz-adv-x="719" 
d="M1194 811c-31.333 -23.333 -72.999 -46.333 -124.999 -69c-38 -16.667 -60.333 -25 -67 -25c-2 0 -3 0.666992 -3 2c0 0.666992 2 2 6 4c32 15.333 64.667 34.833 98 58.5s56.666 44.5 69.999 62.5zM1098 646c0 -5.33301 -13.5 -14 -40.5 -26s-57.833 -22.667 -92.5 -32
c-44.667 -32.667 -85.834 -73.5 -123.501 -122.5s-79.5 -116.5 -125.5 -202.5c4 -0.666992 8.66699 -1 14 -1c39.333 0 75.833 12.167 109.5 36.5s54.167 53.833 61.5 88.5c1.33301 5.33301 3 8 5 8s3 -1.33301 3 -4c0 -19.333 -10.667 -42 -32 -68
c-16.667 -20 -38.667 -36.5 -66 -49.5s-54.333 -19.5 -81 -19.5c-4.66699 0 -10.667 0.333008 -18 1c-30 -54.667 -48.833 -88 -56.5 -100s-19.5 -26.667 -35.5 -44c-37.333 -40.667 -84 -73 -140 -97s-111.667 -36 -167 -36c-63.333 0 -114.166 16.167 -152.499 48.5
s-57.5 75.5 -57.5 129.5c0 68.667 32.333 130.667 97 186s136.667 83 216 83c45.333 0 81.666 -12.667 108.999 -38s41 -59.333 41 -102c0 -58.667 -24.333 -112.667 -73 -162s-102 -74 -160 -74c-30.667 0 -56.5 10.833 -77.5 32.5s-31.5 48.5 -31.5 80.5
c0 44 19.667 83.333 59 118s84 52 134 52c16.667 0 32.834 -4.33301 48.501 -13s23.5 -17.667 23.5 -27c0 -2 -1.33301 -3 -4 -3c-0.666992 0 -2 1 -4 3c-14 21.333 -33.667 32 -59 32c-42.667 0 -83 -18.667 -121 -56s-57 -77 -57 -119c0 -28 8.33301 -50.167 25 -66.5
s39.334 -24.5 68.001 -24.5c53.333 0 103.333 24.333 150 73s70 100.334 70 155.001c0 38 -12.833 69.167 -38.5 93.5s-58.5 36.5 -98.5 36.5c-75.333 0 -142.666 -29.333 -201.999 -88s-89 -125.334 -89 -200.001c0 -40.667 16.333 -74.334 49 -101.001s74 -40 124 -40
c98.667 0 187 49 265 147c16.667 20.667 48 65.334 94 134.001c-56 24 -84 63 -84 117c0 64.667 36.667 113 110 145c35.333 15.333 94 30 176 44c30 5.33301 55 10 75 14l24 5c17.333 12.667 40.166 25.5 68.499 38.5s48.166 19.5 59.499 19.5c5.33301 0 8 -1.66699 8 -5z
M951.001 584l-34 -7.99805c-12 -2.66699 -29.667 -7 -53 -13c-79.333 -18.667 -142.5 -46.334 -189.5 -83.001s-70.5 -76.667 -70.5 -120c0 -38.667 20.333 -67.334 61 -86.001c86 136.667 181.333 240 286 310z" />
    <glyph glyph-name="Icircumflex" unicode="&#xce;" horiz-adv-x="719" 
d="M1035 844c-2 -24 -5.00098 -64.667 -9.00098 -122c0 -2.66699 -0.666992 -4 -2 -4c-1.33301 0.666992 -2 2 -2 4c-2 33.333 -6 56.333 -12 69c-19.333 -13.333 -49.666 -29 -90.999 -47s-67.333 -27 -78 -27c-2 0 -3 0.666992 -3 2c0.666992 0.666992 3 2 7 4
c36 15.333 72.833 35 110.5 59s64.167 44.667 79.5 62zM1098 646c0 -5.33301 -13.5 -14 -40.5 -26s-57.833 -22.667 -92.5 -32c-44.667 -32.667 -85.834 -73.5 -123.501 -122.5s-79.5 -116.5 -125.5 -202.5c4 -0.666992 8.66699 -1 14 -1c39.333 0 75.833 12.167 109.5 36.5
s54.167 53.833 61.5 88.5c1.33301 5.33301 3 8 5 8s3 -1.33301 3 -4c0 -19.333 -10.667 -42 -32 -68c-16.667 -20 -38.667 -36.5 -66 -49.5s-54.333 -19.5 -81 -19.5c-4.66699 0 -10.667 0.333008 -18 1c-30 -54.667 -48.833 -88 -56.5 -100s-19.5 -26.667 -35.5 -44
c-37.333 -40.667 -84 -73 -140 -97s-111.667 -36 -167 -36c-63.333 0 -114.166 16.167 -152.499 48.5s-57.5 75.5 -57.5 129.5c0 68.667 32.333 130.667 97 186s136.667 83 216 83c45.333 0 81.666 -12.667 108.999 -38s41 -59.333 41 -102
c0 -58.667 -24.333 -112.667 -73 -162s-102 -74 -160 -74c-30.667 0 -56.5 10.833 -77.5 32.5s-31.5 48.5 -31.5 80.5c0 44 19.667 83.333 59 118s84 52 134 52c16.667 0 32.834 -4.33301 48.501 -13s23.5 -17.667 23.5 -27c0 -2 -1.33301 -3 -4 -3c-0.666992 0 -2 1 -4 3
c-14 21.333 -33.667 32 -59 32c-42.667 0 -83 -18.667 -121 -56s-57 -77 -57 -119c0 -28 8.33301 -50.167 25 -66.5s39.334 -24.5 68.001 -24.5c53.333 0 103.333 24.333 150 73s70 100.334 70 155.001c0 38 -12.833 69.167 -38.5 93.5s-58.5 36.5 -98.5 36.5
c-75.333 0 -142.666 -29.333 -201.999 -88s-89 -125.334 -89 -200.001c0 -40.667 16.333 -74.334 49 -101.001s74 -40 124 -40c98.667 0 187 49 265 147c16.667 20.667 48 65.334 94 134.001c-56 24 -84 63 -84 117c0 64.667 36.667 113 110 145c35.333 15.333 94 30 176 44
c30 5.33301 55 10 75 14l24 5c17.333 12.667 40.166 25.5 68.499 38.5s48.166 19.5 59.499 19.5c5.33301 0 8 -1.66699 8 -5zM950.999 584l-34 -7.99805c-12 -2.66699 -29.667 -7 -53 -13c-79.333 -18.667 -142.5 -46.334 -189.5 -83.001s-70.5 -76.667 -70.5 -120
c0 -38.667 20.333 -67.334 61 -86.001c86 136.667 181.333 240 286 310z" />
    <glyph glyph-name="Idieresis" unicode="&#xcf;" horiz-adv-x="719" 
d="M1099 763c0 -12.667 -4.66797 -23.833 -14.001 -33.5s-19.666 -14.5 -30.999 -14.5c-16 0 -24 7.66699 -24 23c0 11.333 5 21.833 15 31.5s20.667 14.5 32 14.5c14.667 0 22 -7 22 -21zM1014 763.001c0 -12.667 -4.66797 -23.833 -14.001 -33.5
s-19.666 -14.5 -30.999 -14.5c-16 0 -24 7.66699 -24 23c0 11.333 5 21.833 15 31.5s20.667 14.5 32 14.5c14.667 0 22 -7 22 -21zM1098 646.002c0 -5.33301 -13.5 -14 -40.5 -26s-57.833 -22.667 -92.5 -32c-44.667 -32.667 -85.834 -73.5 -123.501 -122.5
s-79.5 -116.5 -125.5 -202.5c4 -0.666992 8.66699 -1 14 -1c39.333 0 75.833 12.167 109.5 36.5s54.167 53.833 61.5 88.5c1.33301 5.33301 3 8 5 8s3 -1.33301 3 -4c0 -19.333 -10.667 -42 -32 -68c-16.667 -20 -38.667 -36.5 -66 -49.5s-54.333 -19.5 -81 -19.5
c-4.66699 0 -10.667 0.333008 -18 1c-30 -54.667 -48.833 -88 -56.5 -100s-19.5 -26.667 -35.5 -44c-37.333 -40.667 -84 -73 -140 -97s-111.667 -36 -167 -36c-63.333 0 -114.166 16.167 -152.499 48.5s-57.5 75.5 -57.5 129.5c0 68.667 32.333 130.667 97 186
s136.667 83 216 83c45.333 0 81.666 -12.667 108.999 -38s41 -59.333 41 -102c0 -58.667 -24.333 -112.667 -73 -162s-102 -74 -160 -74c-30.667 0 -56.5 10.833 -77.5 32.5s-31.5 48.5 -31.5 80.5c0 44 19.667 83.333 59 118s84 52 134 52
c16.667 0 32.834 -4.33301 48.501 -13s23.5 -17.667 23.5 -27c0 -2 -1.33301 -3 -4 -3c-0.666992 0 -2 1 -4 3c-14 21.333 -33.667 32 -59 32c-42.667 0 -83 -18.667 -121 -56s-57 -77 -57 -119c0 -28 8.33301 -50.167 25 -66.5s39.334 -24.5 68.001 -24.5
c53.333 0 103.333 24.333 150 73s70 100.334 70 155.001c0 38 -12.833 69.167 -38.5 93.5s-58.5 36.5 -98.5 36.5c-75.333 0 -142.666 -29.333 -201.999 -88s-89 -125.334 -89 -200.001c0 -40.667 16.333 -74.334 49 -101.001s74 -40 124 -40c98.667 0 187 49 265 147
c16.667 20.667 48 65.334 94 134.001c-56 24 -84 63 -84 117c0 64.667 36.667 113 110 145c35.333 15.333 94 30 176 44c30 5.33301 55 10 75 14l24 5c17.333 12.667 40.166 25.5 68.499 38.5s48.166 19.5 59.499 19.5c5.33301 0 8 -1.66699 8 -5zM950.998 584.002
l-34 -7.99805c-12 -2.66699 -29.667 -7 -53 -13c-79.333 -18.667 -142.5 -46.334 -189.5 -83.001s-70.5 -76.667 -70.5 -120c0 -38.667 20.333 -67.334 61 -86.001c86 136.667 181.333 240 286 310z" />
    <glyph glyph-name="Eth" unicode="&#xd0;" horiz-adv-x="847" 
d="M1254 502c0 -16.667 -2 -34.167 -6 -52.5s-7.66699 -27.5 -11 -27.5c-2 0 -3 1 -3 3s0.333008 4 1 6c7.33301 20 11 43.333 11 70c0 41.333 -12.333 74.333 -37 99s-57.667 37 -99 37c-80.667 0 -157 -37.667 -229 -113c28 -52 42 -106.667 42 -164
c0 -106.667 -41 -197.167 -123 -271.5s-182 -111.5 -300 -111.5c-36.667 0 -86.667 5 -150 15c-55.333 -10 -108 -15 -158 -15c-86 0 -129 8.66699 -129 26c0 8.66699 10.5 16.167 31.5 22.5s45.5 9.5 73.5 9.5c34 0 101.333 -11 202 -33c63.333 16.667 114 42.167 152 76.5
s87 99.166 147 194.499h-80l3 9h83c64 103.333 126.667 184.666 188 243.999c-47.333 80 -124.333 120 -231 120c-110 0 -211 -43.333 -303 -130c-46.667 -44 -83.667 -92.167 -111 -144.5s-41 -101.166 -41 -146.499c0 -34.667 11.5 -62.5 34.5 -83.5
s53.5 -31.5 91.5 -31.5c63.333 0 127.666 34.5 192.999 103.5s98 136.833 98 203.5c0 21.333 -6.33301 38.833 -19 52.5s-28.667 20.5 -48 20.5c-46.667 0 -95.667 -29.167 -147 -87.5s-77 -113.5 -77 -165.5c0 -34 14 -51 42 -51h4c1.33301 0.666992 2.33301 1 3 1
c2 0 3 -1 3 -3c0 -2.66699 -3 -4 -9 -4c-18.667 0 -33.667 7.66699 -45 23s-17 35.333 -17 60c0 53.333 26.833 105.833 80.5 157.5s107.834 77.5 162.501 77.5c22.667 0 41 -7.66699 55 -23s21 -35.333 21 -60c0 -68.667 -33.667 -138.167 -101 -208.5
s-133.666 -105.5 -198.999 -105.5c-46.667 0 -85 15 -115 45s-45 68.333 -45 115c0 56 18.667 112.667 56 170s86.666 105 147.999 143c86 54 182 81 288 81c105.333 0 185 -39.667 239 -119c80.667 73.333 161.334 110 242.001 110c41.333 0 74.666 -13.167 99.999 -39.5
s38 -61.166 38 -104.499zM896 396c0 40.667 -8.66699 79.667 -26 117c-38 -42 -77.333 -105 -118 -189l-20 -42h94l-3 -9h-96c-35.333 -76 -78.5 -134.667 -129.5 -176s-121.5 -74.333 -211.5 -99c41.333 -8.66699 85.333 -13 132 -13c125.333 0 226.333 60 303 180
c50 78 75 155 75 231zM333 -5c-90 12.667 -157 19 -201 19c-39.333 0 -59 -3.66699 -59 -11c0 -11.333 42.667 -17 128 -17c49.333 0 93.333 3 132 9z" />
    <glyph glyph-name="Ntilde" unicode="&#xd1;" horiz-adv-x="944" 
d="M1256 758c0 -4.66699 -9.33496 -11.332 -28.002 -19.999s-32.667 -13 -42 -13c-10 0 -24.667 2.33301 -44 7l-10 2c-32 8 -52.667 12 -62 12c-8.66699 0 -18 -2.33301 -28 -7c-2.66699 -2 -5 -3 -7 -3s-3 0.666992 -3 2c0 2 8.16699 8 24.5 18s31.833 15 46.5 15
c8 0 28 -3.66699 60 -11c28.667 -6.66699 47.334 -10 56.001 -10c11.333 0 21 2.66699 29 8c2.66699 1.33301 4.33398 2 5.00098 2c2 -0.666992 3 -1.33398 3 -2.00098zM1585 482.002c0 -28 -3.00195 -41.998 -9.00195 -41.998c-2.66699 0 -4 1.33301 -4 4
c0 1.33301 0.666992 3.66602 2 6.99902s2 14 2 32c0 42.667 -16.167 78.167 -48.5 106.5s-72.833 42.5 -121.5 42.5c-98 0 -196.667 -63.667 -296 -191c-29.333 -38 -90 -133.667 -182 -287c-26.667 -45.333 -53.5 -84.833 -80.5 -118.5s-45.167 -50.5 -54.5 -50.5
c-4.66699 0 -7 2.33301 -7 7c0 6 7.33301 12.667 22 20c28.667 14 43 46.667 43 98c0 12 -0.666992 29.333 -2 52c-3.33301 56 -5 106 -5 150c0 70 6.83301 127.333 20.5 172s36.167 84.667 67.5 120c2 1.33301 3 2.33301 3 3c0 1.33301 -0.666992 2 -2 2
c-4.66699 0 -18 -11.333 -40 -34c-33.333 -34 -81.666 -108 -144.999 -222c-43.333 -78.667 -75 -132.5 -95 -161.5s-45 -57.833 -75 -86.5c-88.667 -85.333 -180 -128 -274 -128c-54 0 -98 17.667 -132 53s-51 81 -51 137c0 104 54.333 196 163 276
c13.333 67.333 50.833 125.833 112.5 175.5s127.834 74.5 198.501 74.5c31.333 0 56 -8 74 -24s27 -38 27 -66c0 -20.667 -7.16699 -45.167 -21.5 -73.5s-21.5 -47.833 -21.5 -58.5c0 -10 3.83301 -18.5 11.5 -25.5s17.167 -10.5 28.5 -10.5c30.667 0 65 27.333 103 82
c0.666992 1.33301 1.66699 2 3 2c2.66699 0 4 -1.33301 4 -4c0 -7.33301 -9.33301 -21.333 -28 -42c-28 -31.333 -55 -47 -81 -47c-18 0 -33.167 6.5 -45.5 19.5s-18.5 29.167 -18.5 48.5c0 16.667 7 39 21 67c16.667 33.333 25 56.333 25 69c0 16.667 -7.83301 30 -23.5 40
s-36.167 15 -61.5 15c-63.333 0 -125.166 -23.833 -185.499 -71.5s-97.166 -101.834 -110.499 -162.501c64 41.333 125.667 62 185 62c46.667 0 83.167 -13 109.5 -39s39.5 -62.333 39.5 -109c0 -66.667 -29 -129.834 -87 -189.501s-119 -89.5 -183 -89.5
c-31.333 0 -57.166 10.167 -77.499 30.5s-30.5 46.166 -30.5 77.499c0 44 18.333 89.667 55 137c-16.667 22.667 -25 47.667 -25 75v11c-40.667 -36.667 -72.834 -78.5 -96.501 -125.5s-35.5 -92.833 -35.5 -137.5c0 -49.333 14.667 -89.666 44 -120.999s67.333 -47 114 -47
c74.667 0 144.667 29 210 87s139.666 157 222.999 297c68 114.667 122.333 189.667 163 225c28 24.667 46 37 54 37c1.33301 0 2 -0.666992 2 -2c0 -0.666992 -2 -3.66699 -6 -9c-20.667 -27.333 -33.667 -56.666 -39 -87.999s-9 -97.666 -11 -198.999
c-2.66699 -125.333 -18 -214 -46 -266c-0.666992 0 -1 -0.333008 -1 -1s0.333008 -1.33398 1 -2.00098c6 0 39.667 54 101 162c56 98.667 94.5 164 115.5 196s46.167 64 75.5 96c80 86.667 164.333 130 253 130c53.333 0 97.166 -15.667 131.499 -47s51.5 -71.333 51.5 -120
zM612.996 385.004c0 36 -11.999 65 -35.999 87s-55.333 33 -94 33c-65.333 0 -129.333 -26.333 -192 -79c-0.666992 -6 -1 -12.333 -1 -19c0 -25.333 7.66699 -48 23 -68c18.667 19.333 39.5 36.666 62.5 51.999s39.833 23 50.5 23c2 0 3.33301 -1 4 -3
c0 -2 -5.33301 -5.33301 -16 -10c-36.667 -15.333 -68.667 -38.666 -96 -69.999c20.667 -24.667 48.667 -37 84 -37c29.333 0 59 8.33301 89 25s54.333 38.334 73 65.001c1.33301 1.33301 2.33301 2 3 2c2.66699 0 4 -1.33301 4 -4c0 -6.66699 -10.333 -19.334 -31 -38.001
c-42 -38.667 -88.333 -58 -139 -58c-34.667 0 -64.334 12.667 -89.001 38c-34 -44 -51 -86.333 -51 -127c0 -30 9 -54.5 27 -73.5s41.333 -28.5 70 -28.5c58 0 115 31.833 171 95.5s84 128.5 84 194.5z" />
    <glyph glyph-name="Ograve" unicode="&#xd2;" horiz-adv-x="773" 
d="M839 703c-0.666992 -1.33301 -1.66504 -2.00098 -2.99805 -2.00098c-8.66699 0 -19.834 12.333 -33.501 37s-23.834 51.334 -30.501 80.001l44 30c-6 -16 -9 -32.333 -9 -49c0 -35.333 9.33301 -65 28 -89l1 -2c2 -2 3 -3.66699 3 -5zM889.002 407.999
c0 -54 -15 -108.832 -45 -164.499s-72 -106.5 -126 -152.5c-96 -82 -187.333 -123 -274 -123c-58 0 -105.667 21.333 -143 64s-56 97.334 -56 164.001c0 57.333 15.667 116 47 176s74.333 113.333 129 160c46.667 39.333 99.5 71.833 158.5 97.5s111.167 38.5 156.5 38.5
c42 0 75.333 -10.833 100 -32.5s37 -50.834 37 -87.501c0 -12.667 -1.33301 -26.667 -4 -42c13.333 -32.667 20 -65.334 20 -98.001zM865.002 546c0 32.667 -10.833 59.499 -32.5 80.499s-49.5 31.5 -83.5 31.5c-71.333 0 -143.333 -25.667 -216 -77
c-69.333 -50 -126.333 -113.667 -171 -191c-46.667 -80 -70 -159.667 -70 -239c0 -51.333 14 -93.166 42 -125.499s64.333 -48.5 109 -48.5c59.333 0 121 24.667 185 74c62 48 113.333 108 154 180c43.333 75.333 65.333 148.333 66 219
c-9.33301 -20.667 -27.333 -45.834 -54 -75.501s-44.667 -44.5 -54 -44.5c-2.66699 0 -4 1.33301 -4 4c0 1.33301 2.33301 3.66602 7 6.99902c21.333 14.667 42.166 34.334 62.499 59.001s34.5 47.334 42.5 68.001c-7.33301 80 -50.666 120 -129.999 120
c-70 0 -140.333 -38.333 -211 -115c-85.333 -92.667 -128 -182 -128 -268c0 -29.333 8.16699 -53.166 24.5 -71.499s37.833 -27.5 64.5 -27.5c48 0 95.833 33.333 143.5 100s71.5 127.667 71.5 183c0 18.667 -4.66699 34.167 -14 46.5s-21.333 18.5 -36 18.5
c-4 0 -6.66699 -0.333008 -8 -1h-4c-2.66699 0 -4 1 -4 3c0 4 5.33301 6 16 6c20 0 36.333 -8.5 49 -25.5s19 -38.833 19 -65.5c0 -64.667 -25.167 -126.5 -75.5 -185.5s-103.166 -88.5 -158.499 -88.5c-30.667 0 -55.334 11.167 -74.001 33.5s-28 51.166 -28 86.499
c0 85.333 39.167 169.833 117.5 253.5s157.166 125.5 236.499 125.5c68.667 0 116.334 -25.667 143.001 -77c2 10 3 19 3 27z" />
    </font>
</defs>
</svg>
